G04 #@! TF.GenerationSoftware,KiCad,Pcbnew,(5.1.2)-2*
G04 #@! TF.CreationDate,2020-01-10T15:24:26+03:00*
G04 #@! TF.ProjectId,DINODE,44494e4f-4445-42e6-9b69-6361645f7063,rev?*
G04 #@! TF.SameCoordinates,Original*
G04 #@! TF.FileFunction,Legend,Top*
G04 #@! TF.FilePolarity,Positive*
%FSLAX46Y46*%
G04 Gerber Fmt 4.6, Leading zero omitted, Abs format (unit mm)*
G04 Created by KiCad (PCBNEW (5.1.2)-2) date 2020-01-10 15:24:26*
%MOMM*%
%LPD*%
G04 APERTURE LIST*
%ADD10C,0.150000*%
%ADD11C,0.120000*%
%ADD12C,0.050000*%
%ADD13C,0.300000*%
%ADD14C,0.500000*%
%ADD15C,0.010000*%
%ADD16C,0.100000*%
G04 APERTURE END LIST*
D10*
X171997619Y-39354523D02*
X171997619Y-39164047D01*
X171950000Y-39068809D01*
X171902380Y-39021190D01*
X171759523Y-38925952D01*
X171569047Y-38878333D01*
X171188095Y-38878333D01*
X171092857Y-38925952D01*
X171045238Y-38973571D01*
X170997619Y-39068809D01*
X170997619Y-39259285D01*
X171045238Y-39354523D01*
X171092857Y-39402142D01*
X171188095Y-39449761D01*
X171426190Y-39449761D01*
X171521428Y-39402142D01*
X171569047Y-39354523D01*
X171616666Y-39259285D01*
X171616666Y-39068809D01*
X171569047Y-38973571D01*
X171521428Y-38925952D01*
X171426190Y-38878333D01*
X171092857Y-39878333D02*
X171045238Y-39925952D01*
X170997619Y-39878333D01*
X171045238Y-39830714D01*
X171092857Y-39878333D01*
X170997619Y-39878333D01*
X171997619Y-40259285D02*
X171997619Y-40878333D01*
X171616666Y-40545000D01*
X171616666Y-40687857D01*
X171569047Y-40783095D01*
X171521428Y-40830714D01*
X171426190Y-40878333D01*
X171188095Y-40878333D01*
X171092857Y-40830714D01*
X171045238Y-40783095D01*
X170997619Y-40687857D01*
X170997619Y-40402142D01*
X171045238Y-40306904D01*
X171092857Y-40259285D01*
X171997619Y-41783095D02*
X171997619Y-41306904D01*
X171521428Y-41259285D01*
X171569047Y-41306904D01*
X171616666Y-41402142D01*
X171616666Y-41640238D01*
X171569047Y-41735476D01*
X171521428Y-41783095D01*
X171426190Y-41830714D01*
X171188095Y-41830714D01*
X171092857Y-41783095D01*
X171045238Y-41735476D01*
X170997619Y-41640238D01*
X170997619Y-41402142D01*
X171045238Y-41306904D01*
X171092857Y-41259285D01*
X171997619Y-42449761D02*
X171997619Y-42545000D01*
X171950000Y-42640238D01*
X171902380Y-42687857D01*
X171807142Y-42735476D01*
X171616666Y-42783095D01*
X171378571Y-42783095D01*
X171188095Y-42735476D01*
X171092857Y-42687857D01*
X171045238Y-42640238D01*
X170997619Y-42545000D01*
X170997619Y-42449761D01*
X171045238Y-42354523D01*
X171092857Y-42306904D01*
X171188095Y-42259285D01*
X171378571Y-42211666D01*
X171616666Y-42211666D01*
X171807142Y-42259285D01*
X171902380Y-42306904D01*
X171950000Y-42354523D01*
X171997619Y-42449761D01*
X170997619Y-43973571D02*
X171664285Y-43973571D01*
X171569047Y-43973571D02*
X171616666Y-44021190D01*
X171664285Y-44116428D01*
X171664285Y-44259285D01*
X171616666Y-44354523D01*
X171521428Y-44402142D01*
X170997619Y-44402142D01*
X171521428Y-44402142D02*
X171616666Y-44449761D01*
X171664285Y-44545000D01*
X171664285Y-44687857D01*
X171616666Y-44783095D01*
X171521428Y-44830714D01*
X170997619Y-44830714D01*
X170997619Y-45306904D02*
X171664285Y-45306904D01*
X171569047Y-45306904D02*
X171616666Y-45354523D01*
X171664285Y-45449761D01*
X171664285Y-45592619D01*
X171616666Y-45687857D01*
X171521428Y-45735476D01*
X170997619Y-45735476D01*
X171521428Y-45735476D02*
X171616666Y-45783095D01*
X171664285Y-45878333D01*
X171664285Y-46021190D01*
X171616666Y-46116428D01*
X171521428Y-46164047D01*
X170997619Y-46164047D01*
D11*
X170180000Y-39370000D02*
X170180000Y-45720000D01*
X159131000Y-39370000D02*
X170766421Y-39370000D01*
X159131000Y-45720000D02*
X170766421Y-45720000D01*
X170180000Y-45720000D02*
X169593579Y-44593496D01*
X170180000Y-45720000D02*
X170766421Y-44593496D01*
X170180000Y-39370000D02*
X169593579Y-40496504D01*
X170180000Y-39370000D02*
X170766421Y-40496504D01*
D10*
X178823952Y-91582380D02*
X178776333Y-91677619D01*
X178728714Y-91725238D01*
X178633476Y-91772857D01*
X178585857Y-91772857D01*
X178490619Y-91725238D01*
X178443000Y-91677619D01*
X178395380Y-91582380D01*
X178395380Y-91391904D01*
X178443000Y-91296666D01*
X178490619Y-91249047D01*
X178585857Y-91201428D01*
X178633476Y-91201428D01*
X178728714Y-91249047D01*
X178776333Y-91296666D01*
X178823952Y-91391904D01*
X178823952Y-91582380D01*
X178871571Y-91677619D01*
X178919190Y-91725238D01*
X179014428Y-91772857D01*
X179204904Y-91772857D01*
X179300142Y-91725238D01*
X179347761Y-91677619D01*
X179395380Y-91582380D01*
X179395380Y-91391904D01*
X179347761Y-91296666D01*
X179300142Y-91249047D01*
X179204904Y-91201428D01*
X179014428Y-91201428D01*
X178919190Y-91249047D01*
X178871571Y-91296666D01*
X178823952Y-91391904D01*
X178395380Y-90868095D02*
X178395380Y-90249047D01*
X178776333Y-90582380D01*
X178776333Y-90439523D01*
X178823952Y-90344285D01*
X178871571Y-90296666D01*
X178966809Y-90249047D01*
X179204904Y-90249047D01*
X179300142Y-90296666D01*
X179347761Y-90344285D01*
X179395380Y-90439523D01*
X179395380Y-90725238D01*
X179347761Y-90820476D01*
X179300142Y-90868095D01*
X179300142Y-89820476D02*
X179347761Y-89772857D01*
X179395380Y-89820476D01*
X179347761Y-89868095D01*
X179300142Y-89820476D01*
X179395380Y-89820476D01*
X178823952Y-89201428D02*
X178776333Y-89296666D01*
X178728714Y-89344285D01*
X178633476Y-89391904D01*
X178585857Y-89391904D01*
X178490619Y-89344285D01*
X178443000Y-89296666D01*
X178395380Y-89201428D01*
X178395380Y-89010952D01*
X178443000Y-88915714D01*
X178490619Y-88868095D01*
X178585857Y-88820476D01*
X178633476Y-88820476D01*
X178728714Y-88868095D01*
X178776333Y-88915714D01*
X178823952Y-89010952D01*
X178823952Y-89201428D01*
X178871571Y-89296666D01*
X178919190Y-89344285D01*
X179014428Y-89391904D01*
X179204904Y-89391904D01*
X179300142Y-89344285D01*
X179347761Y-89296666D01*
X179395380Y-89201428D01*
X179395380Y-89010952D01*
X179347761Y-88915714D01*
X179300142Y-88868095D01*
X179204904Y-88820476D01*
X179014428Y-88820476D01*
X178919190Y-88868095D01*
X178871571Y-88915714D01*
X178823952Y-89010952D01*
X178490619Y-88439523D02*
X178443000Y-88391904D01*
X178395380Y-88296666D01*
X178395380Y-88058571D01*
X178443000Y-87963333D01*
X178490619Y-87915714D01*
X178585857Y-87868095D01*
X178681095Y-87868095D01*
X178823952Y-87915714D01*
X179395380Y-88487142D01*
X179395380Y-87868095D01*
X178395380Y-87249047D02*
X178395380Y-87153809D01*
X178443000Y-87058571D01*
X178490619Y-87010952D01*
X178585857Y-86963333D01*
X178776333Y-86915714D01*
X179014428Y-86915714D01*
X179204904Y-86963333D01*
X179300142Y-87010952D01*
X179347761Y-87058571D01*
X179395380Y-87153809D01*
X179395380Y-87249047D01*
X179347761Y-87344285D01*
X179300142Y-87391904D01*
X179204904Y-87439523D01*
X179014428Y-87487142D01*
X178776333Y-87487142D01*
X178585857Y-87439523D01*
X178490619Y-87391904D01*
X178443000Y-87344285D01*
X178395380Y-87249047D01*
X179395380Y-85725238D02*
X178728714Y-85725238D01*
X178823952Y-85725238D02*
X178776333Y-85677619D01*
X178728714Y-85582380D01*
X178728714Y-85439523D01*
X178776333Y-85344285D01*
X178871571Y-85296666D01*
X179395380Y-85296666D01*
X178871571Y-85296666D02*
X178776333Y-85249047D01*
X178728714Y-85153809D01*
X178728714Y-85010952D01*
X178776333Y-84915714D01*
X178871571Y-84868095D01*
X179395380Y-84868095D01*
X179395380Y-84391904D02*
X178728714Y-84391904D01*
X178823952Y-84391904D02*
X178776333Y-84344285D01*
X178728714Y-84249047D01*
X178728714Y-84106190D01*
X178776333Y-84010952D01*
X178871571Y-83963333D01*
X179395380Y-83963333D01*
X178871571Y-83963333D02*
X178776333Y-83915714D01*
X178728714Y-83820476D01*
X178728714Y-83677619D01*
X178776333Y-83582380D01*
X178871571Y-83534761D01*
X179395380Y-83534761D01*
D11*
X177673000Y-129540000D02*
X177673000Y-45720000D01*
X159131000Y-129540000D02*
X178259421Y-129540000D01*
X159131000Y-45720000D02*
X178259421Y-45720000D01*
X177673000Y-45720000D02*
X178259421Y-46846504D01*
X177673000Y-45720000D02*
X177086579Y-46846504D01*
X177673000Y-129540000D02*
X178259421Y-128413496D01*
X177673000Y-129540000D02*
X177086579Y-128413496D01*
D10*
X150289071Y-42743380D02*
X149717642Y-42743380D01*
X150003357Y-42743380D02*
X150003357Y-41743380D01*
X149908119Y-41886238D01*
X149812880Y-41981476D01*
X149717642Y-42029095D01*
X150908119Y-41743380D02*
X151003357Y-41743380D01*
X151098595Y-41791000D01*
X151146214Y-41838619D01*
X151193833Y-41933857D01*
X151241452Y-42124333D01*
X151241452Y-42362428D01*
X151193833Y-42552904D01*
X151146214Y-42648142D01*
X151098595Y-42695761D01*
X151003357Y-42743380D01*
X150908119Y-42743380D01*
X150812880Y-42695761D01*
X150765261Y-42648142D01*
X150717642Y-42552904D01*
X150670023Y-42362428D01*
X150670023Y-42124333D01*
X150717642Y-41933857D01*
X150765261Y-41838619D01*
X150812880Y-41791000D01*
X150908119Y-41743380D01*
X151670023Y-42648142D02*
X151717642Y-42695761D01*
X151670023Y-42743380D01*
X151622404Y-42695761D01*
X151670023Y-42648142D01*
X151670023Y-42743380D01*
X152622404Y-41743380D02*
X152146214Y-41743380D01*
X152098595Y-42219571D01*
X152146214Y-42171952D01*
X152241452Y-42124333D01*
X152479547Y-42124333D01*
X152574785Y-42171952D01*
X152622404Y-42219571D01*
X152670023Y-42314809D01*
X152670023Y-42552904D01*
X152622404Y-42648142D01*
X152574785Y-42695761D01*
X152479547Y-42743380D01*
X152241452Y-42743380D01*
X152146214Y-42695761D01*
X152098595Y-42648142D01*
X153527166Y-42076714D02*
X153527166Y-42743380D01*
X153289071Y-41695761D02*
X153050976Y-42410047D01*
X153670023Y-42410047D01*
X154574785Y-42743380D02*
X154003357Y-42743380D01*
X154289071Y-42743380D02*
X154289071Y-41743380D01*
X154193833Y-41886238D01*
X154098595Y-41981476D01*
X154003357Y-42029095D01*
X155765261Y-42743380D02*
X155765261Y-42076714D01*
X155765261Y-42171952D02*
X155812880Y-42124333D01*
X155908119Y-42076714D01*
X156050976Y-42076714D01*
X156146214Y-42124333D01*
X156193833Y-42219571D01*
X156193833Y-42743380D01*
X156193833Y-42219571D02*
X156241452Y-42124333D01*
X156336690Y-42076714D01*
X156479547Y-42076714D01*
X156574785Y-42124333D01*
X156622404Y-42219571D01*
X156622404Y-42743380D01*
X157098595Y-42743380D02*
X157098595Y-42076714D01*
X157098595Y-42171952D02*
X157146214Y-42124333D01*
X157241452Y-42076714D01*
X157384309Y-42076714D01*
X157479547Y-42124333D01*
X157527166Y-42219571D01*
X157527166Y-42743380D01*
X157527166Y-42219571D02*
X157574785Y-42124333D01*
X157670023Y-42076714D01*
X157812880Y-42076714D01*
X157908119Y-42124333D01*
X157955738Y-42219571D01*
X157955738Y-42743380D01*
D11*
X148590000Y-43561000D02*
X159131000Y-43561000D01*
X148590000Y-45720000D02*
X148590000Y-42974579D01*
X159131000Y-45720000D02*
X159131000Y-42974579D01*
X159131000Y-43561000D02*
X158004496Y-44147421D01*
X159131000Y-43561000D02*
X158004496Y-42974579D01*
X148590000Y-43561000D02*
X149716504Y-44147421D01*
X148590000Y-43561000D02*
X149716504Y-42974579D01*
D10*
X142562996Y-37177040D02*
X142076747Y-36876887D01*
X142319872Y-37026963D02*
X142845141Y-36176027D01*
X142689061Y-36247564D01*
X142557994Y-36278580D01*
X142451939Y-36269075D01*
X143362406Y-36607248D02*
X143427939Y-36591740D01*
X143533994Y-36601245D01*
X143736598Y-36726309D01*
X143792626Y-36816856D01*
X143808134Y-36882389D01*
X143798629Y-36988444D01*
X143748604Y-37069485D01*
X143633045Y-37166035D01*
X142846642Y-37352130D01*
X143373412Y-37677297D01*
X143788124Y-37821371D02*
X143803632Y-37886904D01*
X143738098Y-37902412D01*
X143722590Y-37836879D01*
X143788124Y-37821371D01*
X143738098Y-37902412D01*
X144830658Y-37401655D02*
X144911700Y-37451681D01*
X144967729Y-37542228D01*
X144983237Y-37607761D01*
X144973732Y-37713815D01*
X144914201Y-37900911D01*
X144789137Y-38103515D01*
X144648565Y-38240585D01*
X144558019Y-38296614D01*
X144492485Y-38312122D01*
X144386431Y-38302617D01*
X144305389Y-38252592D01*
X144249360Y-38162045D01*
X144233853Y-38096512D01*
X144243357Y-37990457D01*
X144302888Y-37803361D01*
X144427952Y-37600758D01*
X144568524Y-37463687D01*
X144659070Y-37407659D01*
X144724604Y-37392151D01*
X144830658Y-37401655D01*
X145375438Y-38241586D02*
X145319409Y-38151040D01*
X145303901Y-38085506D01*
X145313406Y-37979452D01*
X145338419Y-37938931D01*
X145428965Y-37882902D01*
X145494499Y-37867394D01*
X145600553Y-37876899D01*
X145762636Y-37976950D01*
X145818665Y-38067497D01*
X145834173Y-38133030D01*
X145824668Y-38239085D01*
X145799655Y-38279605D01*
X145709109Y-38335634D01*
X145643575Y-38351142D01*
X145537521Y-38341637D01*
X145375438Y-38241586D01*
X145269383Y-38232081D01*
X145203850Y-38247589D01*
X145113303Y-38303618D01*
X145013252Y-38465701D01*
X145003747Y-38571755D01*
X145019255Y-38637289D01*
X145075284Y-38727835D01*
X145237367Y-38827886D01*
X145343421Y-38837391D01*
X145408955Y-38821883D01*
X145499501Y-38765855D01*
X145599552Y-38603772D01*
X145609057Y-38497717D01*
X145593549Y-38432184D01*
X145537521Y-38341637D01*
X145804658Y-39178066D02*
X145966741Y-39278117D01*
X146072795Y-39287622D01*
X146138329Y-39272114D01*
X146294409Y-39200577D01*
X146434981Y-39063507D01*
X146635083Y-38739341D01*
X146644588Y-38633287D01*
X146629080Y-38567753D01*
X146573051Y-38477207D01*
X146410968Y-38377155D01*
X146304914Y-38367651D01*
X146239380Y-38383158D01*
X146148834Y-38439187D01*
X146023770Y-38641791D01*
X146014265Y-38747845D01*
X146029773Y-38813379D01*
X146085802Y-38903925D01*
X146247885Y-39003977D01*
X146353939Y-39013482D01*
X146419473Y-38997974D01*
X146510019Y-38941945D01*
X147222884Y-40053515D02*
X147573064Y-39486224D01*
X147523038Y-39567265D02*
X147588572Y-39551757D01*
X147694626Y-39561262D01*
X147816188Y-39636301D01*
X147872217Y-39726847D01*
X147862712Y-39832901D01*
X147587571Y-40278630D01*
X147862712Y-39832901D02*
X147953259Y-39776873D01*
X148059313Y-39786378D01*
X148180875Y-39861416D01*
X148236904Y-39951963D01*
X148227399Y-40058017D01*
X147952258Y-40503745D01*
X148357466Y-40753873D02*
X148707645Y-40186583D01*
X148657620Y-40267624D02*
X148723153Y-40252116D01*
X148829208Y-40261621D01*
X148950770Y-40336660D01*
X149006799Y-40427206D01*
X148997294Y-40533260D01*
X148722153Y-40978989D01*
X148997294Y-40533260D02*
X149087840Y-40477232D01*
X149193895Y-40486737D01*
X149315457Y-40561775D01*
X149371486Y-40652321D01*
X149361981Y-40758376D01*
X149086840Y-41204104D01*
D11*
X140029084Y-36573744D02*
X150316084Y-42923744D01*
X138303000Y-39370000D02*
X140337113Y-36074737D01*
X148590000Y-45720000D02*
X150624113Y-42424737D01*
X150316084Y-42923744D02*
X149049473Y-42831033D01*
X150316084Y-42923744D02*
X149665530Y-41833020D01*
X140029084Y-36573744D02*
X140679638Y-37664468D01*
X140029084Y-36573744D02*
X141295695Y-36666455D01*
D10*
X120888642Y-35742619D02*
X120936261Y-35695000D01*
X121031500Y-35647380D01*
X121269595Y-35647380D01*
X121364833Y-35695000D01*
X121412452Y-35742619D01*
X121460071Y-35837857D01*
X121460071Y-35933095D01*
X121412452Y-36075952D01*
X120841023Y-36647380D01*
X121460071Y-36647380D01*
X122317214Y-35647380D02*
X122126738Y-35647380D01*
X122031500Y-35695000D01*
X121983880Y-35742619D01*
X121888642Y-35885476D01*
X121841023Y-36075952D01*
X121841023Y-36456904D01*
X121888642Y-36552142D01*
X121936261Y-36599761D01*
X122031500Y-36647380D01*
X122221976Y-36647380D01*
X122317214Y-36599761D01*
X122364833Y-36552142D01*
X122412452Y-36456904D01*
X122412452Y-36218809D01*
X122364833Y-36123571D01*
X122317214Y-36075952D01*
X122221976Y-36028333D01*
X122031500Y-36028333D01*
X121936261Y-36075952D01*
X121888642Y-36123571D01*
X121841023Y-36218809D01*
X122841023Y-36552142D02*
X122888642Y-36599761D01*
X122841023Y-36647380D01*
X122793404Y-36599761D01*
X122841023Y-36552142D01*
X122841023Y-36647380D01*
X123793404Y-35647380D02*
X123317214Y-35647380D01*
X123269595Y-36123571D01*
X123317214Y-36075952D01*
X123412452Y-36028333D01*
X123650547Y-36028333D01*
X123745785Y-36075952D01*
X123793404Y-36123571D01*
X123841023Y-36218809D01*
X123841023Y-36456904D01*
X123793404Y-36552142D01*
X123745785Y-36599761D01*
X123650547Y-36647380D01*
X123412452Y-36647380D01*
X123317214Y-36599761D01*
X123269595Y-36552142D01*
X124698166Y-35980714D02*
X124698166Y-36647380D01*
X124460071Y-35599761D02*
X124221976Y-36314047D01*
X124841023Y-36314047D01*
X125126738Y-35647380D02*
X125745785Y-35647380D01*
X125412452Y-36028333D01*
X125555309Y-36028333D01*
X125650547Y-36075952D01*
X125698166Y-36123571D01*
X125745785Y-36218809D01*
X125745785Y-36456904D01*
X125698166Y-36552142D01*
X125650547Y-36599761D01*
X125555309Y-36647380D01*
X125269595Y-36647380D01*
X125174357Y-36599761D01*
X125126738Y-36552142D01*
X126936261Y-36647380D02*
X126936261Y-35980714D01*
X126936261Y-36075952D02*
X126983880Y-36028333D01*
X127079119Y-35980714D01*
X127221976Y-35980714D01*
X127317214Y-36028333D01*
X127364833Y-36123571D01*
X127364833Y-36647380D01*
X127364833Y-36123571D02*
X127412452Y-36028333D01*
X127507690Y-35980714D01*
X127650547Y-35980714D01*
X127745785Y-36028333D01*
X127793404Y-36123571D01*
X127793404Y-36647380D01*
X128269595Y-36647380D02*
X128269595Y-35980714D01*
X128269595Y-36075952D02*
X128317214Y-36028333D01*
X128412452Y-35980714D01*
X128555309Y-35980714D01*
X128650547Y-36028333D01*
X128698166Y-36123571D01*
X128698166Y-36647380D01*
X128698166Y-36123571D02*
X128745785Y-36028333D01*
X128841023Y-35980714D01*
X128983880Y-35980714D01*
X129079119Y-36028333D01*
X129126738Y-36123571D01*
X129126738Y-36647380D01*
D11*
X111760000Y-37465000D02*
X138303000Y-37465000D01*
X111760000Y-39370000D02*
X111760000Y-36878579D01*
X138303000Y-39370000D02*
X138303000Y-36878579D01*
X138303000Y-37465000D02*
X137176496Y-38051421D01*
X138303000Y-37465000D02*
X137176496Y-36878579D01*
X111760000Y-37465000D02*
X112886504Y-38051421D01*
X111760000Y-37465000D02*
X112886504Y-36878579D01*
D10*
X101740754Y-41445526D02*
X101254505Y-41745680D01*
X101497629Y-41595603D02*
X100972360Y-40744667D01*
X100966357Y-40916255D01*
X100935341Y-41047322D01*
X100879312Y-41137869D01*
X101589676Y-40475529D02*
X101605184Y-40409996D01*
X101661213Y-40319449D01*
X101863817Y-40194385D01*
X101969871Y-40184880D01*
X102035405Y-40200388D01*
X102125951Y-40256417D01*
X102175977Y-40337458D01*
X102210494Y-40484033D01*
X102024399Y-41270436D01*
X102551169Y-40945270D01*
X102865830Y-40639113D02*
X102931364Y-40654621D01*
X102915856Y-40720154D01*
X102850322Y-40704647D01*
X102865830Y-40639113D01*
X102915856Y-40720154D01*
X102957878Y-39519039D02*
X103038919Y-39469013D01*
X103144973Y-39459508D01*
X103210507Y-39475016D01*
X103301053Y-39531045D01*
X103441625Y-39668115D01*
X103566690Y-39870719D01*
X103626220Y-40057815D01*
X103635725Y-40163869D01*
X103620217Y-40229403D01*
X103564188Y-40319949D01*
X103483147Y-40369975D01*
X103377092Y-40379480D01*
X103311559Y-40363972D01*
X103221012Y-40307943D01*
X103080440Y-40170873D01*
X102955376Y-39968269D01*
X102895846Y-39781173D01*
X102886341Y-39675119D01*
X102901849Y-39609585D01*
X102957878Y-39519039D01*
X103952887Y-39408482D02*
X103846833Y-39417987D01*
X103781300Y-39402479D01*
X103690753Y-39346450D01*
X103665740Y-39305930D01*
X103656235Y-39199875D01*
X103671743Y-39134342D01*
X103727772Y-39043795D01*
X103889855Y-38943744D01*
X103995910Y-38934239D01*
X104061443Y-38949747D01*
X104151990Y-39005776D01*
X104177002Y-39046297D01*
X104186507Y-39152351D01*
X104170999Y-39217885D01*
X104114971Y-39308431D01*
X103952887Y-39408482D01*
X103896859Y-39499029D01*
X103881351Y-39564562D01*
X103890856Y-39670617D01*
X103990907Y-39832700D01*
X104081453Y-39888728D01*
X104146987Y-39904236D01*
X104253041Y-39894731D01*
X104415124Y-39794680D01*
X104471153Y-39704134D01*
X104486661Y-39638600D01*
X104477156Y-39532546D01*
X104377105Y-39370463D01*
X104286558Y-39314434D01*
X104221025Y-39298926D01*
X104114971Y-39308431D01*
X104982415Y-39444501D02*
X105144498Y-39344449D01*
X105200527Y-39253903D01*
X105216035Y-39188369D01*
X105222038Y-39016781D01*
X105162507Y-38829686D01*
X104962405Y-38505519D01*
X104871858Y-38449491D01*
X104806325Y-38433983D01*
X104700271Y-38443488D01*
X104538187Y-38543539D01*
X104482159Y-38634085D01*
X104466651Y-38699619D01*
X104476156Y-38805673D01*
X104601220Y-39008277D01*
X104691766Y-39064306D01*
X104757300Y-39079814D01*
X104863354Y-39070309D01*
X105025437Y-38970258D01*
X105081466Y-38879711D01*
X105096974Y-38814178D01*
X105087469Y-38708123D01*
X106400642Y-38569052D02*
X106050462Y-38001761D01*
X106100488Y-38082803D02*
X106115996Y-38017269D01*
X106172025Y-37926723D01*
X106293587Y-37851684D01*
X106399641Y-37842179D01*
X106490188Y-37898208D01*
X106765329Y-38343937D01*
X106490188Y-37898208D02*
X106480683Y-37792154D01*
X106536712Y-37701607D01*
X106658274Y-37626569D01*
X106764328Y-37617064D01*
X106854875Y-37673093D01*
X107130016Y-38118821D01*
X107535223Y-37868693D02*
X107185044Y-37301402D01*
X107235070Y-37382444D02*
X107250578Y-37316910D01*
X107306606Y-37226364D01*
X107428169Y-37151325D01*
X107534223Y-37141821D01*
X107624769Y-37197849D01*
X107899910Y-37643578D01*
X107624769Y-37197849D02*
X107615264Y-37091795D01*
X107671293Y-37001249D01*
X107792855Y-36926210D01*
X107898910Y-36916705D01*
X107989456Y-36972734D01*
X108264597Y-37418462D01*
D11*
X100065782Y-43440307D02*
X110352782Y-37090307D01*
X101473000Y-45720000D02*
X99757754Y-42941301D01*
X111760000Y-39370000D02*
X110044754Y-36591301D01*
X110352782Y-37090307D02*
X109702228Y-38181031D01*
X110352782Y-37090307D02*
X109086171Y-37183018D01*
X100065782Y-43440307D02*
X101332393Y-43347596D01*
X100065782Y-43440307D02*
X100716336Y-42349583D01*
D10*
X89710071Y-43124380D02*
X89138642Y-43124380D01*
X89424357Y-43124380D02*
X89424357Y-42124380D01*
X89329119Y-42267238D01*
X89233880Y-42362476D01*
X89138642Y-42410095D01*
X90567214Y-42124380D02*
X90376738Y-42124380D01*
X90281500Y-42172000D01*
X90233880Y-42219619D01*
X90138642Y-42362476D01*
X90091023Y-42552952D01*
X90091023Y-42933904D01*
X90138642Y-43029142D01*
X90186261Y-43076761D01*
X90281500Y-43124380D01*
X90471976Y-43124380D01*
X90567214Y-43076761D01*
X90614833Y-43029142D01*
X90662452Y-42933904D01*
X90662452Y-42695809D01*
X90614833Y-42600571D01*
X90567214Y-42552952D01*
X90471976Y-42505333D01*
X90281500Y-42505333D01*
X90186261Y-42552952D01*
X90138642Y-42600571D01*
X90091023Y-42695809D01*
X91091023Y-43029142D02*
X91138642Y-43076761D01*
X91091023Y-43124380D01*
X91043404Y-43076761D01*
X91091023Y-43029142D01*
X91091023Y-43124380D01*
X91471976Y-42124380D02*
X92091023Y-42124380D01*
X91757690Y-42505333D01*
X91900547Y-42505333D01*
X91995785Y-42552952D01*
X92043404Y-42600571D01*
X92091023Y-42695809D01*
X92091023Y-42933904D01*
X92043404Y-43029142D01*
X91995785Y-43076761D01*
X91900547Y-43124380D01*
X91614833Y-43124380D01*
X91519595Y-43076761D01*
X91471976Y-43029142D01*
X92662452Y-42552952D02*
X92567214Y-42505333D01*
X92519595Y-42457714D01*
X92471976Y-42362476D01*
X92471976Y-42314857D01*
X92519595Y-42219619D01*
X92567214Y-42172000D01*
X92662452Y-42124380D01*
X92852928Y-42124380D01*
X92948166Y-42172000D01*
X92995785Y-42219619D01*
X93043404Y-42314857D01*
X93043404Y-42362476D01*
X92995785Y-42457714D01*
X92948166Y-42505333D01*
X92852928Y-42552952D01*
X92662452Y-42552952D01*
X92567214Y-42600571D01*
X92519595Y-42648190D01*
X92471976Y-42743428D01*
X92471976Y-42933904D01*
X92519595Y-43029142D01*
X92567214Y-43076761D01*
X92662452Y-43124380D01*
X92852928Y-43124380D01*
X92948166Y-43076761D01*
X92995785Y-43029142D01*
X93043404Y-42933904D01*
X93043404Y-42743428D01*
X92995785Y-42648190D01*
X92948166Y-42600571D01*
X92852928Y-42552952D01*
X93376738Y-42124380D02*
X93995785Y-42124380D01*
X93662452Y-42505333D01*
X93805309Y-42505333D01*
X93900547Y-42552952D01*
X93948166Y-42600571D01*
X93995785Y-42695809D01*
X93995785Y-42933904D01*
X93948166Y-43029142D01*
X93900547Y-43076761D01*
X93805309Y-43124380D01*
X93519595Y-43124380D01*
X93424357Y-43076761D01*
X93376738Y-43029142D01*
X95186261Y-43124380D02*
X95186261Y-42457714D01*
X95186261Y-42552952D02*
X95233880Y-42505333D01*
X95329119Y-42457714D01*
X95471976Y-42457714D01*
X95567214Y-42505333D01*
X95614833Y-42600571D01*
X95614833Y-43124380D01*
X95614833Y-42600571D02*
X95662452Y-42505333D01*
X95757690Y-42457714D01*
X95900547Y-42457714D01*
X95995785Y-42505333D01*
X96043404Y-42600571D01*
X96043404Y-43124380D01*
X96519595Y-43124380D02*
X96519595Y-42457714D01*
X96519595Y-42552952D02*
X96567214Y-42505333D01*
X96662452Y-42457714D01*
X96805309Y-42457714D01*
X96900547Y-42505333D01*
X96948166Y-42600571D01*
X96948166Y-43124380D01*
X96948166Y-42600571D02*
X96995785Y-42505333D01*
X97091023Y-42457714D01*
X97233880Y-42457714D01*
X97329119Y-42505333D01*
X97376738Y-42600571D01*
X97376738Y-43124380D01*
D11*
X85090000Y-43942000D02*
X101473000Y-43942000D01*
X85090000Y-45720000D02*
X85090000Y-43355579D01*
X101473000Y-45720000D02*
X101473000Y-43355579D01*
X101473000Y-43942000D02*
X100346496Y-44528421D01*
X101473000Y-43942000D02*
X100346496Y-43355579D01*
X85090000Y-43942000D02*
X86216504Y-44528421D01*
X85090000Y-43942000D02*
X86216504Y-43355579D01*
D10*
X81653047Y-83677619D02*
X81700666Y-83582380D01*
X81748285Y-83534761D01*
X81843523Y-83487142D01*
X81891142Y-83487142D01*
X81986380Y-83534761D01*
X82034000Y-83582380D01*
X82081619Y-83677619D01*
X82081619Y-83868095D01*
X82034000Y-83963333D01*
X81986380Y-84010952D01*
X81891142Y-84058571D01*
X81843523Y-84058571D01*
X81748285Y-84010952D01*
X81700666Y-83963333D01*
X81653047Y-83868095D01*
X81653047Y-83677619D01*
X81605428Y-83582380D01*
X81557809Y-83534761D01*
X81462571Y-83487142D01*
X81272095Y-83487142D01*
X81176857Y-83534761D01*
X81129238Y-83582380D01*
X81081619Y-83677619D01*
X81081619Y-83868095D01*
X81129238Y-83963333D01*
X81176857Y-84010952D01*
X81272095Y-84058571D01*
X81462571Y-84058571D01*
X81557809Y-84010952D01*
X81605428Y-83963333D01*
X81653047Y-83868095D01*
X82081619Y-84391904D02*
X82081619Y-85010952D01*
X81700666Y-84677619D01*
X81700666Y-84820476D01*
X81653047Y-84915714D01*
X81605428Y-84963333D01*
X81510190Y-85010952D01*
X81272095Y-85010952D01*
X81176857Y-84963333D01*
X81129238Y-84915714D01*
X81081619Y-84820476D01*
X81081619Y-84534761D01*
X81129238Y-84439523D01*
X81176857Y-84391904D01*
X81176857Y-85439523D02*
X81129238Y-85487142D01*
X81081619Y-85439523D01*
X81129238Y-85391904D01*
X81176857Y-85439523D01*
X81081619Y-85439523D01*
X81653047Y-86058571D02*
X81700666Y-85963333D01*
X81748285Y-85915714D01*
X81843523Y-85868095D01*
X81891142Y-85868095D01*
X81986380Y-85915714D01*
X82034000Y-85963333D01*
X82081619Y-86058571D01*
X82081619Y-86249047D01*
X82034000Y-86344285D01*
X81986380Y-86391904D01*
X81891142Y-86439523D01*
X81843523Y-86439523D01*
X81748285Y-86391904D01*
X81700666Y-86344285D01*
X81653047Y-86249047D01*
X81653047Y-86058571D01*
X81605428Y-85963333D01*
X81557809Y-85915714D01*
X81462571Y-85868095D01*
X81272095Y-85868095D01*
X81176857Y-85915714D01*
X81129238Y-85963333D01*
X81081619Y-86058571D01*
X81081619Y-86249047D01*
X81129238Y-86344285D01*
X81176857Y-86391904D01*
X81272095Y-86439523D01*
X81462571Y-86439523D01*
X81557809Y-86391904D01*
X81605428Y-86344285D01*
X81653047Y-86249047D01*
X81986380Y-86820476D02*
X82034000Y-86868095D01*
X82081619Y-86963333D01*
X82081619Y-87201428D01*
X82034000Y-87296666D01*
X81986380Y-87344285D01*
X81891142Y-87391904D01*
X81795904Y-87391904D01*
X81653047Y-87344285D01*
X81081619Y-86772857D01*
X81081619Y-87391904D01*
X82081619Y-88010952D02*
X82081619Y-88106190D01*
X82034000Y-88201428D01*
X81986380Y-88249047D01*
X81891142Y-88296666D01*
X81700666Y-88344285D01*
X81462571Y-88344285D01*
X81272095Y-88296666D01*
X81176857Y-88249047D01*
X81129238Y-88201428D01*
X81081619Y-88106190D01*
X81081619Y-88010952D01*
X81129238Y-87915714D01*
X81176857Y-87868095D01*
X81272095Y-87820476D01*
X81462571Y-87772857D01*
X81700666Y-87772857D01*
X81891142Y-87820476D01*
X81986380Y-87868095D01*
X82034000Y-87915714D01*
X82081619Y-88010952D01*
X81081619Y-89534761D02*
X81748285Y-89534761D01*
X81653047Y-89534761D02*
X81700666Y-89582380D01*
X81748285Y-89677619D01*
X81748285Y-89820476D01*
X81700666Y-89915714D01*
X81605428Y-89963333D01*
X81081619Y-89963333D01*
X81605428Y-89963333D02*
X81700666Y-90010952D01*
X81748285Y-90106190D01*
X81748285Y-90249047D01*
X81700666Y-90344285D01*
X81605428Y-90391904D01*
X81081619Y-90391904D01*
X81081619Y-90868095D02*
X81748285Y-90868095D01*
X81653047Y-90868095D02*
X81700666Y-90915714D01*
X81748285Y-91010952D01*
X81748285Y-91153809D01*
X81700666Y-91249047D01*
X81605428Y-91296666D01*
X81081619Y-91296666D01*
X81605428Y-91296666D02*
X81700666Y-91344285D01*
X81748285Y-91439523D01*
X81748285Y-91582380D01*
X81700666Y-91677619D01*
X81605428Y-91725238D01*
X81081619Y-91725238D01*
D11*
X82804000Y-45720000D02*
X82804000Y-129540000D01*
X85090000Y-45720000D02*
X82217579Y-45720000D01*
X85090000Y-129540000D02*
X82217579Y-129540000D01*
X82804000Y-129540000D02*
X82217579Y-128413496D01*
X82804000Y-129540000D02*
X83390421Y-128413496D01*
X82804000Y-45720000D02*
X82217579Y-46846504D01*
X82804000Y-45720000D02*
X83390421Y-46846504D01*
D10*
X117920023Y-133183379D02*
X118586690Y-133183379D01*
X118158119Y-134183379D01*
X119396214Y-133516713D02*
X119396214Y-134183379D01*
X119158119Y-133135760D02*
X118920023Y-133850046D01*
X119539071Y-133850046D01*
X119920023Y-134088141D02*
X119967642Y-134135760D01*
X119920023Y-134183379D01*
X119872404Y-134135760D01*
X119920023Y-134088141D01*
X119920023Y-134183379D01*
X120586690Y-133183379D02*
X120681928Y-133183379D01*
X120777166Y-133230999D01*
X120824785Y-133278618D01*
X120872404Y-133373856D01*
X120920023Y-133564332D01*
X120920023Y-133802427D01*
X120872404Y-133992903D01*
X120824785Y-134088141D01*
X120777166Y-134135760D01*
X120681928Y-134183379D01*
X120586690Y-134183379D01*
X120491452Y-134135760D01*
X120443833Y-134088141D01*
X120396214Y-133992903D01*
X120348595Y-133802427D01*
X120348595Y-133564332D01*
X120396214Y-133373856D01*
X120443833Y-133278618D01*
X120491452Y-133230999D01*
X120586690Y-133183379D01*
X121777166Y-133516713D02*
X121777166Y-134183379D01*
X121539071Y-133135760D02*
X121300976Y-133850046D01*
X121920023Y-133850046D01*
X122824785Y-134183379D02*
X122253357Y-134183379D01*
X122539071Y-134183379D02*
X122539071Y-133183379D01*
X122443833Y-133326237D01*
X122348595Y-133421475D01*
X122253357Y-133469094D01*
X124015261Y-134183379D02*
X124015261Y-133516713D01*
X124015261Y-133611951D02*
X124062880Y-133564332D01*
X124158119Y-133516713D01*
X124300976Y-133516713D01*
X124396214Y-133564332D01*
X124443833Y-133659570D01*
X124443833Y-134183379D01*
X124443833Y-133659570D02*
X124491452Y-133564332D01*
X124586690Y-133516713D01*
X124729547Y-133516713D01*
X124824785Y-133564332D01*
X124872404Y-133659570D01*
X124872404Y-134183379D01*
X125348595Y-134183379D02*
X125348595Y-133516713D01*
X125348595Y-133611951D02*
X125396214Y-133564332D01*
X125491452Y-133516713D01*
X125634309Y-133516713D01*
X125729547Y-133564332D01*
X125777166Y-133659570D01*
X125777166Y-134183379D01*
X125777166Y-133659570D02*
X125824785Y-133564332D01*
X125920023Y-133516713D01*
X126062880Y-133516713D01*
X126158119Y-133564332D01*
X126205738Y-133659570D01*
X126205738Y-134183379D01*
D11*
X85090000Y-132460999D02*
X159131000Y-132460999D01*
X85090000Y-129540000D02*
X85090000Y-133047420D01*
X159131000Y-129540000D02*
X159131000Y-133047420D01*
X159131000Y-132460999D02*
X158004496Y-133047420D01*
X159131000Y-132460999D02*
X158004496Y-131874578D01*
X85090000Y-132460999D02*
X86216504Y-133047420D01*
X85090000Y-132460999D02*
X86216504Y-131874578D01*
D12*
X159131000Y-129540000D02*
X130810000Y-129540000D01*
X159131000Y-60198000D02*
X159131000Y-129540000D01*
X159131000Y-45720000D02*
X148590000Y-45720000D01*
X159131000Y-60198000D02*
X159131000Y-45720000D01*
X137160000Y-43180000D02*
X111760000Y-43180000D01*
X137160000Y-46990000D02*
X137160000Y-43180000D01*
X111760000Y-46990000D02*
X137160000Y-46990000D01*
X111760000Y-43180000D02*
X111760000Y-46990000D01*
X138303000Y-39370000D02*
X148590000Y-45720000D01*
X136017000Y-39370000D02*
X138303000Y-39370000D01*
X111760000Y-39370000D02*
X136017000Y-39370000D01*
X101473000Y-45720000D02*
X111760000Y-39370000D01*
X86995000Y-45720000D02*
X101473000Y-45720000D01*
X85090000Y-45720000D02*
X86995000Y-45720000D01*
X85090000Y-129540000D02*
X90170000Y-129540000D01*
X85090000Y-45720000D02*
X85090000Y-129540000D01*
X90170000Y-129540000D02*
X130810000Y-129540000D01*
D10*
X133818380Y-82446380D02*
X134627904Y-82446380D01*
X134723142Y-82398761D01*
X134770761Y-82351142D01*
X134818380Y-82255904D01*
X134818380Y-82065428D01*
X134770761Y-81970190D01*
X134723142Y-81922571D01*
X134627904Y-81874952D01*
X133818380Y-81874952D01*
X134770761Y-81446380D02*
X134818380Y-81303523D01*
X134818380Y-81065428D01*
X134770761Y-80970190D01*
X134723142Y-80922571D01*
X134627904Y-80874952D01*
X134532666Y-80874952D01*
X134437428Y-80922571D01*
X134389809Y-80970190D01*
X134342190Y-81065428D01*
X134294571Y-81255904D01*
X134246952Y-81351142D01*
X134199333Y-81398761D01*
X134104095Y-81446380D01*
X134008857Y-81446380D01*
X133913619Y-81398761D01*
X133866000Y-81351142D01*
X133818380Y-81255904D01*
X133818380Y-81017809D01*
X133866000Y-80874952D01*
X134294571Y-80446380D02*
X134294571Y-80113047D01*
X134818380Y-79970190D02*
X134818380Y-80446380D01*
X133818380Y-80446380D01*
X133818380Y-79970190D01*
X134818380Y-78970190D02*
X134342190Y-79303523D01*
X134818380Y-79541619D02*
X133818380Y-79541619D01*
X133818380Y-79160666D01*
X133866000Y-79065428D01*
X133913619Y-79017809D01*
X134008857Y-78970190D01*
X134151714Y-78970190D01*
X134246952Y-79017809D01*
X134294571Y-79065428D01*
X134342190Y-79160666D01*
X134342190Y-79541619D01*
X134818380Y-77303523D02*
X134818380Y-77779714D01*
X133818380Y-77779714D01*
X134294571Y-76970190D02*
X134294571Y-76636857D01*
X134818380Y-76494000D02*
X134818380Y-76970190D01*
X133818380Y-76970190D01*
X133818380Y-76494000D01*
X134818380Y-76065428D02*
X133818380Y-76065428D01*
X133818380Y-75827333D01*
X133866000Y-75684476D01*
X133961238Y-75589238D01*
X134056476Y-75541619D01*
X134246952Y-75494000D01*
X134389809Y-75494000D01*
X134580285Y-75541619D01*
X134675523Y-75589238D01*
X134770761Y-75684476D01*
X134818380Y-75827333D01*
X134818380Y-76065428D01*
X153122380Y-117570095D02*
X153122380Y-116951047D01*
X153503333Y-117284380D01*
X153503333Y-117141523D01*
X153550952Y-117046285D01*
X153598571Y-116998666D01*
X153693809Y-116951047D01*
X153931904Y-116951047D01*
X154027142Y-116998666D01*
X154074761Y-117046285D01*
X154122380Y-117141523D01*
X154122380Y-117427238D01*
X154074761Y-117522476D01*
X154027142Y-117570095D01*
X153122380Y-116665333D02*
X154122380Y-116332000D01*
X153122380Y-115998666D01*
X153122380Y-115760571D02*
X153122380Y-115141523D01*
X153503333Y-115474857D01*
X153503333Y-115332000D01*
X153550952Y-115236761D01*
X153598571Y-115189142D01*
X153693809Y-115141523D01*
X153931904Y-115141523D01*
X154027142Y-115189142D01*
X154074761Y-115236761D01*
X154122380Y-115332000D01*
X154122380Y-115617714D01*
X154074761Y-115712952D01*
X154027142Y-115760571D01*
X148550380Y-116014476D02*
X148550380Y-116490666D01*
X149026571Y-116538285D01*
X148978952Y-116490666D01*
X148931333Y-116395428D01*
X148931333Y-116157333D01*
X148978952Y-116062095D01*
X149026571Y-116014476D01*
X149121809Y-115966857D01*
X149359904Y-115966857D01*
X149455142Y-116014476D01*
X149502761Y-116062095D01*
X149550380Y-116157333D01*
X149550380Y-116395428D01*
X149502761Y-116490666D01*
X149455142Y-116538285D01*
X148550380Y-115681142D02*
X149550380Y-115347809D01*
X148550380Y-115014476D01*
X146058000Y-116331904D02*
X146010380Y-116427142D01*
X146010380Y-116570000D01*
X146058000Y-116712857D01*
X146153238Y-116808095D01*
X146248476Y-116855714D01*
X146438952Y-116903333D01*
X146581809Y-116903333D01*
X146772285Y-116855714D01*
X146867523Y-116808095D01*
X146962761Y-116712857D01*
X147010380Y-116570000D01*
X147010380Y-116474761D01*
X146962761Y-116331904D01*
X146915142Y-116284285D01*
X146581809Y-116284285D01*
X146581809Y-116474761D01*
X147010380Y-115855714D02*
X146010380Y-115855714D01*
X147010380Y-115284285D01*
X146010380Y-115284285D01*
X147010380Y-114808095D02*
X146010380Y-114808095D01*
X146010380Y-114570000D01*
X146058000Y-114427142D01*
X146153238Y-114331904D01*
X146248476Y-114284285D01*
X146438952Y-114236666D01*
X146581809Y-114236666D01*
X146772285Y-114284285D01*
X146867523Y-114331904D01*
X146962761Y-114427142D01*
X147010380Y-114570000D01*
X147010380Y-114808095D01*
X130778761Y-112688666D02*
X131254952Y-112688666D01*
X130683523Y-112974380D02*
X131016857Y-111974380D01*
X131350190Y-112974380D01*
X131540666Y-111974380D02*
X131874000Y-112974380D01*
X132207333Y-111974380D01*
X133112095Y-112974380D02*
X132778761Y-112498190D01*
X132540666Y-112974380D02*
X132540666Y-111974380D01*
X132921619Y-111974380D01*
X133016857Y-112022000D01*
X133064476Y-112069619D01*
X133112095Y-112164857D01*
X133112095Y-112307714D01*
X133064476Y-112402952D01*
X133016857Y-112450571D01*
X132921619Y-112498190D01*
X132540666Y-112498190D01*
X133540666Y-112593428D02*
X134302571Y-112593428D01*
X134778761Y-112974380D02*
X134778761Y-111974380D01*
X135207333Y-112926761D02*
X135350190Y-112974380D01*
X135588285Y-112974380D01*
X135683523Y-112926761D01*
X135731142Y-112879142D01*
X135778761Y-112783904D01*
X135778761Y-112688666D01*
X135731142Y-112593428D01*
X135683523Y-112545809D01*
X135588285Y-112498190D01*
X135397809Y-112450571D01*
X135302571Y-112402952D01*
X135254952Y-112355333D01*
X135207333Y-112260095D01*
X135207333Y-112164857D01*
X135254952Y-112069619D01*
X135302571Y-112022000D01*
X135397809Y-111974380D01*
X135635904Y-111974380D01*
X135778761Y-112022000D01*
X136207333Y-112974380D02*
X136207333Y-111974380D01*
X136588285Y-111974380D01*
X136683523Y-112022000D01*
X136731142Y-112069619D01*
X136778761Y-112164857D01*
X136778761Y-112307714D01*
X136731142Y-112402952D01*
X136683523Y-112450571D01*
X136588285Y-112498190D01*
X136207333Y-112498190D01*
X137207333Y-112593428D02*
X137969238Y-112593428D01*
X138874000Y-111974380D02*
X138683523Y-111974380D01*
X138588285Y-112022000D01*
X138540666Y-112069619D01*
X138445428Y-112212476D01*
X138397809Y-112402952D01*
X138397809Y-112783904D01*
X138445428Y-112879142D01*
X138493047Y-112926761D01*
X138588285Y-112974380D01*
X138778761Y-112974380D01*
X138874000Y-112926761D01*
X138921619Y-112879142D01*
X138969238Y-112783904D01*
X138969238Y-112545809D01*
X138921619Y-112450571D01*
X138874000Y-112402952D01*
X138778761Y-112355333D01*
X138588285Y-112355333D01*
X138493047Y-112402952D01*
X138445428Y-112450571D01*
X138397809Y-112545809D01*
X100393809Y-109164380D02*
X99917619Y-109164380D01*
X99917619Y-108164380D01*
X101298571Y-109069142D02*
X101250952Y-109116761D01*
X101108095Y-109164380D01*
X101012857Y-109164380D01*
X100870000Y-109116761D01*
X100774761Y-109021523D01*
X100727142Y-108926285D01*
X100679523Y-108735809D01*
X100679523Y-108592952D01*
X100727142Y-108402476D01*
X100774761Y-108307238D01*
X100870000Y-108212000D01*
X101012857Y-108164380D01*
X101108095Y-108164380D01*
X101250952Y-108212000D01*
X101298571Y-108259619D01*
X101727142Y-109164380D02*
X101727142Y-108164380D01*
X101965238Y-108164380D01*
X102108095Y-108212000D01*
X102203333Y-108307238D01*
X102250952Y-108402476D01*
X102298571Y-108592952D01*
X102298571Y-108735809D01*
X102250952Y-108926285D01*
X102203333Y-109021523D01*
X102108095Y-109116761D01*
X101965238Y-109164380D01*
X101727142Y-109164380D01*
X103489047Y-109164380D02*
X103489047Y-108164380D01*
X103870000Y-108164380D01*
X103965238Y-108212000D01*
X104012857Y-108259619D01*
X104060476Y-108354857D01*
X104060476Y-108497714D01*
X104012857Y-108592952D01*
X103965238Y-108640571D01*
X103870000Y-108688190D01*
X103489047Y-108688190D01*
X104679523Y-108164380D02*
X104870000Y-108164380D01*
X104965238Y-108212000D01*
X105060476Y-108307238D01*
X105108095Y-108497714D01*
X105108095Y-108831047D01*
X105060476Y-109021523D01*
X104965238Y-109116761D01*
X104870000Y-109164380D01*
X104679523Y-109164380D01*
X104584285Y-109116761D01*
X104489047Y-109021523D01*
X104441428Y-108831047D01*
X104441428Y-108497714D01*
X104489047Y-108307238D01*
X104584285Y-108212000D01*
X104679523Y-108164380D01*
X105393809Y-108164380D02*
X105965238Y-108164380D01*
X105679523Y-109164380D02*
X105679523Y-108164380D01*
X122484000Y-71334380D02*
X122484000Y-72143904D01*
X122531619Y-72239142D01*
X122579238Y-72286761D01*
X122674476Y-72334380D01*
X122864952Y-72334380D01*
X122960190Y-72286761D01*
X123007809Y-72239142D01*
X123055428Y-72143904D01*
X123055428Y-71334380D01*
X123484000Y-72286761D02*
X123626857Y-72334380D01*
X123864952Y-72334380D01*
X123960190Y-72286761D01*
X124007809Y-72239142D01*
X124055428Y-72143904D01*
X124055428Y-72048666D01*
X124007809Y-71953428D01*
X123960190Y-71905809D01*
X123864952Y-71858190D01*
X123674476Y-71810571D01*
X123579238Y-71762952D01*
X123531619Y-71715333D01*
X123484000Y-71620095D01*
X123484000Y-71524857D01*
X123531619Y-71429619D01*
X123579238Y-71382000D01*
X123674476Y-71334380D01*
X123912571Y-71334380D01*
X124055428Y-71382000D01*
X124484000Y-71810571D02*
X124817333Y-71810571D01*
X124960190Y-72334380D02*
X124484000Y-72334380D01*
X124484000Y-71334380D01*
X124960190Y-71334380D01*
X125960190Y-72334380D02*
X125626857Y-71858190D01*
X125388761Y-72334380D02*
X125388761Y-71334380D01*
X125769714Y-71334380D01*
X125864952Y-71382000D01*
X125912571Y-71429619D01*
X125960190Y-71524857D01*
X125960190Y-71667714D01*
X125912571Y-71762952D01*
X125864952Y-71810571D01*
X125769714Y-71858190D01*
X125388761Y-71858190D01*
X127150666Y-72334380D02*
X127150666Y-71334380D01*
X127531619Y-71334380D01*
X127626857Y-71382000D01*
X127674476Y-71429619D01*
X127722095Y-71524857D01*
X127722095Y-71667714D01*
X127674476Y-71762952D01*
X127626857Y-71810571D01*
X127531619Y-71858190D01*
X127150666Y-71858190D01*
X128341142Y-71334380D02*
X128531619Y-71334380D01*
X128626857Y-71382000D01*
X128722095Y-71477238D01*
X128769714Y-71667714D01*
X128769714Y-72001047D01*
X128722095Y-72191523D01*
X128626857Y-72286761D01*
X128531619Y-72334380D01*
X128341142Y-72334380D01*
X128245904Y-72286761D01*
X128150666Y-72191523D01*
X128103047Y-72001047D01*
X128103047Y-71667714D01*
X128150666Y-71477238D01*
X128245904Y-71382000D01*
X128341142Y-71334380D01*
X129055428Y-71334380D02*
X129626857Y-71334380D01*
X129341142Y-72334380D02*
X129341142Y-71334380D01*
X152471619Y-59126380D02*
X152138285Y-58650190D01*
X151900190Y-59126380D02*
X151900190Y-58126380D01*
X152281142Y-58126380D01*
X152376380Y-58174000D01*
X152424000Y-58221619D01*
X152471619Y-58316857D01*
X152471619Y-58459714D01*
X152424000Y-58554952D01*
X152376380Y-58602571D01*
X152281142Y-58650190D01*
X151900190Y-58650190D01*
X152900190Y-58602571D02*
X153233523Y-58602571D01*
X153376380Y-59126380D02*
X152900190Y-59126380D01*
X152900190Y-58126380D01*
X153376380Y-58126380D01*
X153757333Y-59078761D02*
X153900190Y-59126380D01*
X154138285Y-59126380D01*
X154233523Y-59078761D01*
X154281142Y-59031142D01*
X154328761Y-58935904D01*
X154328761Y-58840666D01*
X154281142Y-58745428D01*
X154233523Y-58697809D01*
X154138285Y-58650190D01*
X153947809Y-58602571D01*
X153852571Y-58554952D01*
X153804952Y-58507333D01*
X153757333Y-58412095D01*
X153757333Y-58316857D01*
X153804952Y-58221619D01*
X153852571Y-58174000D01*
X153947809Y-58126380D01*
X154185904Y-58126380D01*
X154328761Y-58174000D01*
X154757333Y-58602571D02*
X155090666Y-58602571D01*
X155233523Y-59126380D02*
X154757333Y-59126380D01*
X154757333Y-58126380D01*
X155233523Y-58126380D01*
X155519238Y-58126380D02*
X156090666Y-58126380D01*
X155804952Y-59126380D02*
X155804952Y-58126380D01*
X137072666Y-56991047D02*
X137072666Y-56514857D01*
X137358380Y-57086285D02*
X136358380Y-56752952D01*
X137358380Y-56419619D01*
X137358380Y-55514857D02*
X136882190Y-55848190D01*
X137358380Y-56086285D02*
X136358380Y-56086285D01*
X136358380Y-55705333D01*
X136406000Y-55610095D01*
X136453619Y-55562476D01*
X136548857Y-55514857D01*
X136691714Y-55514857D01*
X136786952Y-55562476D01*
X136834571Y-55610095D01*
X136882190Y-55705333D01*
X136882190Y-56086285D01*
X136834571Y-55086285D02*
X136834571Y-54752952D01*
X137358380Y-54610095D02*
X137358380Y-55086285D01*
X136358380Y-55086285D01*
X136358380Y-54610095D01*
X136834571Y-53848190D02*
X136834571Y-54181523D01*
X137358380Y-54181523D02*
X136358380Y-54181523D01*
X136358380Y-53705333D01*
X139001523Y-50252380D02*
X138525333Y-50252380D01*
X138477714Y-50728571D01*
X138525333Y-50680952D01*
X138620571Y-50633333D01*
X138858666Y-50633333D01*
X138953904Y-50680952D01*
X139001523Y-50728571D01*
X139049142Y-50823809D01*
X139049142Y-51061904D01*
X139001523Y-51157142D01*
X138953904Y-51204761D01*
X138858666Y-51252380D01*
X138620571Y-51252380D01*
X138525333Y-51204761D01*
X138477714Y-51157142D01*
X139334857Y-50252380D02*
X139668190Y-51252380D01*
X140001523Y-50252380D01*
X137699904Y-59650380D02*
X138318952Y-59650380D01*
X137985619Y-60031333D01*
X138128476Y-60031333D01*
X138223714Y-60078952D01*
X138271333Y-60126571D01*
X138318952Y-60221809D01*
X138318952Y-60459904D01*
X138271333Y-60555142D01*
X138223714Y-60602761D01*
X138128476Y-60650380D01*
X137842761Y-60650380D01*
X137747523Y-60602761D01*
X137699904Y-60555142D01*
X138604666Y-59650380D02*
X138938000Y-60650380D01*
X139271333Y-59650380D01*
X139509428Y-59650380D02*
X140128476Y-59650380D01*
X139795142Y-60031333D01*
X139938000Y-60031333D01*
X140033238Y-60078952D01*
X140080857Y-60126571D01*
X140128476Y-60221809D01*
X140128476Y-60459904D01*
X140080857Y-60555142D01*
X140033238Y-60602761D01*
X139938000Y-60650380D01*
X139652285Y-60650380D01*
X139557047Y-60602761D01*
X139509428Y-60555142D01*
X143367333Y-58586666D02*
X143843523Y-58586666D01*
X143272095Y-58872380D02*
X143605428Y-57872380D01*
X143938761Y-58872380D01*
X144129238Y-57872380D02*
X144462571Y-58872380D01*
X144795904Y-57872380D01*
X145700666Y-58777142D02*
X145653047Y-58824761D01*
X145510190Y-58872380D01*
X145414952Y-58872380D01*
X145272095Y-58824761D01*
X145176857Y-58729523D01*
X145129238Y-58634285D01*
X145081619Y-58443809D01*
X145081619Y-58300952D01*
X145129238Y-58110476D01*
X145176857Y-58015238D01*
X145272095Y-57920000D01*
X145414952Y-57872380D01*
X145510190Y-57872380D01*
X145653047Y-57920000D01*
X145700666Y-57967619D01*
X146700666Y-58777142D02*
X146653047Y-58824761D01*
X146510190Y-58872380D01*
X146414952Y-58872380D01*
X146272095Y-58824761D01*
X146176857Y-58729523D01*
X146129238Y-58634285D01*
X146081619Y-58443809D01*
X146081619Y-58300952D01*
X146129238Y-58110476D01*
X146176857Y-58015238D01*
X146272095Y-57920000D01*
X146414952Y-57872380D01*
X146510190Y-57872380D01*
X146653047Y-57920000D01*
X146700666Y-57967619D01*
X144335523Y-51268380D02*
X143859333Y-51268380D01*
X143811714Y-51744571D01*
X143859333Y-51696952D01*
X143954571Y-51649333D01*
X144192666Y-51649333D01*
X144287904Y-51696952D01*
X144335523Y-51744571D01*
X144383142Y-51839809D01*
X144383142Y-52077904D01*
X144335523Y-52173142D01*
X144287904Y-52220761D01*
X144192666Y-52268380D01*
X143954571Y-52268380D01*
X143859333Y-52220761D01*
X143811714Y-52173142D01*
X144668857Y-51268380D02*
X145002190Y-52268380D01*
X145335523Y-51268380D01*
X147351904Y-112212380D02*
X147351904Y-111212380D01*
X147732857Y-111212380D01*
X147828095Y-111260000D01*
X147875714Y-111307619D01*
X147923333Y-111402857D01*
X147923333Y-111545714D01*
X147875714Y-111640952D01*
X147828095Y-111688571D01*
X147732857Y-111736190D01*
X147351904Y-111736190D01*
X148351904Y-112212380D02*
X148351904Y-111212380D01*
X148590000Y-111212380D01*
X148732857Y-111260000D01*
X148828095Y-111355238D01*
X148875714Y-111450476D01*
X148923333Y-111640952D01*
X148923333Y-111783809D01*
X148875714Y-111974285D01*
X148828095Y-112069523D01*
X148732857Y-112164761D01*
X148590000Y-112212380D01*
X148351904Y-112212380D01*
X149256666Y-111212380D02*
X149923333Y-111212380D01*
X149494761Y-112212380D01*
X147351904Y-109672380D02*
X147351904Y-108672380D01*
X147732857Y-108672380D01*
X147828095Y-108720000D01*
X147875714Y-108767619D01*
X147923333Y-108862857D01*
X147923333Y-109005714D01*
X147875714Y-109100952D01*
X147828095Y-109148571D01*
X147732857Y-109196190D01*
X147351904Y-109196190D01*
X148351904Y-109672380D02*
X148351904Y-108672380D01*
X148590000Y-108672380D01*
X148732857Y-108720000D01*
X148828095Y-108815238D01*
X148875714Y-108910476D01*
X148923333Y-109100952D01*
X148923333Y-109243809D01*
X148875714Y-109434285D01*
X148828095Y-109529523D01*
X148732857Y-109624761D01*
X148590000Y-109672380D01*
X148351904Y-109672380D01*
X149828095Y-108672380D02*
X149351904Y-108672380D01*
X149304285Y-109148571D01*
X149351904Y-109100952D01*
X149447142Y-109053333D01*
X149685238Y-109053333D01*
X149780476Y-109100952D01*
X149828095Y-109148571D01*
X149875714Y-109243809D01*
X149875714Y-109481904D01*
X149828095Y-109577142D01*
X149780476Y-109624761D01*
X149685238Y-109672380D01*
X149447142Y-109672380D01*
X149351904Y-109624761D01*
X149304285Y-109577142D01*
X147351904Y-107132380D02*
X147351904Y-106132380D01*
X147732857Y-106132380D01*
X147828095Y-106180000D01*
X147875714Y-106227619D01*
X147923333Y-106322857D01*
X147923333Y-106465714D01*
X147875714Y-106560952D01*
X147828095Y-106608571D01*
X147732857Y-106656190D01*
X147351904Y-106656190D01*
X148351904Y-107132380D02*
X148351904Y-106132380D01*
X148590000Y-106132380D01*
X148732857Y-106180000D01*
X148828095Y-106275238D01*
X148875714Y-106370476D01*
X148923333Y-106560952D01*
X148923333Y-106703809D01*
X148875714Y-106894285D01*
X148828095Y-106989523D01*
X148732857Y-107084761D01*
X148590000Y-107132380D01*
X148351904Y-107132380D01*
X149256666Y-106132380D02*
X149875714Y-106132380D01*
X149542380Y-106513333D01*
X149685238Y-106513333D01*
X149780476Y-106560952D01*
X149828095Y-106608571D01*
X149875714Y-106703809D01*
X149875714Y-106941904D01*
X149828095Y-107037142D01*
X149780476Y-107084761D01*
X149685238Y-107132380D01*
X149399523Y-107132380D01*
X149304285Y-107084761D01*
X149256666Y-107037142D01*
X147351904Y-103957380D02*
X147351904Y-102957380D01*
X147732857Y-102957380D01*
X147828095Y-103005000D01*
X147875714Y-103052619D01*
X147923333Y-103147857D01*
X147923333Y-103290714D01*
X147875714Y-103385952D01*
X147828095Y-103433571D01*
X147732857Y-103481190D01*
X147351904Y-103481190D01*
X148351904Y-103957380D02*
X148351904Y-102957380D01*
X148590000Y-102957380D01*
X148732857Y-103005000D01*
X148828095Y-103100238D01*
X148875714Y-103195476D01*
X148923333Y-103385952D01*
X148923333Y-103528809D01*
X148875714Y-103719285D01*
X148828095Y-103814523D01*
X148732857Y-103909761D01*
X148590000Y-103957380D01*
X148351904Y-103957380D01*
X149875714Y-103957380D02*
X149304285Y-103957380D01*
X149590000Y-103957380D02*
X149590000Y-102957380D01*
X149494761Y-103100238D01*
X149399523Y-103195476D01*
X149304285Y-103243095D01*
X147351904Y-98242380D02*
X147351904Y-97242380D01*
X147732857Y-97242380D01*
X147828095Y-97290000D01*
X147875714Y-97337619D01*
X147923333Y-97432857D01*
X147923333Y-97575714D01*
X147875714Y-97670952D01*
X147828095Y-97718571D01*
X147732857Y-97766190D01*
X147351904Y-97766190D01*
X148923333Y-98147142D02*
X148875714Y-98194761D01*
X148732857Y-98242380D01*
X148637619Y-98242380D01*
X148494761Y-98194761D01*
X148399523Y-98099523D01*
X148351904Y-98004285D01*
X148304285Y-97813809D01*
X148304285Y-97670952D01*
X148351904Y-97480476D01*
X148399523Y-97385238D01*
X148494761Y-97290000D01*
X148637619Y-97242380D01*
X148732857Y-97242380D01*
X148875714Y-97290000D01*
X148923333Y-97337619D01*
X149256666Y-97242380D02*
X149923333Y-97242380D01*
X149494761Y-98242380D01*
X147351904Y-95702380D02*
X147351904Y-94702380D01*
X147732857Y-94702380D01*
X147828095Y-94750000D01*
X147875714Y-94797619D01*
X147923333Y-94892857D01*
X147923333Y-95035714D01*
X147875714Y-95130952D01*
X147828095Y-95178571D01*
X147732857Y-95226190D01*
X147351904Y-95226190D01*
X148923333Y-95607142D02*
X148875714Y-95654761D01*
X148732857Y-95702380D01*
X148637619Y-95702380D01*
X148494761Y-95654761D01*
X148399523Y-95559523D01*
X148351904Y-95464285D01*
X148304285Y-95273809D01*
X148304285Y-95130952D01*
X148351904Y-94940476D01*
X148399523Y-94845238D01*
X148494761Y-94750000D01*
X148637619Y-94702380D01*
X148732857Y-94702380D01*
X148875714Y-94750000D01*
X148923333Y-94797619D01*
X149828095Y-94702380D02*
X149351904Y-94702380D01*
X149304285Y-95178571D01*
X149351904Y-95130952D01*
X149447142Y-95083333D01*
X149685238Y-95083333D01*
X149780476Y-95130952D01*
X149828095Y-95178571D01*
X149875714Y-95273809D01*
X149875714Y-95511904D01*
X149828095Y-95607142D01*
X149780476Y-95654761D01*
X149685238Y-95702380D01*
X149447142Y-95702380D01*
X149351904Y-95654761D01*
X149304285Y-95607142D01*
X147351904Y-93162380D02*
X147351904Y-92162380D01*
X147732857Y-92162380D01*
X147828095Y-92210000D01*
X147875714Y-92257619D01*
X147923333Y-92352857D01*
X147923333Y-92495714D01*
X147875714Y-92590952D01*
X147828095Y-92638571D01*
X147732857Y-92686190D01*
X147351904Y-92686190D01*
X148923333Y-93067142D02*
X148875714Y-93114761D01*
X148732857Y-93162380D01*
X148637619Y-93162380D01*
X148494761Y-93114761D01*
X148399523Y-93019523D01*
X148351904Y-92924285D01*
X148304285Y-92733809D01*
X148304285Y-92590952D01*
X148351904Y-92400476D01*
X148399523Y-92305238D01*
X148494761Y-92210000D01*
X148637619Y-92162380D01*
X148732857Y-92162380D01*
X148875714Y-92210000D01*
X148923333Y-92257619D01*
X149256666Y-92162380D02*
X149875714Y-92162380D01*
X149542380Y-92543333D01*
X149685238Y-92543333D01*
X149780476Y-92590952D01*
X149828095Y-92638571D01*
X149875714Y-92733809D01*
X149875714Y-92971904D01*
X149828095Y-93067142D01*
X149780476Y-93114761D01*
X149685238Y-93162380D01*
X149399523Y-93162380D01*
X149304285Y-93114761D01*
X149256666Y-93067142D01*
X147351904Y-90622380D02*
X147351904Y-89622380D01*
X147732857Y-89622380D01*
X147828095Y-89670000D01*
X147875714Y-89717619D01*
X147923333Y-89812857D01*
X147923333Y-89955714D01*
X147875714Y-90050952D01*
X147828095Y-90098571D01*
X147732857Y-90146190D01*
X147351904Y-90146190D01*
X148923333Y-90527142D02*
X148875714Y-90574761D01*
X148732857Y-90622380D01*
X148637619Y-90622380D01*
X148494761Y-90574761D01*
X148399523Y-90479523D01*
X148351904Y-90384285D01*
X148304285Y-90193809D01*
X148304285Y-90050952D01*
X148351904Y-89860476D01*
X148399523Y-89765238D01*
X148494761Y-89670000D01*
X148637619Y-89622380D01*
X148732857Y-89622380D01*
X148875714Y-89670000D01*
X148923333Y-89717619D01*
X149875714Y-90622380D02*
X149304285Y-90622380D01*
X149590000Y-90622380D02*
X149590000Y-89622380D01*
X149494761Y-89765238D01*
X149399523Y-89860476D01*
X149304285Y-89908095D01*
X147351904Y-84272380D02*
X147351904Y-83272380D01*
X147732857Y-83272380D01*
X147828095Y-83320000D01*
X147875714Y-83367619D01*
X147923333Y-83462857D01*
X147923333Y-83605714D01*
X147875714Y-83700952D01*
X147828095Y-83748571D01*
X147732857Y-83796190D01*
X147351904Y-83796190D01*
X148685238Y-83748571D02*
X148828095Y-83796190D01*
X148875714Y-83843809D01*
X148923333Y-83939047D01*
X148923333Y-84081904D01*
X148875714Y-84177142D01*
X148828095Y-84224761D01*
X148732857Y-84272380D01*
X148351904Y-84272380D01*
X148351904Y-83272380D01*
X148685238Y-83272380D01*
X148780476Y-83320000D01*
X148828095Y-83367619D01*
X148875714Y-83462857D01*
X148875714Y-83558095D01*
X148828095Y-83653333D01*
X148780476Y-83700952D01*
X148685238Y-83748571D01*
X148351904Y-83748571D01*
X149256666Y-83272380D02*
X149923333Y-83272380D01*
X149494761Y-84272380D01*
X147351904Y-81732380D02*
X147351904Y-80732380D01*
X147732857Y-80732380D01*
X147828095Y-80780000D01*
X147875714Y-80827619D01*
X147923333Y-80922857D01*
X147923333Y-81065714D01*
X147875714Y-81160952D01*
X147828095Y-81208571D01*
X147732857Y-81256190D01*
X147351904Y-81256190D01*
X148685238Y-81208571D02*
X148828095Y-81256190D01*
X148875714Y-81303809D01*
X148923333Y-81399047D01*
X148923333Y-81541904D01*
X148875714Y-81637142D01*
X148828095Y-81684761D01*
X148732857Y-81732380D01*
X148351904Y-81732380D01*
X148351904Y-80732380D01*
X148685238Y-80732380D01*
X148780476Y-80780000D01*
X148828095Y-80827619D01*
X148875714Y-80922857D01*
X148875714Y-81018095D01*
X148828095Y-81113333D01*
X148780476Y-81160952D01*
X148685238Y-81208571D01*
X148351904Y-81208571D01*
X149828095Y-80732380D02*
X149351904Y-80732380D01*
X149304285Y-81208571D01*
X149351904Y-81160952D01*
X149447142Y-81113333D01*
X149685238Y-81113333D01*
X149780476Y-81160952D01*
X149828095Y-81208571D01*
X149875714Y-81303809D01*
X149875714Y-81541904D01*
X149828095Y-81637142D01*
X149780476Y-81684761D01*
X149685238Y-81732380D01*
X149447142Y-81732380D01*
X149351904Y-81684761D01*
X149304285Y-81637142D01*
X147351904Y-79192380D02*
X147351904Y-78192380D01*
X147732857Y-78192380D01*
X147828095Y-78240000D01*
X147875714Y-78287619D01*
X147923333Y-78382857D01*
X147923333Y-78525714D01*
X147875714Y-78620952D01*
X147828095Y-78668571D01*
X147732857Y-78716190D01*
X147351904Y-78716190D01*
X148685238Y-78668571D02*
X148828095Y-78716190D01*
X148875714Y-78763809D01*
X148923333Y-78859047D01*
X148923333Y-79001904D01*
X148875714Y-79097142D01*
X148828095Y-79144761D01*
X148732857Y-79192380D01*
X148351904Y-79192380D01*
X148351904Y-78192380D01*
X148685238Y-78192380D01*
X148780476Y-78240000D01*
X148828095Y-78287619D01*
X148875714Y-78382857D01*
X148875714Y-78478095D01*
X148828095Y-78573333D01*
X148780476Y-78620952D01*
X148685238Y-78668571D01*
X148351904Y-78668571D01*
X149256666Y-78192380D02*
X149875714Y-78192380D01*
X149542380Y-78573333D01*
X149685238Y-78573333D01*
X149780476Y-78620952D01*
X149828095Y-78668571D01*
X149875714Y-78763809D01*
X149875714Y-79001904D01*
X149828095Y-79097142D01*
X149780476Y-79144761D01*
X149685238Y-79192380D01*
X149399523Y-79192380D01*
X149304285Y-79144761D01*
X149256666Y-79097142D01*
X147351904Y-76652380D02*
X147351904Y-75652380D01*
X147732857Y-75652380D01*
X147828095Y-75700000D01*
X147875714Y-75747619D01*
X147923333Y-75842857D01*
X147923333Y-75985714D01*
X147875714Y-76080952D01*
X147828095Y-76128571D01*
X147732857Y-76176190D01*
X147351904Y-76176190D01*
X148685238Y-76128571D02*
X148828095Y-76176190D01*
X148875714Y-76223809D01*
X148923333Y-76319047D01*
X148923333Y-76461904D01*
X148875714Y-76557142D01*
X148828095Y-76604761D01*
X148732857Y-76652380D01*
X148351904Y-76652380D01*
X148351904Y-75652380D01*
X148685238Y-75652380D01*
X148780476Y-75700000D01*
X148828095Y-75747619D01*
X148875714Y-75842857D01*
X148875714Y-75938095D01*
X148828095Y-76033333D01*
X148780476Y-76080952D01*
X148685238Y-76128571D01*
X148351904Y-76128571D01*
X149875714Y-76652380D02*
X149304285Y-76652380D01*
X149590000Y-76652380D02*
X149590000Y-75652380D01*
X149494761Y-75795238D01*
X149399523Y-75890476D01*
X149304285Y-75938095D01*
X147423333Y-70302380D02*
X147423333Y-69302380D01*
X147804285Y-69302380D01*
X147899523Y-69350000D01*
X147947142Y-69397619D01*
X147994761Y-69492857D01*
X147994761Y-69635714D01*
X147947142Y-69730952D01*
X147899523Y-69778571D01*
X147804285Y-69826190D01*
X147423333Y-69826190D01*
X148375714Y-70016666D02*
X148851904Y-70016666D01*
X148280476Y-70302380D02*
X148613809Y-69302380D01*
X148947142Y-70302380D01*
X149185238Y-69302380D02*
X149851904Y-69302380D01*
X149423333Y-70302380D01*
X147423333Y-67762380D02*
X147423333Y-66762380D01*
X147804285Y-66762380D01*
X147899523Y-66810000D01*
X147947142Y-66857619D01*
X147994761Y-66952857D01*
X147994761Y-67095714D01*
X147947142Y-67190952D01*
X147899523Y-67238571D01*
X147804285Y-67286190D01*
X147423333Y-67286190D01*
X148375714Y-67476666D02*
X148851904Y-67476666D01*
X148280476Y-67762380D02*
X148613809Y-66762380D01*
X148947142Y-67762380D01*
X149756666Y-66762380D02*
X149280476Y-66762380D01*
X149232857Y-67238571D01*
X149280476Y-67190952D01*
X149375714Y-67143333D01*
X149613809Y-67143333D01*
X149709047Y-67190952D01*
X149756666Y-67238571D01*
X149804285Y-67333809D01*
X149804285Y-67571904D01*
X149756666Y-67667142D01*
X149709047Y-67714761D01*
X149613809Y-67762380D01*
X149375714Y-67762380D01*
X149280476Y-67714761D01*
X149232857Y-67667142D01*
X147423333Y-65222380D02*
X147423333Y-64222380D01*
X147804285Y-64222380D01*
X147899523Y-64270000D01*
X147947142Y-64317619D01*
X147994761Y-64412857D01*
X147994761Y-64555714D01*
X147947142Y-64650952D01*
X147899523Y-64698571D01*
X147804285Y-64746190D01*
X147423333Y-64746190D01*
X148375714Y-64936666D02*
X148851904Y-64936666D01*
X148280476Y-65222380D02*
X148613809Y-64222380D01*
X148947142Y-65222380D01*
X149185238Y-64222380D02*
X149804285Y-64222380D01*
X149470952Y-64603333D01*
X149613809Y-64603333D01*
X149709047Y-64650952D01*
X149756666Y-64698571D01*
X149804285Y-64793809D01*
X149804285Y-65031904D01*
X149756666Y-65127142D01*
X149709047Y-65174761D01*
X149613809Y-65222380D01*
X149328095Y-65222380D01*
X149232857Y-65174761D01*
X149185238Y-65127142D01*
X147423333Y-62682380D02*
X147423333Y-61682380D01*
X147804285Y-61682380D01*
X147899523Y-61730000D01*
X147947142Y-61777619D01*
X147994761Y-61872857D01*
X147994761Y-62015714D01*
X147947142Y-62110952D01*
X147899523Y-62158571D01*
X147804285Y-62206190D01*
X147423333Y-62206190D01*
X148375714Y-62396666D02*
X148851904Y-62396666D01*
X148280476Y-62682380D02*
X148613809Y-61682380D01*
X148947142Y-62682380D01*
X149804285Y-62682380D02*
X149232857Y-62682380D01*
X149518571Y-62682380D02*
X149518571Y-61682380D01*
X149423333Y-61825238D01*
X149328095Y-61920476D01*
X149232857Y-61968095D01*
D11*
X146685000Y-60960000D02*
X146685000Y-67945000D01*
X146685000Y-69850000D02*
X146685000Y-60960000D01*
X146685000Y-84455000D02*
X146685000Y-75565000D01*
X146685000Y-98425000D02*
X146685000Y-89535000D01*
X146685000Y-112395000D02*
X146685000Y-102870000D01*
D10*
X142906904Y-112212380D02*
X142906904Y-111212380D01*
X143287857Y-111212380D01*
X143383095Y-111260000D01*
X143430714Y-111307619D01*
X143478333Y-111402857D01*
X143478333Y-111545714D01*
X143430714Y-111640952D01*
X143383095Y-111688571D01*
X143287857Y-111736190D01*
X142906904Y-111736190D01*
X143906904Y-112212380D02*
X143906904Y-111212380D01*
X144145000Y-111212380D01*
X144287857Y-111260000D01*
X144383095Y-111355238D01*
X144430714Y-111450476D01*
X144478333Y-111640952D01*
X144478333Y-111783809D01*
X144430714Y-111974285D01*
X144383095Y-112069523D01*
X144287857Y-112164761D01*
X144145000Y-112212380D01*
X143906904Y-112212380D01*
X145335476Y-111212380D02*
X145145000Y-111212380D01*
X145049761Y-111260000D01*
X145002142Y-111307619D01*
X144906904Y-111450476D01*
X144859285Y-111640952D01*
X144859285Y-112021904D01*
X144906904Y-112117142D01*
X144954523Y-112164761D01*
X145049761Y-112212380D01*
X145240238Y-112212380D01*
X145335476Y-112164761D01*
X145383095Y-112117142D01*
X145430714Y-112021904D01*
X145430714Y-111783809D01*
X145383095Y-111688571D01*
X145335476Y-111640952D01*
X145240238Y-111593333D01*
X145049761Y-111593333D01*
X144954523Y-111640952D01*
X144906904Y-111688571D01*
X144859285Y-111783809D01*
X142906904Y-109672380D02*
X142906904Y-108672380D01*
X143287857Y-108672380D01*
X143383095Y-108720000D01*
X143430714Y-108767619D01*
X143478333Y-108862857D01*
X143478333Y-109005714D01*
X143430714Y-109100952D01*
X143383095Y-109148571D01*
X143287857Y-109196190D01*
X142906904Y-109196190D01*
X143906904Y-109672380D02*
X143906904Y-108672380D01*
X144145000Y-108672380D01*
X144287857Y-108720000D01*
X144383095Y-108815238D01*
X144430714Y-108910476D01*
X144478333Y-109100952D01*
X144478333Y-109243809D01*
X144430714Y-109434285D01*
X144383095Y-109529523D01*
X144287857Y-109624761D01*
X144145000Y-109672380D01*
X143906904Y-109672380D01*
X145335476Y-109005714D02*
X145335476Y-109672380D01*
X145097380Y-108624761D02*
X144859285Y-109339047D01*
X145478333Y-109339047D01*
X142906904Y-107132380D02*
X142906904Y-106132380D01*
X143287857Y-106132380D01*
X143383095Y-106180000D01*
X143430714Y-106227619D01*
X143478333Y-106322857D01*
X143478333Y-106465714D01*
X143430714Y-106560952D01*
X143383095Y-106608571D01*
X143287857Y-106656190D01*
X142906904Y-106656190D01*
X143906904Y-107132380D02*
X143906904Y-106132380D01*
X144145000Y-106132380D01*
X144287857Y-106180000D01*
X144383095Y-106275238D01*
X144430714Y-106370476D01*
X144478333Y-106560952D01*
X144478333Y-106703809D01*
X144430714Y-106894285D01*
X144383095Y-106989523D01*
X144287857Y-107084761D01*
X144145000Y-107132380D01*
X143906904Y-107132380D01*
X144859285Y-106227619D02*
X144906904Y-106180000D01*
X145002142Y-106132380D01*
X145240238Y-106132380D01*
X145335476Y-106180000D01*
X145383095Y-106227619D01*
X145430714Y-106322857D01*
X145430714Y-106418095D01*
X145383095Y-106560952D01*
X144811666Y-107132380D01*
X145430714Y-107132380D01*
X142906904Y-103957380D02*
X142906904Y-102957380D01*
X143287857Y-102957380D01*
X143383095Y-103005000D01*
X143430714Y-103052619D01*
X143478333Y-103147857D01*
X143478333Y-103290714D01*
X143430714Y-103385952D01*
X143383095Y-103433571D01*
X143287857Y-103481190D01*
X142906904Y-103481190D01*
X143906904Y-103957380D02*
X143906904Y-102957380D01*
X144145000Y-102957380D01*
X144287857Y-103005000D01*
X144383095Y-103100238D01*
X144430714Y-103195476D01*
X144478333Y-103385952D01*
X144478333Y-103528809D01*
X144430714Y-103719285D01*
X144383095Y-103814523D01*
X144287857Y-103909761D01*
X144145000Y-103957380D01*
X143906904Y-103957380D01*
X145097380Y-102957380D02*
X145192619Y-102957380D01*
X145287857Y-103005000D01*
X145335476Y-103052619D01*
X145383095Y-103147857D01*
X145430714Y-103338333D01*
X145430714Y-103576428D01*
X145383095Y-103766904D01*
X145335476Y-103862142D01*
X145287857Y-103909761D01*
X145192619Y-103957380D01*
X145097380Y-103957380D01*
X145002142Y-103909761D01*
X144954523Y-103862142D01*
X144906904Y-103766904D01*
X144859285Y-103576428D01*
X144859285Y-103338333D01*
X144906904Y-103147857D01*
X144954523Y-103052619D01*
X145002142Y-103005000D01*
X145097380Y-102957380D01*
X142906904Y-98242380D02*
X142906904Y-97242380D01*
X143287857Y-97242380D01*
X143383095Y-97290000D01*
X143430714Y-97337619D01*
X143478333Y-97432857D01*
X143478333Y-97575714D01*
X143430714Y-97670952D01*
X143383095Y-97718571D01*
X143287857Y-97766190D01*
X142906904Y-97766190D01*
X144478333Y-98147142D02*
X144430714Y-98194761D01*
X144287857Y-98242380D01*
X144192619Y-98242380D01*
X144049761Y-98194761D01*
X143954523Y-98099523D01*
X143906904Y-98004285D01*
X143859285Y-97813809D01*
X143859285Y-97670952D01*
X143906904Y-97480476D01*
X143954523Y-97385238D01*
X144049761Y-97290000D01*
X144192619Y-97242380D01*
X144287857Y-97242380D01*
X144430714Y-97290000D01*
X144478333Y-97337619D01*
X145335476Y-97242380D02*
X145145000Y-97242380D01*
X145049761Y-97290000D01*
X145002142Y-97337619D01*
X144906904Y-97480476D01*
X144859285Y-97670952D01*
X144859285Y-98051904D01*
X144906904Y-98147142D01*
X144954523Y-98194761D01*
X145049761Y-98242380D01*
X145240238Y-98242380D01*
X145335476Y-98194761D01*
X145383095Y-98147142D01*
X145430714Y-98051904D01*
X145430714Y-97813809D01*
X145383095Y-97718571D01*
X145335476Y-97670952D01*
X145240238Y-97623333D01*
X145049761Y-97623333D01*
X144954523Y-97670952D01*
X144906904Y-97718571D01*
X144859285Y-97813809D01*
X142906904Y-95702380D02*
X142906904Y-94702380D01*
X143287857Y-94702380D01*
X143383095Y-94750000D01*
X143430714Y-94797619D01*
X143478333Y-94892857D01*
X143478333Y-95035714D01*
X143430714Y-95130952D01*
X143383095Y-95178571D01*
X143287857Y-95226190D01*
X142906904Y-95226190D01*
X144478333Y-95607142D02*
X144430714Y-95654761D01*
X144287857Y-95702380D01*
X144192619Y-95702380D01*
X144049761Y-95654761D01*
X143954523Y-95559523D01*
X143906904Y-95464285D01*
X143859285Y-95273809D01*
X143859285Y-95130952D01*
X143906904Y-94940476D01*
X143954523Y-94845238D01*
X144049761Y-94750000D01*
X144192619Y-94702380D01*
X144287857Y-94702380D01*
X144430714Y-94750000D01*
X144478333Y-94797619D01*
X145335476Y-95035714D02*
X145335476Y-95702380D01*
X145097380Y-94654761D02*
X144859285Y-95369047D01*
X145478333Y-95369047D01*
X142906904Y-93162380D02*
X142906904Y-92162380D01*
X143287857Y-92162380D01*
X143383095Y-92210000D01*
X143430714Y-92257619D01*
X143478333Y-92352857D01*
X143478333Y-92495714D01*
X143430714Y-92590952D01*
X143383095Y-92638571D01*
X143287857Y-92686190D01*
X142906904Y-92686190D01*
X144478333Y-93067142D02*
X144430714Y-93114761D01*
X144287857Y-93162380D01*
X144192619Y-93162380D01*
X144049761Y-93114761D01*
X143954523Y-93019523D01*
X143906904Y-92924285D01*
X143859285Y-92733809D01*
X143859285Y-92590952D01*
X143906904Y-92400476D01*
X143954523Y-92305238D01*
X144049761Y-92210000D01*
X144192619Y-92162380D01*
X144287857Y-92162380D01*
X144430714Y-92210000D01*
X144478333Y-92257619D01*
X144859285Y-92257619D02*
X144906904Y-92210000D01*
X145002142Y-92162380D01*
X145240238Y-92162380D01*
X145335476Y-92210000D01*
X145383095Y-92257619D01*
X145430714Y-92352857D01*
X145430714Y-92448095D01*
X145383095Y-92590952D01*
X144811666Y-93162380D01*
X145430714Y-93162380D01*
X142906904Y-90622380D02*
X142906904Y-89622380D01*
X143287857Y-89622380D01*
X143383095Y-89670000D01*
X143430714Y-89717619D01*
X143478333Y-89812857D01*
X143478333Y-89955714D01*
X143430714Y-90050952D01*
X143383095Y-90098571D01*
X143287857Y-90146190D01*
X142906904Y-90146190D01*
X144478333Y-90527142D02*
X144430714Y-90574761D01*
X144287857Y-90622380D01*
X144192619Y-90622380D01*
X144049761Y-90574761D01*
X143954523Y-90479523D01*
X143906904Y-90384285D01*
X143859285Y-90193809D01*
X143859285Y-90050952D01*
X143906904Y-89860476D01*
X143954523Y-89765238D01*
X144049761Y-89670000D01*
X144192619Y-89622380D01*
X144287857Y-89622380D01*
X144430714Y-89670000D01*
X144478333Y-89717619D01*
X145097380Y-89622380D02*
X145192619Y-89622380D01*
X145287857Y-89670000D01*
X145335476Y-89717619D01*
X145383095Y-89812857D01*
X145430714Y-90003333D01*
X145430714Y-90241428D01*
X145383095Y-90431904D01*
X145335476Y-90527142D01*
X145287857Y-90574761D01*
X145192619Y-90622380D01*
X145097380Y-90622380D01*
X145002142Y-90574761D01*
X144954523Y-90527142D01*
X144906904Y-90431904D01*
X144859285Y-90241428D01*
X144859285Y-90003333D01*
X144906904Y-89812857D01*
X144954523Y-89717619D01*
X145002142Y-89670000D01*
X145097380Y-89622380D01*
X142906904Y-84272380D02*
X142906904Y-83272380D01*
X143287857Y-83272380D01*
X143383095Y-83320000D01*
X143430714Y-83367619D01*
X143478333Y-83462857D01*
X143478333Y-83605714D01*
X143430714Y-83700952D01*
X143383095Y-83748571D01*
X143287857Y-83796190D01*
X142906904Y-83796190D01*
X144240238Y-83748571D02*
X144383095Y-83796190D01*
X144430714Y-83843809D01*
X144478333Y-83939047D01*
X144478333Y-84081904D01*
X144430714Y-84177142D01*
X144383095Y-84224761D01*
X144287857Y-84272380D01*
X143906904Y-84272380D01*
X143906904Y-83272380D01*
X144240238Y-83272380D01*
X144335476Y-83320000D01*
X144383095Y-83367619D01*
X144430714Y-83462857D01*
X144430714Y-83558095D01*
X144383095Y-83653333D01*
X144335476Y-83700952D01*
X144240238Y-83748571D01*
X143906904Y-83748571D01*
X145335476Y-83272380D02*
X145145000Y-83272380D01*
X145049761Y-83320000D01*
X145002142Y-83367619D01*
X144906904Y-83510476D01*
X144859285Y-83700952D01*
X144859285Y-84081904D01*
X144906904Y-84177142D01*
X144954523Y-84224761D01*
X145049761Y-84272380D01*
X145240238Y-84272380D01*
X145335476Y-84224761D01*
X145383095Y-84177142D01*
X145430714Y-84081904D01*
X145430714Y-83843809D01*
X145383095Y-83748571D01*
X145335476Y-83700952D01*
X145240238Y-83653333D01*
X145049761Y-83653333D01*
X144954523Y-83700952D01*
X144906904Y-83748571D01*
X144859285Y-83843809D01*
X142906904Y-81732380D02*
X142906904Y-80732380D01*
X143287857Y-80732380D01*
X143383095Y-80780000D01*
X143430714Y-80827619D01*
X143478333Y-80922857D01*
X143478333Y-81065714D01*
X143430714Y-81160952D01*
X143383095Y-81208571D01*
X143287857Y-81256190D01*
X142906904Y-81256190D01*
X144240238Y-81208571D02*
X144383095Y-81256190D01*
X144430714Y-81303809D01*
X144478333Y-81399047D01*
X144478333Y-81541904D01*
X144430714Y-81637142D01*
X144383095Y-81684761D01*
X144287857Y-81732380D01*
X143906904Y-81732380D01*
X143906904Y-80732380D01*
X144240238Y-80732380D01*
X144335476Y-80780000D01*
X144383095Y-80827619D01*
X144430714Y-80922857D01*
X144430714Y-81018095D01*
X144383095Y-81113333D01*
X144335476Y-81160952D01*
X144240238Y-81208571D01*
X143906904Y-81208571D01*
X145335476Y-81065714D02*
X145335476Y-81732380D01*
X145097380Y-80684761D02*
X144859285Y-81399047D01*
X145478333Y-81399047D01*
X142906904Y-79192380D02*
X142906904Y-78192380D01*
X143287857Y-78192380D01*
X143383095Y-78240000D01*
X143430714Y-78287619D01*
X143478333Y-78382857D01*
X143478333Y-78525714D01*
X143430714Y-78620952D01*
X143383095Y-78668571D01*
X143287857Y-78716190D01*
X142906904Y-78716190D01*
X144240238Y-78668571D02*
X144383095Y-78716190D01*
X144430714Y-78763809D01*
X144478333Y-78859047D01*
X144478333Y-79001904D01*
X144430714Y-79097142D01*
X144383095Y-79144761D01*
X144287857Y-79192380D01*
X143906904Y-79192380D01*
X143906904Y-78192380D01*
X144240238Y-78192380D01*
X144335476Y-78240000D01*
X144383095Y-78287619D01*
X144430714Y-78382857D01*
X144430714Y-78478095D01*
X144383095Y-78573333D01*
X144335476Y-78620952D01*
X144240238Y-78668571D01*
X143906904Y-78668571D01*
X144859285Y-78287619D02*
X144906904Y-78240000D01*
X145002142Y-78192380D01*
X145240238Y-78192380D01*
X145335476Y-78240000D01*
X145383095Y-78287619D01*
X145430714Y-78382857D01*
X145430714Y-78478095D01*
X145383095Y-78620952D01*
X144811666Y-79192380D01*
X145430714Y-79192380D01*
X142906904Y-76652380D02*
X142906904Y-75652380D01*
X143287857Y-75652380D01*
X143383095Y-75700000D01*
X143430714Y-75747619D01*
X143478333Y-75842857D01*
X143478333Y-75985714D01*
X143430714Y-76080952D01*
X143383095Y-76128571D01*
X143287857Y-76176190D01*
X142906904Y-76176190D01*
X144240238Y-76128571D02*
X144383095Y-76176190D01*
X144430714Y-76223809D01*
X144478333Y-76319047D01*
X144478333Y-76461904D01*
X144430714Y-76557142D01*
X144383095Y-76604761D01*
X144287857Y-76652380D01*
X143906904Y-76652380D01*
X143906904Y-75652380D01*
X144240238Y-75652380D01*
X144335476Y-75700000D01*
X144383095Y-75747619D01*
X144430714Y-75842857D01*
X144430714Y-75938095D01*
X144383095Y-76033333D01*
X144335476Y-76080952D01*
X144240238Y-76128571D01*
X143906904Y-76128571D01*
X145097380Y-75652380D02*
X145192619Y-75652380D01*
X145287857Y-75700000D01*
X145335476Y-75747619D01*
X145383095Y-75842857D01*
X145430714Y-76033333D01*
X145430714Y-76271428D01*
X145383095Y-76461904D01*
X145335476Y-76557142D01*
X145287857Y-76604761D01*
X145192619Y-76652380D01*
X145097380Y-76652380D01*
X145002142Y-76604761D01*
X144954523Y-76557142D01*
X144906904Y-76461904D01*
X144859285Y-76271428D01*
X144859285Y-76033333D01*
X144906904Y-75842857D01*
X144954523Y-75747619D01*
X145002142Y-75700000D01*
X145097380Y-75652380D01*
X143613333Y-70302380D02*
X143613333Y-69302380D01*
X143994285Y-69302380D01*
X144089523Y-69350000D01*
X144137142Y-69397619D01*
X144184761Y-69492857D01*
X144184761Y-69635714D01*
X144137142Y-69730952D01*
X144089523Y-69778571D01*
X143994285Y-69826190D01*
X143613333Y-69826190D01*
X144565714Y-70016666D02*
X145041904Y-70016666D01*
X144470476Y-70302380D02*
X144803809Y-69302380D01*
X145137142Y-70302380D01*
X145899047Y-69302380D02*
X145708571Y-69302380D01*
X145613333Y-69350000D01*
X145565714Y-69397619D01*
X145470476Y-69540476D01*
X145422857Y-69730952D01*
X145422857Y-70111904D01*
X145470476Y-70207142D01*
X145518095Y-70254761D01*
X145613333Y-70302380D01*
X145803809Y-70302380D01*
X145899047Y-70254761D01*
X145946666Y-70207142D01*
X145994285Y-70111904D01*
X145994285Y-69873809D01*
X145946666Y-69778571D01*
X145899047Y-69730952D01*
X145803809Y-69683333D01*
X145613333Y-69683333D01*
X145518095Y-69730952D01*
X145470476Y-69778571D01*
X145422857Y-69873809D01*
X143613333Y-67762380D02*
X143613333Y-66762380D01*
X143994285Y-66762380D01*
X144089523Y-66810000D01*
X144137142Y-66857619D01*
X144184761Y-66952857D01*
X144184761Y-67095714D01*
X144137142Y-67190952D01*
X144089523Y-67238571D01*
X143994285Y-67286190D01*
X143613333Y-67286190D01*
X144565714Y-67476666D02*
X145041904Y-67476666D01*
X144470476Y-67762380D02*
X144803809Y-66762380D01*
X145137142Y-67762380D01*
X145899047Y-67095714D02*
X145899047Y-67762380D01*
X145660952Y-66714761D02*
X145422857Y-67429047D01*
X146041904Y-67429047D01*
X143613333Y-65222380D02*
X143613333Y-64222380D01*
X143994285Y-64222380D01*
X144089523Y-64270000D01*
X144137142Y-64317619D01*
X144184761Y-64412857D01*
X144184761Y-64555714D01*
X144137142Y-64650952D01*
X144089523Y-64698571D01*
X143994285Y-64746190D01*
X143613333Y-64746190D01*
X144565714Y-64936666D02*
X145041904Y-64936666D01*
X144470476Y-65222380D02*
X144803809Y-64222380D01*
X145137142Y-65222380D01*
X145422857Y-64317619D02*
X145470476Y-64270000D01*
X145565714Y-64222380D01*
X145803809Y-64222380D01*
X145899047Y-64270000D01*
X145946666Y-64317619D01*
X145994285Y-64412857D01*
X145994285Y-64508095D01*
X145946666Y-64650952D01*
X145375238Y-65222380D01*
X145994285Y-65222380D01*
X143613333Y-62682380D02*
X143613333Y-61682380D01*
X143994285Y-61682380D01*
X144089523Y-61730000D01*
X144137142Y-61777619D01*
X144184761Y-61872857D01*
X144184761Y-62015714D01*
X144137142Y-62110952D01*
X144089523Y-62158571D01*
X143994285Y-62206190D01*
X143613333Y-62206190D01*
X144565714Y-62396666D02*
X145041904Y-62396666D01*
X144470476Y-62682380D02*
X144803809Y-61682380D01*
X145137142Y-62682380D01*
X145660952Y-61682380D02*
X145756190Y-61682380D01*
X145851428Y-61730000D01*
X145899047Y-61777619D01*
X145946666Y-61872857D01*
X145994285Y-62063333D01*
X145994285Y-62301428D01*
X145946666Y-62491904D01*
X145899047Y-62587142D01*
X145851428Y-62634761D01*
X145756190Y-62682380D01*
X145660952Y-62682380D01*
X145565714Y-62634761D01*
X145518095Y-62587142D01*
X145470476Y-62491904D01*
X145422857Y-62301428D01*
X145422857Y-62063333D01*
X145470476Y-61872857D01*
X145518095Y-61777619D01*
X145565714Y-61730000D01*
X145660952Y-61682380D01*
D13*
X100373571Y-85490714D02*
X100373571Y-86205000D01*
X98873571Y-86205000D01*
X100230714Y-84133571D02*
X100302142Y-84205000D01*
X100373571Y-84419285D01*
X100373571Y-84562142D01*
X100302142Y-84776428D01*
X100159285Y-84919285D01*
X100016428Y-84990714D01*
X99730714Y-85062142D01*
X99516428Y-85062142D01*
X99230714Y-84990714D01*
X99087857Y-84919285D01*
X98945000Y-84776428D01*
X98873571Y-84562142D01*
X98873571Y-84419285D01*
X98945000Y-84205000D01*
X99016428Y-84133571D01*
X100373571Y-83490714D02*
X98873571Y-83490714D01*
X98873571Y-83133571D01*
X98945000Y-82919285D01*
X99087857Y-82776428D01*
X99230714Y-82705000D01*
X99516428Y-82633571D01*
X99730714Y-82633571D01*
X100016428Y-82705000D01*
X100159285Y-82776428D01*
X100302142Y-82919285D01*
X100373571Y-83133571D01*
X100373571Y-83490714D01*
X111046428Y-124975000D02*
X110903571Y-124903571D01*
X110689285Y-124903571D01*
X110475000Y-124975000D01*
X110332142Y-125117857D01*
X110260714Y-125260714D01*
X110189285Y-125546428D01*
X110189285Y-125760714D01*
X110260714Y-126046428D01*
X110332142Y-126189285D01*
X110475000Y-126332142D01*
X110689285Y-126403571D01*
X110832142Y-126403571D01*
X111046428Y-126332142D01*
X111117857Y-126260714D01*
X111117857Y-125760714D01*
X110832142Y-125760714D01*
X111689285Y-126332142D02*
X111903571Y-126403571D01*
X112260714Y-126403571D01*
X112403571Y-126332142D01*
X112475000Y-126260714D01*
X112546428Y-126117857D01*
X112546428Y-125975000D01*
X112475000Y-125832142D01*
X112403571Y-125760714D01*
X112260714Y-125689285D01*
X111975000Y-125617857D01*
X111832142Y-125546428D01*
X111760714Y-125475000D01*
X111689285Y-125332142D01*
X111689285Y-125189285D01*
X111760714Y-125046428D01*
X111832142Y-124975000D01*
X111975000Y-124903571D01*
X112332142Y-124903571D01*
X112546428Y-124975000D01*
X113189285Y-126403571D02*
X113189285Y-124903571D01*
X113689285Y-125975000D01*
X114189285Y-124903571D01*
X114189285Y-126403571D01*
X115975000Y-126332142D02*
X116189285Y-126403571D01*
X116546428Y-126403571D01*
X116689285Y-126332142D01*
X116760714Y-126260714D01*
X116832142Y-126117857D01*
X116832142Y-125975000D01*
X116760714Y-125832142D01*
X116689285Y-125760714D01*
X116546428Y-125689285D01*
X116260714Y-125617857D01*
X116117857Y-125546428D01*
X116046428Y-125475000D01*
X115975000Y-125332142D01*
X115975000Y-125189285D01*
X116046428Y-125046428D01*
X116117857Y-124975000D01*
X116260714Y-124903571D01*
X116617857Y-124903571D01*
X116832142Y-124975000D01*
X117475000Y-126403571D02*
X117475000Y-124903571D01*
X118189285Y-126403571D02*
X118189285Y-124903571D01*
X118689285Y-125975000D01*
X119189285Y-124903571D01*
X119189285Y-126403571D01*
X120117857Y-125546428D02*
X119975000Y-125475000D01*
X119903571Y-125403571D01*
X119832142Y-125260714D01*
X119832142Y-125189285D01*
X119903571Y-125046428D01*
X119975000Y-124975000D01*
X120117857Y-124903571D01*
X120403571Y-124903571D01*
X120546428Y-124975000D01*
X120617857Y-125046428D01*
X120689285Y-125189285D01*
X120689285Y-125260714D01*
X120617857Y-125403571D01*
X120546428Y-125475000D01*
X120403571Y-125546428D01*
X120117857Y-125546428D01*
X119975000Y-125617857D01*
X119903571Y-125689285D01*
X119832142Y-125832142D01*
X119832142Y-126117857D01*
X119903571Y-126260714D01*
X119975000Y-126332142D01*
X120117857Y-126403571D01*
X120403571Y-126403571D01*
X120546428Y-126332142D01*
X120617857Y-126260714D01*
X120689285Y-126117857D01*
X120689285Y-125832142D01*
X120617857Y-125689285D01*
X120546428Y-125617857D01*
X120403571Y-125546428D01*
X121617857Y-124903571D02*
X121760714Y-124903571D01*
X121903571Y-124975000D01*
X121975000Y-125046428D01*
X122046428Y-125189285D01*
X122117857Y-125475000D01*
X122117857Y-125832142D01*
X122046428Y-126117857D01*
X121975000Y-126260714D01*
X121903571Y-126332142D01*
X121760714Y-126403571D01*
X121617857Y-126403571D01*
X121475000Y-126332142D01*
X121403571Y-126260714D01*
X121332142Y-126117857D01*
X121260714Y-125832142D01*
X121260714Y-125475000D01*
X121332142Y-125189285D01*
X121403571Y-125046428D01*
X121475000Y-124975000D01*
X121617857Y-124903571D01*
X123046428Y-124903571D02*
X123189285Y-124903571D01*
X123332142Y-124975000D01*
X123403571Y-125046428D01*
X123475000Y-125189285D01*
X123546428Y-125475000D01*
X123546428Y-125832142D01*
X123475000Y-126117857D01*
X123403571Y-126260714D01*
X123332142Y-126332142D01*
X123189285Y-126403571D01*
X123046428Y-126403571D01*
X122903571Y-126332142D01*
X122832142Y-126260714D01*
X122760714Y-126117857D01*
X122689285Y-125832142D01*
X122689285Y-125475000D01*
X122760714Y-125189285D01*
X122832142Y-125046428D01*
X122903571Y-124975000D01*
X123046428Y-124903571D01*
X124903571Y-126403571D02*
X124189285Y-126403571D01*
X124189285Y-124903571D01*
X115189285Y-127453571D02*
X115689285Y-128953571D01*
X116189285Y-127453571D01*
X116617857Y-127596428D02*
X116689285Y-127525000D01*
X116832142Y-127453571D01*
X117189285Y-127453571D01*
X117332142Y-127525000D01*
X117403571Y-127596428D01*
X117475000Y-127739285D01*
X117475000Y-127882142D01*
X117403571Y-128096428D01*
X116546428Y-128953571D01*
X117475000Y-128953571D01*
X118117857Y-128810714D02*
X118189285Y-128882142D01*
X118117857Y-128953571D01*
X118046428Y-128882142D01*
X118117857Y-128810714D01*
X118117857Y-128953571D01*
X119117857Y-127453571D02*
X119260714Y-127453571D01*
X119403571Y-127525000D01*
X119475000Y-127596428D01*
X119546428Y-127739285D01*
X119617857Y-128025000D01*
X119617857Y-128382142D01*
X119546428Y-128667857D01*
X119475000Y-128810714D01*
X119403571Y-128882142D01*
X119260714Y-128953571D01*
X119117857Y-128953571D01*
X118975000Y-128882142D01*
X118903571Y-128810714D01*
X118832142Y-128667857D01*
X118760714Y-128382142D01*
X118760714Y-128025000D01*
X118832142Y-127739285D01*
X118903571Y-127596428D01*
X118975000Y-127525000D01*
X119117857Y-127453571D01*
X93782142Y-126257857D02*
X94282142Y-126257857D01*
X94496428Y-127043571D02*
X93782142Y-127043571D01*
X93782142Y-125543571D01*
X94496428Y-125543571D01*
X95067857Y-126972142D02*
X95282142Y-127043571D01*
X95639285Y-127043571D01*
X95782142Y-126972142D01*
X95853571Y-126900714D01*
X95925000Y-126757857D01*
X95925000Y-126615000D01*
X95853571Y-126472142D01*
X95782142Y-126400714D01*
X95639285Y-126329285D01*
X95353571Y-126257857D01*
X95210714Y-126186428D01*
X95139285Y-126115000D01*
X95067857Y-125972142D01*
X95067857Y-125829285D01*
X95139285Y-125686428D01*
X95210714Y-125615000D01*
X95353571Y-125543571D01*
X95710714Y-125543571D01*
X95925000Y-125615000D01*
X96567857Y-127043571D02*
X96567857Y-125543571D01*
X97139285Y-125543571D01*
X97282142Y-125615000D01*
X97353571Y-125686428D01*
X97425000Y-125829285D01*
X97425000Y-126043571D01*
X97353571Y-126186428D01*
X97282142Y-126257857D01*
X97139285Y-126329285D01*
X96567857Y-126329285D01*
X98282142Y-126186428D02*
X98139285Y-126115000D01*
X98067857Y-126043571D01*
X97996428Y-125900714D01*
X97996428Y-125829285D01*
X98067857Y-125686428D01*
X98139285Y-125615000D01*
X98282142Y-125543571D01*
X98567857Y-125543571D01*
X98710714Y-125615000D01*
X98782142Y-125686428D01*
X98853571Y-125829285D01*
X98853571Y-125900714D01*
X98782142Y-126043571D01*
X98710714Y-126115000D01*
X98567857Y-126186428D01*
X98282142Y-126186428D01*
X98139285Y-126257857D01*
X98067857Y-126329285D01*
X97996428Y-126472142D01*
X97996428Y-126757857D01*
X98067857Y-126900714D01*
X98139285Y-126972142D01*
X98282142Y-127043571D01*
X98567857Y-127043571D01*
X98710714Y-126972142D01*
X98782142Y-126900714D01*
X98853571Y-126757857D01*
X98853571Y-126472142D01*
X98782142Y-126329285D01*
X98710714Y-126257857D01*
X98567857Y-126186428D01*
X99425000Y-125686428D02*
X99496428Y-125615000D01*
X99639285Y-125543571D01*
X99996428Y-125543571D01*
X100139285Y-125615000D01*
X100210714Y-125686428D01*
X100282142Y-125829285D01*
X100282142Y-125972142D01*
X100210714Y-126186428D01*
X99353571Y-127043571D01*
X100282142Y-127043571D01*
X101567857Y-125543571D02*
X101282142Y-125543571D01*
X101139285Y-125615000D01*
X101067857Y-125686428D01*
X100925000Y-125900714D01*
X100853571Y-126186428D01*
X100853571Y-126757857D01*
X100925000Y-126900714D01*
X100996428Y-126972142D01*
X101139285Y-127043571D01*
X101425000Y-127043571D01*
X101567857Y-126972142D01*
X101639285Y-126900714D01*
X101710714Y-126757857D01*
X101710714Y-126400714D01*
X101639285Y-126257857D01*
X101567857Y-126186428D01*
X101425000Y-126115000D01*
X101139285Y-126115000D01*
X100996428Y-126186428D01*
X100925000Y-126257857D01*
X100853571Y-126400714D01*
X102996428Y-125543571D02*
X102710714Y-125543571D01*
X102567857Y-125615000D01*
X102496428Y-125686428D01*
X102353571Y-125900714D01*
X102282142Y-126186428D01*
X102282142Y-126757857D01*
X102353571Y-126900714D01*
X102425000Y-126972142D01*
X102567857Y-127043571D01*
X102853571Y-127043571D01*
X102996428Y-126972142D01*
X103067857Y-126900714D01*
X103139285Y-126757857D01*
X103139285Y-126400714D01*
X103067857Y-126257857D01*
X102996428Y-126186428D01*
X102853571Y-126115000D01*
X102567857Y-126115000D01*
X102425000Y-126186428D01*
X102353571Y-126257857D01*
X102282142Y-126400714D01*
D14*
X114237619Y-103139761D02*
X114237619Y-101139761D01*
X114713809Y-101139761D01*
X114999523Y-101235000D01*
X115190000Y-101425476D01*
X115285238Y-101615952D01*
X115380476Y-101996904D01*
X115380476Y-102282619D01*
X115285238Y-102663571D01*
X115190000Y-102854047D01*
X114999523Y-103044523D01*
X114713809Y-103139761D01*
X114237619Y-103139761D01*
X116237619Y-103139761D02*
X116237619Y-101139761D01*
X117190000Y-103139761D02*
X117190000Y-101139761D01*
X118332857Y-103139761D01*
X118332857Y-101139761D01*
X119666190Y-101139761D02*
X120047142Y-101139761D01*
X120237619Y-101235000D01*
X120428095Y-101425476D01*
X120523333Y-101806428D01*
X120523333Y-102473095D01*
X120428095Y-102854047D01*
X120237619Y-103044523D01*
X120047142Y-103139761D01*
X119666190Y-103139761D01*
X119475714Y-103044523D01*
X119285238Y-102854047D01*
X119190000Y-102473095D01*
X119190000Y-101806428D01*
X119285238Y-101425476D01*
X119475714Y-101235000D01*
X119666190Y-101139761D01*
X121380476Y-103139761D02*
X121380476Y-101139761D01*
X121856666Y-101139761D01*
X122142380Y-101235000D01*
X122332857Y-101425476D01*
X122428095Y-101615952D01*
X122523333Y-101996904D01*
X122523333Y-102282619D01*
X122428095Y-102663571D01*
X122332857Y-102854047D01*
X122142380Y-103044523D01*
X121856666Y-103139761D01*
X121380476Y-103139761D01*
X123380476Y-102092142D02*
X124047142Y-102092142D01*
X124332857Y-103139761D02*
X123380476Y-103139761D01*
X123380476Y-101139761D01*
X124332857Y-101139761D01*
X125190000Y-102377857D02*
X126713809Y-102377857D01*
X127570952Y-102568333D02*
X128523333Y-102568333D01*
X127380476Y-103139761D02*
X128047142Y-101139761D01*
X128713809Y-103139761D01*
X129094761Y-101139761D02*
X129761428Y-103139761D01*
X130428095Y-101139761D01*
X132237619Y-103139761D02*
X131570952Y-102187380D01*
X131094761Y-103139761D02*
X131094761Y-101139761D01*
X131856666Y-101139761D01*
X132047142Y-101235000D01*
X132142380Y-101330238D01*
X132237619Y-101520714D01*
X132237619Y-101806428D01*
X132142380Y-101996904D01*
X132047142Y-102092142D01*
X131856666Y-102187380D01*
X131094761Y-102187380D01*
D15*
G04 #@! TO.C,REF\002A\002A*
G36*
X123837878Y-103983776D02*
G01*
X123943612Y-103984355D01*
X124020132Y-103985922D01*
X124072372Y-103988972D01*
X124105263Y-103993996D01*
X124123737Y-104001489D01*
X124132727Y-104011944D01*
X124137163Y-104025853D01*
X124137594Y-104027654D01*
X124144333Y-104060145D01*
X124156808Y-104124252D01*
X124173719Y-104213151D01*
X124193771Y-104320019D01*
X124215664Y-104438033D01*
X124216429Y-104442178D01*
X124238359Y-104557831D01*
X124258877Y-104660014D01*
X124276659Y-104742598D01*
X124290381Y-104799456D01*
X124298718Y-104824458D01*
X124299116Y-104824901D01*
X124323677Y-104837110D01*
X124374315Y-104857456D01*
X124440095Y-104881545D01*
X124440461Y-104881674D01*
X124523317Y-104912818D01*
X124621000Y-104952491D01*
X124713077Y-104992381D01*
X124717434Y-104994353D01*
X124867407Y-105062420D01*
X125199498Y-104835639D01*
X125301374Y-104766504D01*
X125393657Y-104704697D01*
X125471003Y-104653733D01*
X125528064Y-104617127D01*
X125559495Y-104598394D01*
X125562479Y-104597004D01*
X125585321Y-104603190D01*
X125627982Y-104633035D01*
X125692128Y-104687947D01*
X125779421Y-104769334D01*
X125868535Y-104855922D01*
X125954441Y-104941247D01*
X126031327Y-105019108D01*
X126094564Y-105084697D01*
X126139523Y-105133205D01*
X126161576Y-105159825D01*
X126162396Y-105161195D01*
X126164834Y-105179463D01*
X126155650Y-105209295D01*
X126132574Y-105254721D01*
X126093337Y-105319770D01*
X126035670Y-105408470D01*
X125958795Y-105522657D01*
X125890570Y-105623162D01*
X125829582Y-105713303D01*
X125779356Y-105787849D01*
X125743416Y-105841565D01*
X125725287Y-105869218D01*
X125724146Y-105871095D01*
X125726359Y-105897590D01*
X125743138Y-105949086D01*
X125771142Y-106015851D01*
X125781122Y-106037172D01*
X125824672Y-106132159D01*
X125871134Y-106239937D01*
X125908877Y-106333192D01*
X125936073Y-106402406D01*
X125957675Y-106455006D01*
X125970158Y-106482497D01*
X125971709Y-106484616D01*
X125994668Y-106488124D01*
X126048786Y-106497738D01*
X126126868Y-106512089D01*
X126221719Y-106529807D01*
X126326143Y-106549525D01*
X126432944Y-106569874D01*
X126534926Y-106589486D01*
X126624894Y-106606991D01*
X126695653Y-106621022D01*
X126740006Y-106630209D01*
X126750885Y-106632807D01*
X126762122Y-106639218D01*
X126770605Y-106653697D01*
X126776714Y-106681133D01*
X126780832Y-106726411D01*
X126783341Y-106794420D01*
X126784621Y-106890047D01*
X126785054Y-107018180D01*
X126785077Y-107070701D01*
X126785077Y-107497845D01*
X126682500Y-107518091D01*
X126625431Y-107529070D01*
X126540269Y-107545095D01*
X126437372Y-107564233D01*
X126327096Y-107584551D01*
X126296615Y-107590132D01*
X126194855Y-107609917D01*
X126106205Y-107629373D01*
X126038108Y-107646697D01*
X125998004Y-107660088D01*
X125991323Y-107664079D01*
X125974919Y-107692342D01*
X125951399Y-107747109D01*
X125925316Y-107817588D01*
X125920142Y-107832769D01*
X125885956Y-107926896D01*
X125843523Y-108033101D01*
X125801997Y-108128473D01*
X125801792Y-108128916D01*
X125732640Y-108278525D01*
X126187512Y-108947617D01*
X125895500Y-109240116D01*
X125807180Y-109327170D01*
X125726625Y-109403909D01*
X125658360Y-109466237D01*
X125606908Y-109510056D01*
X125576794Y-109531270D01*
X125572474Y-109532616D01*
X125547111Y-109522016D01*
X125495358Y-109492547D01*
X125422868Y-109447705D01*
X125335294Y-109390984D01*
X125240612Y-109327462D01*
X125144516Y-109262668D01*
X125058837Y-109206287D01*
X124989016Y-109161788D01*
X124940494Y-109132639D01*
X124918782Y-109122308D01*
X124892293Y-109131050D01*
X124842062Y-109154087D01*
X124778451Y-109186631D01*
X124771708Y-109190249D01*
X124686046Y-109233210D01*
X124627306Y-109254279D01*
X124590772Y-109254503D01*
X124571731Y-109234928D01*
X124571620Y-109234654D01*
X124562102Y-109211472D01*
X124539403Y-109156441D01*
X124505282Y-109073822D01*
X124461500Y-108967872D01*
X124409816Y-108842852D01*
X124351992Y-108703020D01*
X124295991Y-108567637D01*
X124234447Y-108418234D01*
X124177939Y-108279832D01*
X124128161Y-108156673D01*
X124086806Y-108053002D01*
X124055568Y-107973059D01*
X124036141Y-107921088D01*
X124030154Y-107901692D01*
X124045168Y-107879443D01*
X124084439Y-107843982D01*
X124136807Y-107804887D01*
X124285941Y-107681245D01*
X124402511Y-107539522D01*
X124485118Y-107382704D01*
X124532366Y-107213775D01*
X124542857Y-107035722D01*
X124535231Y-106953539D01*
X124493682Y-106783031D01*
X124422123Y-106632459D01*
X124324995Y-106503309D01*
X124206734Y-106397064D01*
X124071780Y-106315210D01*
X123924571Y-106259232D01*
X123769544Y-106230615D01*
X123611139Y-106230844D01*
X123453794Y-106261405D01*
X123301946Y-106323782D01*
X123160035Y-106419460D01*
X123100803Y-106473572D01*
X122987203Y-106612520D01*
X122908106Y-106764361D01*
X122862986Y-106924667D01*
X122851316Y-107089012D01*
X122872569Y-107252971D01*
X122926220Y-107412118D01*
X123011740Y-107562025D01*
X123128605Y-107698267D01*
X123259193Y-107804887D01*
X123313588Y-107845642D01*
X123352014Y-107880718D01*
X123365846Y-107901726D01*
X123358603Y-107924635D01*
X123338005Y-107979365D01*
X123305746Y-108061672D01*
X123263521Y-108167315D01*
X123213023Y-108292050D01*
X123155948Y-108431636D01*
X123099854Y-108567670D01*
X123037967Y-108717201D01*
X122980644Y-108855767D01*
X122929644Y-108979107D01*
X122886727Y-109082964D01*
X122853653Y-109163080D01*
X122832181Y-109215195D01*
X122824225Y-109234654D01*
X122805429Y-109254423D01*
X122769074Y-109254365D01*
X122710479Y-109233441D01*
X122624968Y-109190613D01*
X122624292Y-109190249D01*
X122559907Y-109157012D01*
X122507861Y-109132802D01*
X122478512Y-109122404D01*
X122477217Y-109122308D01*
X122455124Y-109132855D01*
X122406348Y-109162184D01*
X122336331Y-109206827D01*
X122250514Y-109263314D01*
X122155388Y-109327462D01*
X122058540Y-109392411D01*
X121971253Y-109448896D01*
X121899181Y-109493421D01*
X121847977Y-109522490D01*
X121823526Y-109532616D01*
X121801010Y-109519307D01*
X121755742Y-109482112D01*
X121692244Y-109425128D01*
X121615039Y-109352449D01*
X121528651Y-109268171D01*
X121500399Y-109240016D01*
X121208287Y-108947416D01*
X121430631Y-108621104D01*
X121498202Y-108520897D01*
X121557507Y-108430963D01*
X121605217Y-108356510D01*
X121638007Y-108302751D01*
X121652548Y-108274894D01*
X121652974Y-108272912D01*
X121645308Y-108246655D01*
X121624689Y-108193837D01*
X121594685Y-108123310D01*
X121573625Y-108076093D01*
X121534248Y-107985694D01*
X121497165Y-107894366D01*
X121468415Y-107817200D01*
X121460605Y-107793692D01*
X121438417Y-107730916D01*
X121416727Y-107682411D01*
X121404813Y-107664079D01*
X121378523Y-107652859D01*
X121321142Y-107636954D01*
X121240118Y-107618167D01*
X121142895Y-107598299D01*
X121099385Y-107590132D01*
X120988896Y-107569829D01*
X120882916Y-107550170D01*
X120791801Y-107533088D01*
X120725908Y-107520518D01*
X120713500Y-107518091D01*
X120610923Y-107497845D01*
X120610923Y-107070701D01*
X120611153Y-106930246D01*
X120612099Y-106823979D01*
X120614141Y-106747013D01*
X120617662Y-106694460D01*
X120623043Y-106661433D01*
X120630666Y-106643045D01*
X120640912Y-106634408D01*
X120645115Y-106632807D01*
X120670470Y-106627127D01*
X120726484Y-106615795D01*
X120805964Y-106600179D01*
X120901712Y-106581647D01*
X121006533Y-106561569D01*
X121113232Y-106541312D01*
X121214613Y-106522246D01*
X121303479Y-106505739D01*
X121372637Y-106493159D01*
X121414889Y-106485875D01*
X121424290Y-106484616D01*
X121432807Y-106467763D01*
X121451660Y-106422870D01*
X121477324Y-106358430D01*
X121487123Y-106333192D01*
X121526648Y-106235686D01*
X121573192Y-106127959D01*
X121614877Y-106037172D01*
X121645550Y-105967753D01*
X121665956Y-105910710D01*
X121672768Y-105875777D01*
X121671682Y-105871095D01*
X121657285Y-105848991D01*
X121624412Y-105799831D01*
X121576590Y-105728848D01*
X121517348Y-105641278D01*
X121450215Y-105542357D01*
X121436941Y-105522830D01*
X121359046Y-105407140D01*
X121301787Y-105319044D01*
X121262881Y-105254486D01*
X121240044Y-105209411D01*
X121230994Y-105179763D01*
X121233448Y-105161485D01*
X121233511Y-105161369D01*
X121252827Y-105137361D01*
X121295551Y-105090947D01*
X121357051Y-105026937D01*
X121432698Y-104950145D01*
X121517861Y-104865382D01*
X121527465Y-104855922D01*
X121634790Y-104751989D01*
X121717615Y-104675675D01*
X121777605Y-104625571D01*
X121816423Y-104600270D01*
X121833520Y-104597004D01*
X121858473Y-104611250D01*
X121910255Y-104644156D01*
X121983520Y-104692208D01*
X122072920Y-104751890D01*
X122173111Y-104819688D01*
X122196501Y-104835639D01*
X122528593Y-105062420D01*
X122678565Y-104994353D01*
X122769770Y-104954685D01*
X122867669Y-104914791D01*
X122951831Y-104882983D01*
X122955538Y-104881674D01*
X123021369Y-104857576D01*
X123072116Y-104837200D01*
X123096842Y-104824936D01*
X123096884Y-104824901D01*
X123104729Y-104802734D01*
X123118066Y-104748217D01*
X123135570Y-104667480D01*
X123155917Y-104566650D01*
X123177782Y-104451856D01*
X123179571Y-104442178D01*
X123201504Y-104323904D01*
X123221640Y-104216542D01*
X123238680Y-104126917D01*
X123251328Y-104061851D01*
X123258284Y-104028168D01*
X123258406Y-104027654D01*
X123262639Y-104013325D01*
X123270871Y-104002507D01*
X123288033Y-103994706D01*
X123319058Y-103989429D01*
X123368878Y-103986182D01*
X123442424Y-103984472D01*
X123544629Y-103983807D01*
X123680425Y-103983693D01*
X123698000Y-103983692D01*
X123837878Y-103983776D01*
X123837878Y-103983776D01*
G37*
X123837878Y-103983776D02*
X123943612Y-103984355D01*
X124020132Y-103985922D01*
X124072372Y-103988972D01*
X124105263Y-103993996D01*
X124123737Y-104001489D01*
X124132727Y-104011944D01*
X124137163Y-104025853D01*
X124137594Y-104027654D01*
X124144333Y-104060145D01*
X124156808Y-104124252D01*
X124173719Y-104213151D01*
X124193771Y-104320019D01*
X124215664Y-104438033D01*
X124216429Y-104442178D01*
X124238359Y-104557831D01*
X124258877Y-104660014D01*
X124276659Y-104742598D01*
X124290381Y-104799456D01*
X124298718Y-104824458D01*
X124299116Y-104824901D01*
X124323677Y-104837110D01*
X124374315Y-104857456D01*
X124440095Y-104881545D01*
X124440461Y-104881674D01*
X124523317Y-104912818D01*
X124621000Y-104952491D01*
X124713077Y-104992381D01*
X124717434Y-104994353D01*
X124867407Y-105062420D01*
X125199498Y-104835639D01*
X125301374Y-104766504D01*
X125393657Y-104704697D01*
X125471003Y-104653733D01*
X125528064Y-104617127D01*
X125559495Y-104598394D01*
X125562479Y-104597004D01*
X125585321Y-104603190D01*
X125627982Y-104633035D01*
X125692128Y-104687947D01*
X125779421Y-104769334D01*
X125868535Y-104855922D01*
X125954441Y-104941247D01*
X126031327Y-105019108D01*
X126094564Y-105084697D01*
X126139523Y-105133205D01*
X126161576Y-105159825D01*
X126162396Y-105161195D01*
X126164834Y-105179463D01*
X126155650Y-105209295D01*
X126132574Y-105254721D01*
X126093337Y-105319770D01*
X126035670Y-105408470D01*
X125958795Y-105522657D01*
X125890570Y-105623162D01*
X125829582Y-105713303D01*
X125779356Y-105787849D01*
X125743416Y-105841565D01*
X125725287Y-105869218D01*
X125724146Y-105871095D01*
X125726359Y-105897590D01*
X125743138Y-105949086D01*
X125771142Y-106015851D01*
X125781122Y-106037172D01*
X125824672Y-106132159D01*
X125871134Y-106239937D01*
X125908877Y-106333192D01*
X125936073Y-106402406D01*
X125957675Y-106455006D01*
X125970158Y-106482497D01*
X125971709Y-106484616D01*
X125994668Y-106488124D01*
X126048786Y-106497738D01*
X126126868Y-106512089D01*
X126221719Y-106529807D01*
X126326143Y-106549525D01*
X126432944Y-106569874D01*
X126534926Y-106589486D01*
X126624894Y-106606991D01*
X126695653Y-106621022D01*
X126740006Y-106630209D01*
X126750885Y-106632807D01*
X126762122Y-106639218D01*
X126770605Y-106653697D01*
X126776714Y-106681133D01*
X126780832Y-106726411D01*
X126783341Y-106794420D01*
X126784621Y-106890047D01*
X126785054Y-107018180D01*
X126785077Y-107070701D01*
X126785077Y-107497845D01*
X126682500Y-107518091D01*
X126625431Y-107529070D01*
X126540269Y-107545095D01*
X126437372Y-107564233D01*
X126327096Y-107584551D01*
X126296615Y-107590132D01*
X126194855Y-107609917D01*
X126106205Y-107629373D01*
X126038108Y-107646697D01*
X125998004Y-107660088D01*
X125991323Y-107664079D01*
X125974919Y-107692342D01*
X125951399Y-107747109D01*
X125925316Y-107817588D01*
X125920142Y-107832769D01*
X125885956Y-107926896D01*
X125843523Y-108033101D01*
X125801997Y-108128473D01*
X125801792Y-108128916D01*
X125732640Y-108278525D01*
X126187512Y-108947617D01*
X125895500Y-109240116D01*
X125807180Y-109327170D01*
X125726625Y-109403909D01*
X125658360Y-109466237D01*
X125606908Y-109510056D01*
X125576794Y-109531270D01*
X125572474Y-109532616D01*
X125547111Y-109522016D01*
X125495358Y-109492547D01*
X125422868Y-109447705D01*
X125335294Y-109390984D01*
X125240612Y-109327462D01*
X125144516Y-109262668D01*
X125058837Y-109206287D01*
X124989016Y-109161788D01*
X124940494Y-109132639D01*
X124918782Y-109122308D01*
X124892293Y-109131050D01*
X124842062Y-109154087D01*
X124778451Y-109186631D01*
X124771708Y-109190249D01*
X124686046Y-109233210D01*
X124627306Y-109254279D01*
X124590772Y-109254503D01*
X124571731Y-109234928D01*
X124571620Y-109234654D01*
X124562102Y-109211472D01*
X124539403Y-109156441D01*
X124505282Y-109073822D01*
X124461500Y-108967872D01*
X124409816Y-108842852D01*
X124351992Y-108703020D01*
X124295991Y-108567637D01*
X124234447Y-108418234D01*
X124177939Y-108279832D01*
X124128161Y-108156673D01*
X124086806Y-108053002D01*
X124055568Y-107973059D01*
X124036141Y-107921088D01*
X124030154Y-107901692D01*
X124045168Y-107879443D01*
X124084439Y-107843982D01*
X124136807Y-107804887D01*
X124285941Y-107681245D01*
X124402511Y-107539522D01*
X124485118Y-107382704D01*
X124532366Y-107213775D01*
X124542857Y-107035722D01*
X124535231Y-106953539D01*
X124493682Y-106783031D01*
X124422123Y-106632459D01*
X124324995Y-106503309D01*
X124206734Y-106397064D01*
X124071780Y-106315210D01*
X123924571Y-106259232D01*
X123769544Y-106230615D01*
X123611139Y-106230844D01*
X123453794Y-106261405D01*
X123301946Y-106323782D01*
X123160035Y-106419460D01*
X123100803Y-106473572D01*
X122987203Y-106612520D01*
X122908106Y-106764361D01*
X122862986Y-106924667D01*
X122851316Y-107089012D01*
X122872569Y-107252971D01*
X122926220Y-107412118D01*
X123011740Y-107562025D01*
X123128605Y-107698267D01*
X123259193Y-107804887D01*
X123313588Y-107845642D01*
X123352014Y-107880718D01*
X123365846Y-107901726D01*
X123358603Y-107924635D01*
X123338005Y-107979365D01*
X123305746Y-108061672D01*
X123263521Y-108167315D01*
X123213023Y-108292050D01*
X123155948Y-108431636D01*
X123099854Y-108567670D01*
X123037967Y-108717201D01*
X122980644Y-108855767D01*
X122929644Y-108979107D01*
X122886727Y-109082964D01*
X122853653Y-109163080D01*
X122832181Y-109215195D01*
X122824225Y-109234654D01*
X122805429Y-109254423D01*
X122769074Y-109254365D01*
X122710479Y-109233441D01*
X122624968Y-109190613D01*
X122624292Y-109190249D01*
X122559907Y-109157012D01*
X122507861Y-109132802D01*
X122478512Y-109122404D01*
X122477217Y-109122308D01*
X122455124Y-109132855D01*
X122406348Y-109162184D01*
X122336331Y-109206827D01*
X122250514Y-109263314D01*
X122155388Y-109327462D01*
X122058540Y-109392411D01*
X121971253Y-109448896D01*
X121899181Y-109493421D01*
X121847977Y-109522490D01*
X121823526Y-109532616D01*
X121801010Y-109519307D01*
X121755742Y-109482112D01*
X121692244Y-109425128D01*
X121615039Y-109352449D01*
X121528651Y-109268171D01*
X121500399Y-109240016D01*
X121208287Y-108947416D01*
X121430631Y-108621104D01*
X121498202Y-108520897D01*
X121557507Y-108430963D01*
X121605217Y-108356510D01*
X121638007Y-108302751D01*
X121652548Y-108274894D01*
X121652974Y-108272912D01*
X121645308Y-108246655D01*
X121624689Y-108193837D01*
X121594685Y-108123310D01*
X121573625Y-108076093D01*
X121534248Y-107985694D01*
X121497165Y-107894366D01*
X121468415Y-107817200D01*
X121460605Y-107793692D01*
X121438417Y-107730916D01*
X121416727Y-107682411D01*
X121404813Y-107664079D01*
X121378523Y-107652859D01*
X121321142Y-107636954D01*
X121240118Y-107618167D01*
X121142895Y-107598299D01*
X121099385Y-107590132D01*
X120988896Y-107569829D01*
X120882916Y-107550170D01*
X120791801Y-107533088D01*
X120725908Y-107520518D01*
X120713500Y-107518091D01*
X120610923Y-107497845D01*
X120610923Y-107070701D01*
X120611153Y-106930246D01*
X120612099Y-106823979D01*
X120614141Y-106747013D01*
X120617662Y-106694460D01*
X120623043Y-106661433D01*
X120630666Y-106643045D01*
X120640912Y-106634408D01*
X120645115Y-106632807D01*
X120670470Y-106627127D01*
X120726484Y-106615795D01*
X120805964Y-106600179D01*
X120901712Y-106581647D01*
X121006533Y-106561569D01*
X121113232Y-106541312D01*
X121214613Y-106522246D01*
X121303479Y-106505739D01*
X121372637Y-106493159D01*
X121414889Y-106485875D01*
X121424290Y-106484616D01*
X121432807Y-106467763D01*
X121451660Y-106422870D01*
X121477324Y-106358430D01*
X121487123Y-106333192D01*
X121526648Y-106235686D01*
X121573192Y-106127959D01*
X121614877Y-106037172D01*
X121645550Y-105967753D01*
X121665956Y-105910710D01*
X121672768Y-105875777D01*
X121671682Y-105871095D01*
X121657285Y-105848991D01*
X121624412Y-105799831D01*
X121576590Y-105728848D01*
X121517348Y-105641278D01*
X121450215Y-105542357D01*
X121436941Y-105522830D01*
X121359046Y-105407140D01*
X121301787Y-105319044D01*
X121262881Y-105254486D01*
X121240044Y-105209411D01*
X121230994Y-105179763D01*
X121233448Y-105161485D01*
X121233511Y-105161369D01*
X121252827Y-105137361D01*
X121295551Y-105090947D01*
X121357051Y-105026937D01*
X121432698Y-104950145D01*
X121517861Y-104865382D01*
X121527465Y-104855922D01*
X121634790Y-104751989D01*
X121717615Y-104675675D01*
X121777605Y-104625571D01*
X121816423Y-104600270D01*
X121833520Y-104597004D01*
X121858473Y-104611250D01*
X121910255Y-104644156D01*
X121983520Y-104692208D01*
X122072920Y-104751890D01*
X122173111Y-104819688D01*
X122196501Y-104835639D01*
X122528593Y-105062420D01*
X122678565Y-104994353D01*
X122769770Y-104954685D01*
X122867669Y-104914791D01*
X122951831Y-104882983D01*
X122955538Y-104881674D01*
X123021369Y-104857576D01*
X123072116Y-104837200D01*
X123096842Y-104824936D01*
X123096884Y-104824901D01*
X123104729Y-104802734D01*
X123118066Y-104748217D01*
X123135570Y-104667480D01*
X123155917Y-104566650D01*
X123177782Y-104451856D01*
X123179571Y-104442178D01*
X123201504Y-104323904D01*
X123221640Y-104216542D01*
X123238680Y-104126917D01*
X123251328Y-104061851D01*
X123258284Y-104028168D01*
X123258406Y-104027654D01*
X123262639Y-104013325D01*
X123270871Y-104002507D01*
X123288033Y-103994706D01*
X123319058Y-103989429D01*
X123368878Y-103986182D01*
X123442424Y-103984472D01*
X123544629Y-103983807D01*
X123680425Y-103983693D01*
X123698000Y-103983692D01*
X123837878Y-103983776D01*
G36*
X127943224Y-110343838D02*
G01*
X128020528Y-110394361D01*
X128057814Y-110439590D01*
X128087353Y-110521663D01*
X128089699Y-110586607D01*
X128084385Y-110673445D01*
X127884115Y-110761103D01*
X127786739Y-110805887D01*
X127723113Y-110841913D01*
X127690029Y-110873117D01*
X127684280Y-110903436D01*
X127702658Y-110936805D01*
X127722923Y-110958923D01*
X127781889Y-110994393D01*
X127846024Y-110996879D01*
X127904926Y-110969235D01*
X127948197Y-110914320D01*
X127955936Y-110894928D01*
X127993006Y-110834364D01*
X128035654Y-110808552D01*
X128094154Y-110786471D01*
X128094154Y-110870184D01*
X128088982Y-110927150D01*
X128068723Y-110975189D01*
X128026262Y-111030346D01*
X128019951Y-111037514D01*
X127972720Y-111086585D01*
X127932121Y-111112920D01*
X127881328Y-111125035D01*
X127839220Y-111129003D01*
X127763902Y-111129991D01*
X127710286Y-111117466D01*
X127676838Y-111098869D01*
X127624268Y-111057975D01*
X127587879Y-111013748D01*
X127564850Y-110958126D01*
X127552359Y-110883047D01*
X127547587Y-110780449D01*
X127547206Y-110728376D01*
X127548501Y-110665948D01*
X127666471Y-110665948D01*
X127667839Y-110699438D01*
X127671249Y-110704923D01*
X127693753Y-110697472D01*
X127742182Y-110677753D01*
X127806908Y-110649718D01*
X127820443Y-110643692D01*
X127902244Y-110602096D01*
X127947312Y-110565538D01*
X127957217Y-110531296D01*
X127933526Y-110496648D01*
X127913960Y-110481339D01*
X127843360Y-110450721D01*
X127777280Y-110455780D01*
X127721959Y-110493151D01*
X127683636Y-110559473D01*
X127671349Y-110612116D01*
X127666471Y-110665948D01*
X127548501Y-110665948D01*
X127549730Y-110606720D01*
X127559032Y-110516710D01*
X127577460Y-110451167D01*
X127607360Y-110402912D01*
X127651080Y-110364767D01*
X127670141Y-110352440D01*
X127756726Y-110320336D01*
X127851522Y-110318316D01*
X127943224Y-110343838D01*
X127943224Y-110343838D01*
G37*
X127943224Y-110343838D02*
X128020528Y-110394361D01*
X128057814Y-110439590D01*
X128087353Y-110521663D01*
X128089699Y-110586607D01*
X128084385Y-110673445D01*
X127884115Y-110761103D01*
X127786739Y-110805887D01*
X127723113Y-110841913D01*
X127690029Y-110873117D01*
X127684280Y-110903436D01*
X127702658Y-110936805D01*
X127722923Y-110958923D01*
X127781889Y-110994393D01*
X127846024Y-110996879D01*
X127904926Y-110969235D01*
X127948197Y-110914320D01*
X127955936Y-110894928D01*
X127993006Y-110834364D01*
X128035654Y-110808552D01*
X128094154Y-110786471D01*
X128094154Y-110870184D01*
X128088982Y-110927150D01*
X128068723Y-110975189D01*
X128026262Y-111030346D01*
X128019951Y-111037514D01*
X127972720Y-111086585D01*
X127932121Y-111112920D01*
X127881328Y-111125035D01*
X127839220Y-111129003D01*
X127763902Y-111129991D01*
X127710286Y-111117466D01*
X127676838Y-111098869D01*
X127624268Y-111057975D01*
X127587879Y-111013748D01*
X127564850Y-110958126D01*
X127552359Y-110883047D01*
X127547587Y-110780449D01*
X127547206Y-110728376D01*
X127548501Y-110665948D01*
X127666471Y-110665948D01*
X127667839Y-110699438D01*
X127671249Y-110704923D01*
X127693753Y-110697472D01*
X127742182Y-110677753D01*
X127806908Y-110649718D01*
X127820443Y-110643692D01*
X127902244Y-110602096D01*
X127947312Y-110565538D01*
X127957217Y-110531296D01*
X127933526Y-110496648D01*
X127913960Y-110481339D01*
X127843360Y-110450721D01*
X127777280Y-110455780D01*
X127721959Y-110493151D01*
X127683636Y-110559473D01*
X127671349Y-110612116D01*
X127666471Y-110665948D01*
X127548501Y-110665948D01*
X127549730Y-110606720D01*
X127559032Y-110516710D01*
X127577460Y-110451167D01*
X127607360Y-110402912D01*
X127651080Y-110364767D01*
X127670141Y-110352440D01*
X127756726Y-110320336D01*
X127851522Y-110318316D01*
X127943224Y-110343838D01*
G36*
X127268807Y-110332782D02*
G01*
X127292161Y-110342988D01*
X127347902Y-110387134D01*
X127395569Y-110450967D01*
X127425048Y-110519087D01*
X127429846Y-110552670D01*
X127413760Y-110599556D01*
X127378475Y-110624365D01*
X127340644Y-110639387D01*
X127323321Y-110642155D01*
X127314886Y-110622066D01*
X127298230Y-110578351D01*
X127290923Y-110558598D01*
X127249948Y-110490271D01*
X127190622Y-110456191D01*
X127114552Y-110457239D01*
X127108918Y-110458581D01*
X127068305Y-110477836D01*
X127038448Y-110515375D01*
X127018055Y-110575809D01*
X127005836Y-110663751D01*
X127000500Y-110783813D01*
X127000000Y-110847698D01*
X126999752Y-110948403D01*
X126998126Y-111017054D01*
X126993801Y-111060673D01*
X126985454Y-111086282D01*
X126971765Y-111100903D01*
X126951411Y-111111558D01*
X126950234Y-111112095D01*
X126911038Y-111128667D01*
X126891619Y-111134769D01*
X126888635Y-111116319D01*
X126886081Y-111065323D01*
X126884140Y-110988308D01*
X126882997Y-110891805D01*
X126882769Y-110821184D01*
X126883932Y-110684525D01*
X126888479Y-110580851D01*
X126897999Y-110504108D01*
X126914081Y-110448246D01*
X126938313Y-110407212D01*
X126972286Y-110374954D01*
X127005833Y-110352440D01*
X127086499Y-110322476D01*
X127180381Y-110315718D01*
X127268807Y-110332782D01*
X127268807Y-110332782D01*
G37*
X127268807Y-110332782D02*
X127292161Y-110342988D01*
X127347902Y-110387134D01*
X127395569Y-110450967D01*
X127425048Y-110519087D01*
X127429846Y-110552670D01*
X127413760Y-110599556D01*
X127378475Y-110624365D01*
X127340644Y-110639387D01*
X127323321Y-110642155D01*
X127314886Y-110622066D01*
X127298230Y-110578351D01*
X127290923Y-110558598D01*
X127249948Y-110490271D01*
X127190622Y-110456191D01*
X127114552Y-110457239D01*
X127108918Y-110458581D01*
X127068305Y-110477836D01*
X127038448Y-110515375D01*
X127018055Y-110575809D01*
X127005836Y-110663751D01*
X127000500Y-110783813D01*
X127000000Y-110847698D01*
X126999752Y-110948403D01*
X126998126Y-111017054D01*
X126993801Y-111060673D01*
X126985454Y-111086282D01*
X126971765Y-111100903D01*
X126951411Y-111111558D01*
X126950234Y-111112095D01*
X126911038Y-111128667D01*
X126891619Y-111134769D01*
X126888635Y-111116319D01*
X126886081Y-111065323D01*
X126884140Y-110988308D01*
X126882997Y-110891805D01*
X126882769Y-110821184D01*
X126883932Y-110684525D01*
X126888479Y-110580851D01*
X126897999Y-110504108D01*
X126914081Y-110448246D01*
X126938313Y-110407212D01*
X126972286Y-110374954D01*
X127005833Y-110352440D01*
X127086499Y-110322476D01*
X127180381Y-110315718D01*
X127268807Y-110332782D01*
G36*
X126585333Y-110329528D02*
G01*
X126641590Y-110355117D01*
X126685747Y-110386124D01*
X126718101Y-110420795D01*
X126740438Y-110465520D01*
X126754546Y-110526692D01*
X126762211Y-110610701D01*
X126765220Y-110723940D01*
X126765538Y-110798509D01*
X126765538Y-111089420D01*
X126715773Y-111112095D01*
X126676576Y-111128667D01*
X126657157Y-111134769D01*
X126653442Y-111116610D01*
X126650495Y-111067648D01*
X126648691Y-110996153D01*
X126648308Y-110939385D01*
X126646661Y-110857371D01*
X126642222Y-110792309D01*
X126635740Y-110752467D01*
X126630590Y-110744000D01*
X126595977Y-110752646D01*
X126541640Y-110774823D01*
X126478722Y-110804886D01*
X126418368Y-110837192D01*
X126371721Y-110866098D01*
X126349926Y-110885961D01*
X126349839Y-110886175D01*
X126351714Y-110922935D01*
X126368525Y-110958026D01*
X126398039Y-110986528D01*
X126441116Y-110996061D01*
X126477932Y-110994950D01*
X126530074Y-110994133D01*
X126557444Y-111006349D01*
X126573882Y-111038624D01*
X126575955Y-111044710D01*
X126583081Y-111090739D01*
X126564024Y-111118687D01*
X126514353Y-111132007D01*
X126460697Y-111134470D01*
X126364142Y-111116210D01*
X126314159Y-111090131D01*
X126252429Y-111028868D01*
X126219690Y-110953670D01*
X126216753Y-110874211D01*
X126244424Y-110800167D01*
X126286047Y-110753769D01*
X126327604Y-110727793D01*
X126392922Y-110694907D01*
X126469038Y-110661557D01*
X126481726Y-110656461D01*
X126565333Y-110619565D01*
X126613530Y-110587046D01*
X126629030Y-110554718D01*
X126614550Y-110518394D01*
X126589692Y-110490000D01*
X126530939Y-110455039D01*
X126466293Y-110452417D01*
X126407008Y-110479358D01*
X126364339Y-110533088D01*
X126358739Y-110546950D01*
X126326133Y-110597936D01*
X126278530Y-110635787D01*
X126218461Y-110666850D01*
X126218461Y-110578768D01*
X126221997Y-110524951D01*
X126237156Y-110482534D01*
X126270768Y-110437279D01*
X126303035Y-110402420D01*
X126353209Y-110353062D01*
X126392193Y-110326547D01*
X126434064Y-110315911D01*
X126481460Y-110314154D01*
X126585333Y-110329528D01*
X126585333Y-110329528D01*
G37*
X126585333Y-110329528D02*
X126641590Y-110355117D01*
X126685747Y-110386124D01*
X126718101Y-110420795D01*
X126740438Y-110465520D01*
X126754546Y-110526692D01*
X126762211Y-110610701D01*
X126765220Y-110723940D01*
X126765538Y-110798509D01*
X126765538Y-111089420D01*
X126715773Y-111112095D01*
X126676576Y-111128667D01*
X126657157Y-111134769D01*
X126653442Y-111116610D01*
X126650495Y-111067648D01*
X126648691Y-110996153D01*
X126648308Y-110939385D01*
X126646661Y-110857371D01*
X126642222Y-110792309D01*
X126635740Y-110752467D01*
X126630590Y-110744000D01*
X126595977Y-110752646D01*
X126541640Y-110774823D01*
X126478722Y-110804886D01*
X126418368Y-110837192D01*
X126371721Y-110866098D01*
X126349926Y-110885961D01*
X126349839Y-110886175D01*
X126351714Y-110922935D01*
X126368525Y-110958026D01*
X126398039Y-110986528D01*
X126441116Y-110996061D01*
X126477932Y-110994950D01*
X126530074Y-110994133D01*
X126557444Y-111006349D01*
X126573882Y-111038624D01*
X126575955Y-111044710D01*
X126583081Y-111090739D01*
X126564024Y-111118687D01*
X126514353Y-111132007D01*
X126460697Y-111134470D01*
X126364142Y-111116210D01*
X126314159Y-111090131D01*
X126252429Y-111028868D01*
X126219690Y-110953670D01*
X126216753Y-110874211D01*
X126244424Y-110800167D01*
X126286047Y-110753769D01*
X126327604Y-110727793D01*
X126392922Y-110694907D01*
X126469038Y-110661557D01*
X126481726Y-110656461D01*
X126565333Y-110619565D01*
X126613530Y-110587046D01*
X126629030Y-110554718D01*
X126614550Y-110518394D01*
X126589692Y-110490000D01*
X126530939Y-110455039D01*
X126466293Y-110452417D01*
X126407008Y-110479358D01*
X126364339Y-110533088D01*
X126358739Y-110546950D01*
X126326133Y-110597936D01*
X126278530Y-110635787D01*
X126218461Y-110666850D01*
X126218461Y-110578768D01*
X126221997Y-110524951D01*
X126237156Y-110482534D01*
X126270768Y-110437279D01*
X126303035Y-110402420D01*
X126353209Y-110353062D01*
X126392193Y-110326547D01*
X126434064Y-110315911D01*
X126481460Y-110314154D01*
X126585333Y-110329528D01*
G36*
X126093929Y-110332662D02*
G01*
X126096911Y-110384068D01*
X126099247Y-110462192D01*
X126100749Y-110560857D01*
X126101231Y-110664343D01*
X126101231Y-111014533D01*
X126039401Y-111076363D01*
X125996793Y-111114462D01*
X125959390Y-111129895D01*
X125908270Y-111128918D01*
X125887978Y-111126433D01*
X125824554Y-111119200D01*
X125772095Y-111115055D01*
X125759308Y-111114672D01*
X125716199Y-111117176D01*
X125654544Y-111123462D01*
X125630638Y-111126433D01*
X125571922Y-111131028D01*
X125532464Y-111121046D01*
X125493338Y-111090228D01*
X125479215Y-111076363D01*
X125417385Y-111014533D01*
X125417385Y-110359503D01*
X125467150Y-110336829D01*
X125510002Y-110320034D01*
X125535073Y-110314154D01*
X125541501Y-110332736D01*
X125547509Y-110384655D01*
X125552697Y-110464172D01*
X125556664Y-110565546D01*
X125558577Y-110651192D01*
X125563923Y-110988231D01*
X125610560Y-110994825D01*
X125652976Y-110990214D01*
X125673760Y-110975287D01*
X125679570Y-110947377D01*
X125684530Y-110887925D01*
X125688246Y-110804466D01*
X125690324Y-110704532D01*
X125690624Y-110653104D01*
X125690923Y-110357054D01*
X125752454Y-110335604D01*
X125796004Y-110321020D01*
X125819694Y-110314219D01*
X125820377Y-110314154D01*
X125822754Y-110332642D01*
X125825366Y-110383906D01*
X125827995Y-110461649D01*
X125830421Y-110559574D01*
X125832115Y-110651192D01*
X125837461Y-110988231D01*
X125954692Y-110988231D01*
X125960072Y-110680746D01*
X125965451Y-110373261D01*
X126022601Y-110343707D01*
X126064797Y-110323413D01*
X126089770Y-110314204D01*
X126090491Y-110314154D01*
X126093929Y-110332662D01*
X126093929Y-110332662D01*
G37*
X126093929Y-110332662D02*
X126096911Y-110384068D01*
X126099247Y-110462192D01*
X126100749Y-110560857D01*
X126101231Y-110664343D01*
X126101231Y-111014533D01*
X126039401Y-111076363D01*
X125996793Y-111114462D01*
X125959390Y-111129895D01*
X125908270Y-111128918D01*
X125887978Y-111126433D01*
X125824554Y-111119200D01*
X125772095Y-111115055D01*
X125759308Y-111114672D01*
X125716199Y-111117176D01*
X125654544Y-111123462D01*
X125630638Y-111126433D01*
X125571922Y-111131028D01*
X125532464Y-111121046D01*
X125493338Y-111090228D01*
X125479215Y-111076363D01*
X125417385Y-111014533D01*
X125417385Y-110359503D01*
X125467150Y-110336829D01*
X125510002Y-110320034D01*
X125535073Y-110314154D01*
X125541501Y-110332736D01*
X125547509Y-110384655D01*
X125552697Y-110464172D01*
X125556664Y-110565546D01*
X125558577Y-110651192D01*
X125563923Y-110988231D01*
X125610560Y-110994825D01*
X125652976Y-110990214D01*
X125673760Y-110975287D01*
X125679570Y-110947377D01*
X125684530Y-110887925D01*
X125688246Y-110804466D01*
X125690324Y-110704532D01*
X125690624Y-110653104D01*
X125690923Y-110357054D01*
X125752454Y-110335604D01*
X125796004Y-110321020D01*
X125819694Y-110314219D01*
X125820377Y-110314154D01*
X125822754Y-110332642D01*
X125825366Y-110383906D01*
X125827995Y-110461649D01*
X125830421Y-110559574D01*
X125832115Y-110651192D01*
X125837461Y-110988231D01*
X125954692Y-110988231D01*
X125960072Y-110680746D01*
X125965451Y-110373261D01*
X126022601Y-110343707D01*
X126064797Y-110323413D01*
X126089770Y-110314204D01*
X126090491Y-110314154D01*
X126093929Y-110332662D01*
G36*
X125300081Y-110476289D02*
G01*
X125299833Y-110622320D01*
X125298872Y-110734655D01*
X125296794Y-110818678D01*
X125293193Y-110879769D01*
X125287665Y-110923309D01*
X125279804Y-110954679D01*
X125269207Y-110979262D01*
X125261182Y-110993294D01*
X125194728Y-111069388D01*
X125110470Y-111117084D01*
X125017249Y-111134199D01*
X124923900Y-111118546D01*
X124868312Y-111090418D01*
X124809957Y-111041760D01*
X124770186Y-110982333D01*
X124746190Y-110904507D01*
X124735161Y-110800652D01*
X124733599Y-110724462D01*
X124733809Y-110718986D01*
X124870308Y-110718986D01*
X124871141Y-110806355D01*
X124874961Y-110864192D01*
X124883746Y-110902029D01*
X124899474Y-110929398D01*
X124918266Y-110950042D01*
X124981375Y-110989890D01*
X125049137Y-110993295D01*
X125113179Y-110960025D01*
X125118164Y-110955517D01*
X125139439Y-110932067D01*
X125152779Y-110904166D01*
X125160001Y-110862641D01*
X125162923Y-110798316D01*
X125163385Y-110727200D01*
X125162383Y-110637858D01*
X125158238Y-110578258D01*
X125149236Y-110539089D01*
X125133667Y-110511040D01*
X125120902Y-110496144D01*
X125061600Y-110458575D01*
X124993301Y-110454057D01*
X124928110Y-110482753D01*
X124915528Y-110493406D01*
X124894111Y-110517063D01*
X124880744Y-110545251D01*
X124873566Y-110587245D01*
X124870719Y-110652319D01*
X124870308Y-110718986D01*
X124733809Y-110718986D01*
X124738322Y-110601765D01*
X124754362Y-110509577D01*
X124784528Y-110440269D01*
X124831629Y-110386211D01*
X124868312Y-110358505D01*
X124934990Y-110328572D01*
X125012272Y-110314678D01*
X125084110Y-110318397D01*
X125124308Y-110333400D01*
X125140082Y-110337670D01*
X125150550Y-110321750D01*
X125157856Y-110279089D01*
X125163385Y-110214106D01*
X125169437Y-110141732D01*
X125177844Y-110098187D01*
X125193141Y-110073287D01*
X125219864Y-110056845D01*
X125236654Y-110049564D01*
X125300154Y-110022963D01*
X125300081Y-110476289D01*
X125300081Y-110476289D01*
G37*
X125300081Y-110476289D02*
X125299833Y-110622320D01*
X125298872Y-110734655D01*
X125296794Y-110818678D01*
X125293193Y-110879769D01*
X125287665Y-110923309D01*
X125279804Y-110954679D01*
X125269207Y-110979262D01*
X125261182Y-110993294D01*
X125194728Y-111069388D01*
X125110470Y-111117084D01*
X125017249Y-111134199D01*
X124923900Y-111118546D01*
X124868312Y-111090418D01*
X124809957Y-111041760D01*
X124770186Y-110982333D01*
X124746190Y-110904507D01*
X124735161Y-110800652D01*
X124733599Y-110724462D01*
X124733809Y-110718986D01*
X124870308Y-110718986D01*
X124871141Y-110806355D01*
X124874961Y-110864192D01*
X124883746Y-110902029D01*
X124899474Y-110929398D01*
X124918266Y-110950042D01*
X124981375Y-110989890D01*
X125049137Y-110993295D01*
X125113179Y-110960025D01*
X125118164Y-110955517D01*
X125139439Y-110932067D01*
X125152779Y-110904166D01*
X125160001Y-110862641D01*
X125162923Y-110798316D01*
X125163385Y-110727200D01*
X125162383Y-110637858D01*
X125158238Y-110578258D01*
X125149236Y-110539089D01*
X125133667Y-110511040D01*
X125120902Y-110496144D01*
X125061600Y-110458575D01*
X124993301Y-110454057D01*
X124928110Y-110482753D01*
X124915528Y-110493406D01*
X124894111Y-110517063D01*
X124880744Y-110545251D01*
X124873566Y-110587245D01*
X124870719Y-110652319D01*
X124870308Y-110718986D01*
X124733809Y-110718986D01*
X124738322Y-110601765D01*
X124754362Y-110509577D01*
X124784528Y-110440269D01*
X124831629Y-110386211D01*
X124868312Y-110358505D01*
X124934990Y-110328572D01*
X125012272Y-110314678D01*
X125084110Y-110318397D01*
X125124308Y-110333400D01*
X125140082Y-110337670D01*
X125150550Y-110321750D01*
X125157856Y-110279089D01*
X125163385Y-110214106D01*
X125169437Y-110141732D01*
X125177844Y-110098187D01*
X125193141Y-110073287D01*
X125219864Y-110056845D01*
X125236654Y-110049564D01*
X125300154Y-110022963D01*
X125300081Y-110476289D01*
G36*
X124411362Y-110320670D02*
G01*
X124500117Y-110353421D01*
X124572022Y-110411350D01*
X124600144Y-110452128D01*
X124630802Y-110526954D01*
X124630165Y-110581058D01*
X124597987Y-110617446D01*
X124586081Y-110623633D01*
X124534675Y-110642925D01*
X124508422Y-110637982D01*
X124499530Y-110605587D01*
X124499077Y-110587692D01*
X124482797Y-110521859D01*
X124440365Y-110475807D01*
X124381388Y-110453564D01*
X124315475Y-110459161D01*
X124261895Y-110488229D01*
X124243798Y-110504810D01*
X124230971Y-110524925D01*
X124222306Y-110555332D01*
X124216696Y-110602788D01*
X124213035Y-110674050D01*
X124210215Y-110775875D01*
X124209484Y-110808115D01*
X124206820Y-110918410D01*
X124203792Y-110996036D01*
X124199250Y-111047396D01*
X124192046Y-111078890D01*
X124181033Y-111096920D01*
X124165060Y-111107888D01*
X124154834Y-111112733D01*
X124111406Y-111129301D01*
X124085842Y-111134769D01*
X124077395Y-111116507D01*
X124072239Y-111061296D01*
X124070346Y-110968499D01*
X124071689Y-110837478D01*
X124072107Y-110817269D01*
X124075058Y-110697733D01*
X124078548Y-110610449D01*
X124083514Y-110548591D01*
X124090893Y-110505336D01*
X124101624Y-110473860D01*
X124116645Y-110447339D01*
X124124502Y-110435975D01*
X124169553Y-110385692D01*
X124219940Y-110346581D01*
X124226108Y-110343167D01*
X124316458Y-110316212D01*
X124411362Y-110320670D01*
X124411362Y-110320670D01*
G37*
X124411362Y-110320670D02*
X124500117Y-110353421D01*
X124572022Y-110411350D01*
X124600144Y-110452128D01*
X124630802Y-110526954D01*
X124630165Y-110581058D01*
X124597987Y-110617446D01*
X124586081Y-110623633D01*
X124534675Y-110642925D01*
X124508422Y-110637982D01*
X124499530Y-110605587D01*
X124499077Y-110587692D01*
X124482797Y-110521859D01*
X124440365Y-110475807D01*
X124381388Y-110453564D01*
X124315475Y-110459161D01*
X124261895Y-110488229D01*
X124243798Y-110504810D01*
X124230971Y-110524925D01*
X124222306Y-110555332D01*
X124216696Y-110602788D01*
X124213035Y-110674050D01*
X124210215Y-110775875D01*
X124209484Y-110808115D01*
X124206820Y-110918410D01*
X124203792Y-110996036D01*
X124199250Y-111047396D01*
X124192046Y-111078890D01*
X124181033Y-111096920D01*
X124165060Y-111107888D01*
X124154834Y-111112733D01*
X124111406Y-111129301D01*
X124085842Y-111134769D01*
X124077395Y-111116507D01*
X124072239Y-111061296D01*
X124070346Y-110968499D01*
X124071689Y-110837478D01*
X124072107Y-110817269D01*
X124075058Y-110697733D01*
X124078548Y-110610449D01*
X124083514Y-110548591D01*
X124090893Y-110505336D01*
X124101624Y-110473860D01*
X124116645Y-110447339D01*
X124124502Y-110435975D01*
X124169553Y-110385692D01*
X124219940Y-110346581D01*
X124226108Y-110343167D01*
X124316458Y-110316212D01*
X124411362Y-110320670D01*
G36*
X123751501Y-110322303D02*
G01*
X123828060Y-110350733D01*
X123828936Y-110351279D01*
X123876285Y-110386127D01*
X123911241Y-110426852D01*
X123935825Y-110479925D01*
X123952062Y-110551814D01*
X123961975Y-110648992D01*
X123967586Y-110777928D01*
X123968077Y-110796298D01*
X123975141Y-111073287D01*
X123915695Y-111104028D01*
X123872681Y-111124802D01*
X123846710Y-111134646D01*
X123845509Y-111134769D01*
X123841014Y-111116606D01*
X123837444Y-111067612D01*
X123835248Y-110996031D01*
X123834769Y-110938068D01*
X123834758Y-110844170D01*
X123830466Y-110785203D01*
X123815503Y-110757079D01*
X123783482Y-110755706D01*
X123728014Y-110776998D01*
X123644269Y-110816136D01*
X123582689Y-110848643D01*
X123551017Y-110876845D01*
X123541706Y-110907582D01*
X123541692Y-110909104D01*
X123557057Y-110962054D01*
X123602547Y-110990660D01*
X123672166Y-110994803D01*
X123722313Y-110994084D01*
X123748754Y-111008527D01*
X123765243Y-111043218D01*
X123774733Y-111087416D01*
X123761057Y-111112493D01*
X123755907Y-111116082D01*
X123707425Y-111130496D01*
X123639531Y-111132537D01*
X123569612Y-111122983D01*
X123520068Y-111105522D01*
X123451570Y-111047364D01*
X123412634Y-110966408D01*
X123404923Y-110903160D01*
X123410807Y-110846111D01*
X123432101Y-110799542D01*
X123474265Y-110758181D01*
X123542759Y-110716755D01*
X123643044Y-110669993D01*
X123649154Y-110667350D01*
X123739490Y-110625617D01*
X123795235Y-110591391D01*
X123819129Y-110560635D01*
X123813913Y-110529311D01*
X123782328Y-110493383D01*
X123772883Y-110485116D01*
X123709617Y-110453058D01*
X123644064Y-110454407D01*
X123586972Y-110485838D01*
X123549093Y-110544024D01*
X123545574Y-110555446D01*
X123511300Y-110610837D01*
X123467809Y-110637518D01*
X123404923Y-110663960D01*
X123404923Y-110595548D01*
X123424052Y-110496110D01*
X123480831Y-110404902D01*
X123510378Y-110374389D01*
X123577542Y-110335228D01*
X123662956Y-110317500D01*
X123751501Y-110322303D01*
X123751501Y-110322303D01*
G37*
X123751501Y-110322303D02*
X123828060Y-110350733D01*
X123828936Y-110351279D01*
X123876285Y-110386127D01*
X123911241Y-110426852D01*
X123935825Y-110479925D01*
X123952062Y-110551814D01*
X123961975Y-110648992D01*
X123967586Y-110777928D01*
X123968077Y-110796298D01*
X123975141Y-111073287D01*
X123915695Y-111104028D01*
X123872681Y-111124802D01*
X123846710Y-111134646D01*
X123845509Y-111134769D01*
X123841014Y-111116606D01*
X123837444Y-111067612D01*
X123835248Y-110996031D01*
X123834769Y-110938068D01*
X123834758Y-110844170D01*
X123830466Y-110785203D01*
X123815503Y-110757079D01*
X123783482Y-110755706D01*
X123728014Y-110776998D01*
X123644269Y-110816136D01*
X123582689Y-110848643D01*
X123551017Y-110876845D01*
X123541706Y-110907582D01*
X123541692Y-110909104D01*
X123557057Y-110962054D01*
X123602547Y-110990660D01*
X123672166Y-110994803D01*
X123722313Y-110994084D01*
X123748754Y-111008527D01*
X123765243Y-111043218D01*
X123774733Y-111087416D01*
X123761057Y-111112493D01*
X123755907Y-111116082D01*
X123707425Y-111130496D01*
X123639531Y-111132537D01*
X123569612Y-111122983D01*
X123520068Y-111105522D01*
X123451570Y-111047364D01*
X123412634Y-110966408D01*
X123404923Y-110903160D01*
X123410807Y-110846111D01*
X123432101Y-110799542D01*
X123474265Y-110758181D01*
X123542759Y-110716755D01*
X123643044Y-110669993D01*
X123649154Y-110667350D01*
X123739490Y-110625617D01*
X123795235Y-110591391D01*
X123819129Y-110560635D01*
X123813913Y-110529311D01*
X123782328Y-110493383D01*
X123772883Y-110485116D01*
X123709617Y-110453058D01*
X123644064Y-110454407D01*
X123586972Y-110485838D01*
X123549093Y-110544024D01*
X123545574Y-110555446D01*
X123511300Y-110610837D01*
X123467809Y-110637518D01*
X123404923Y-110663960D01*
X123404923Y-110595548D01*
X123424052Y-110496110D01*
X123480831Y-110404902D01*
X123510378Y-110374389D01*
X123577542Y-110335228D01*
X123662956Y-110317500D01*
X123751501Y-110322303D01*
G36*
X122857846Y-110188120D02*
G01*
X122863572Y-110267980D01*
X122870149Y-110315039D01*
X122879262Y-110335566D01*
X122892598Y-110335829D01*
X122896923Y-110333378D01*
X122954444Y-110315636D01*
X123029268Y-110316672D01*
X123105339Y-110334910D01*
X123152918Y-110358505D01*
X123201702Y-110396198D01*
X123237364Y-110438855D01*
X123261845Y-110493057D01*
X123277087Y-110565384D01*
X123285030Y-110662419D01*
X123287616Y-110790742D01*
X123287662Y-110815358D01*
X123287692Y-111091870D01*
X123226161Y-111113320D01*
X123182459Y-111127912D01*
X123158482Y-111134706D01*
X123157777Y-111134769D01*
X123155415Y-111116345D01*
X123153406Y-111065526D01*
X123151901Y-110988993D01*
X123151053Y-110893430D01*
X123150923Y-110835329D01*
X123150651Y-110720771D01*
X123149252Y-110638667D01*
X123145849Y-110582393D01*
X123139567Y-110545326D01*
X123129529Y-110520844D01*
X123114861Y-110502325D01*
X123105702Y-110493406D01*
X123042789Y-110457466D01*
X122974136Y-110454775D01*
X122911848Y-110485170D01*
X122900329Y-110496144D01*
X122883433Y-110516779D01*
X122871714Y-110541256D01*
X122864233Y-110576647D01*
X122860054Y-110630026D01*
X122858237Y-110708466D01*
X122857846Y-110816617D01*
X122857846Y-111091870D01*
X122796315Y-111113320D01*
X122752613Y-111127912D01*
X122728636Y-111134706D01*
X122727930Y-111134769D01*
X122726126Y-111116069D01*
X122724500Y-111063322D01*
X122723117Y-110981557D01*
X122722042Y-110875805D01*
X122721340Y-110751094D01*
X122721077Y-110612455D01*
X122721077Y-110077806D01*
X122848077Y-110024236D01*
X122857846Y-110188120D01*
X122857846Y-110188120D01*
G37*
X122857846Y-110188120D02*
X122863572Y-110267980D01*
X122870149Y-110315039D01*
X122879262Y-110335566D01*
X122892598Y-110335829D01*
X122896923Y-110333378D01*
X122954444Y-110315636D01*
X123029268Y-110316672D01*
X123105339Y-110334910D01*
X123152918Y-110358505D01*
X123201702Y-110396198D01*
X123237364Y-110438855D01*
X123261845Y-110493057D01*
X123277087Y-110565384D01*
X123285030Y-110662419D01*
X123287616Y-110790742D01*
X123287662Y-110815358D01*
X123287692Y-111091870D01*
X123226161Y-111113320D01*
X123182459Y-111127912D01*
X123158482Y-111134706D01*
X123157777Y-111134769D01*
X123155415Y-111116345D01*
X123153406Y-111065526D01*
X123151901Y-110988993D01*
X123151053Y-110893430D01*
X123150923Y-110835329D01*
X123150651Y-110720771D01*
X123149252Y-110638667D01*
X123145849Y-110582393D01*
X123139567Y-110545326D01*
X123129529Y-110520844D01*
X123114861Y-110502325D01*
X123105702Y-110493406D01*
X123042789Y-110457466D01*
X122974136Y-110454775D01*
X122911848Y-110485170D01*
X122900329Y-110496144D01*
X122883433Y-110516779D01*
X122871714Y-110541256D01*
X122864233Y-110576647D01*
X122860054Y-110630026D01*
X122858237Y-110708466D01*
X122857846Y-110816617D01*
X122857846Y-111091870D01*
X122796315Y-111113320D01*
X122752613Y-111127912D01*
X122728636Y-111134706D01*
X122727930Y-111134769D01*
X122726126Y-111116069D01*
X122724500Y-111063322D01*
X122723117Y-110981557D01*
X122722042Y-110875805D01*
X122721340Y-110751094D01*
X122721077Y-110612455D01*
X122721077Y-110077806D01*
X122848077Y-110024236D01*
X122857846Y-110188120D01*
G36*
X121232254Y-110295745D02*
G01*
X121309286Y-110347567D01*
X121368816Y-110422412D01*
X121404378Y-110517654D01*
X121411571Y-110587756D01*
X121410754Y-110617009D01*
X121403914Y-110639407D01*
X121385112Y-110659474D01*
X121348408Y-110681733D01*
X121287862Y-110710709D01*
X121197534Y-110750927D01*
X121197077Y-110751129D01*
X121113933Y-110789210D01*
X121045753Y-110823025D01*
X120999505Y-110848933D01*
X120982158Y-110863295D01*
X120982154Y-110863411D01*
X120997443Y-110894685D01*
X121033196Y-110929157D01*
X121074242Y-110953990D01*
X121095037Y-110958923D01*
X121151770Y-110941862D01*
X121200627Y-110899133D01*
X121224465Y-110852155D01*
X121247397Y-110817522D01*
X121292318Y-110778081D01*
X121345123Y-110744009D01*
X121391710Y-110725480D01*
X121401452Y-110724462D01*
X121412418Y-110741215D01*
X121413079Y-110784039D01*
X121405020Y-110841781D01*
X121389827Y-110903289D01*
X121369086Y-110957409D01*
X121368038Y-110959510D01*
X121305621Y-111046660D01*
X121224726Y-111105939D01*
X121132856Y-111135034D01*
X121037513Y-111131634D01*
X120946198Y-111093428D01*
X120942138Y-111090741D01*
X120870306Y-111025642D01*
X120823073Y-110940705D01*
X120796934Y-110829021D01*
X120793426Y-110797643D01*
X120787213Y-110649536D01*
X120794661Y-110580468D01*
X120982154Y-110580468D01*
X120984590Y-110623552D01*
X120997914Y-110636126D01*
X121031132Y-110626719D01*
X121083494Y-110604483D01*
X121142024Y-110576610D01*
X121143479Y-110575872D01*
X121193089Y-110549777D01*
X121213000Y-110532363D01*
X121208090Y-110514107D01*
X121187416Y-110490120D01*
X121134819Y-110455406D01*
X121078177Y-110452856D01*
X121027369Y-110478119D01*
X120992276Y-110526847D01*
X120982154Y-110580468D01*
X120794661Y-110580468D01*
X120799992Y-110531036D01*
X120832778Y-110437055D01*
X120878421Y-110371215D01*
X120960802Y-110304681D01*
X121051546Y-110271676D01*
X121144185Y-110269573D01*
X121232254Y-110295745D01*
X121232254Y-110295745D01*
G37*
X121232254Y-110295745D02*
X121309286Y-110347567D01*
X121368816Y-110422412D01*
X121404378Y-110517654D01*
X121411571Y-110587756D01*
X121410754Y-110617009D01*
X121403914Y-110639407D01*
X121385112Y-110659474D01*
X121348408Y-110681733D01*
X121287862Y-110710709D01*
X121197534Y-110750927D01*
X121197077Y-110751129D01*
X121113933Y-110789210D01*
X121045753Y-110823025D01*
X120999505Y-110848933D01*
X120982158Y-110863295D01*
X120982154Y-110863411D01*
X120997443Y-110894685D01*
X121033196Y-110929157D01*
X121074242Y-110953990D01*
X121095037Y-110958923D01*
X121151770Y-110941862D01*
X121200627Y-110899133D01*
X121224465Y-110852155D01*
X121247397Y-110817522D01*
X121292318Y-110778081D01*
X121345123Y-110744009D01*
X121391710Y-110725480D01*
X121401452Y-110724462D01*
X121412418Y-110741215D01*
X121413079Y-110784039D01*
X121405020Y-110841781D01*
X121389827Y-110903289D01*
X121369086Y-110957409D01*
X121368038Y-110959510D01*
X121305621Y-111046660D01*
X121224726Y-111105939D01*
X121132856Y-111135034D01*
X121037513Y-111131634D01*
X120946198Y-111093428D01*
X120942138Y-111090741D01*
X120870306Y-111025642D01*
X120823073Y-110940705D01*
X120796934Y-110829021D01*
X120793426Y-110797643D01*
X120787213Y-110649536D01*
X120794661Y-110580468D01*
X120982154Y-110580468D01*
X120984590Y-110623552D01*
X120997914Y-110636126D01*
X121031132Y-110626719D01*
X121083494Y-110604483D01*
X121142024Y-110576610D01*
X121143479Y-110575872D01*
X121193089Y-110549777D01*
X121213000Y-110532363D01*
X121208090Y-110514107D01*
X121187416Y-110490120D01*
X121134819Y-110455406D01*
X121078177Y-110452856D01*
X121027369Y-110478119D01*
X120992276Y-110526847D01*
X120982154Y-110580468D01*
X120794661Y-110580468D01*
X120799992Y-110531036D01*
X120832778Y-110437055D01*
X120878421Y-110371215D01*
X120960802Y-110304681D01*
X121051546Y-110271676D01*
X121144185Y-110269573D01*
X121232254Y-110295745D01*
G36*
X119714886Y-110283256D02*
G01*
X119806464Y-110331409D01*
X119874049Y-110408905D01*
X119898057Y-110458727D01*
X119916738Y-110533533D01*
X119926301Y-110628052D01*
X119927208Y-110731210D01*
X119919921Y-110831935D01*
X119904903Y-110919153D01*
X119882615Y-110981791D01*
X119875765Y-110992579D01*
X119794632Y-111073105D01*
X119698266Y-111121336D01*
X119593701Y-111135450D01*
X119487968Y-111113629D01*
X119458543Y-111100547D01*
X119401241Y-111060231D01*
X119350950Y-111006775D01*
X119346197Y-110999995D01*
X119326878Y-110967321D01*
X119314108Y-110932394D01*
X119306564Y-110886414D01*
X119302924Y-110820584D01*
X119301865Y-110726105D01*
X119301846Y-110704923D01*
X119301894Y-110698182D01*
X119497231Y-110698182D01*
X119498368Y-110787349D01*
X119502841Y-110846520D01*
X119512246Y-110884741D01*
X119528176Y-110911053D01*
X119536308Y-110919846D01*
X119583058Y-110953261D01*
X119628447Y-110951737D01*
X119674340Y-110922752D01*
X119701712Y-110891809D01*
X119717923Y-110846643D01*
X119727026Y-110775420D01*
X119727651Y-110767114D01*
X119729204Y-110638037D01*
X119712965Y-110542172D01*
X119679152Y-110480107D01*
X119627984Y-110452432D01*
X119609720Y-110450923D01*
X119561760Y-110458513D01*
X119528953Y-110484808D01*
X119508895Y-110535095D01*
X119499178Y-110614664D01*
X119497231Y-110698182D01*
X119301894Y-110698182D01*
X119302574Y-110604249D01*
X119305629Y-110533906D01*
X119312322Y-110485163D01*
X119323960Y-110449288D01*
X119341853Y-110417548D01*
X119345808Y-110411648D01*
X119412267Y-110332104D01*
X119484685Y-110285929D01*
X119572849Y-110267599D01*
X119602787Y-110266703D01*
X119714886Y-110283256D01*
X119714886Y-110283256D01*
G37*
X119714886Y-110283256D02*
X119806464Y-110331409D01*
X119874049Y-110408905D01*
X119898057Y-110458727D01*
X119916738Y-110533533D01*
X119926301Y-110628052D01*
X119927208Y-110731210D01*
X119919921Y-110831935D01*
X119904903Y-110919153D01*
X119882615Y-110981791D01*
X119875765Y-110992579D01*
X119794632Y-111073105D01*
X119698266Y-111121336D01*
X119593701Y-111135450D01*
X119487968Y-111113629D01*
X119458543Y-111100547D01*
X119401241Y-111060231D01*
X119350950Y-111006775D01*
X119346197Y-110999995D01*
X119326878Y-110967321D01*
X119314108Y-110932394D01*
X119306564Y-110886414D01*
X119302924Y-110820584D01*
X119301865Y-110726105D01*
X119301846Y-110704923D01*
X119301894Y-110698182D01*
X119497231Y-110698182D01*
X119498368Y-110787349D01*
X119502841Y-110846520D01*
X119512246Y-110884741D01*
X119528176Y-110911053D01*
X119536308Y-110919846D01*
X119583058Y-110953261D01*
X119628447Y-110951737D01*
X119674340Y-110922752D01*
X119701712Y-110891809D01*
X119717923Y-110846643D01*
X119727026Y-110775420D01*
X119727651Y-110767114D01*
X119729204Y-110638037D01*
X119712965Y-110542172D01*
X119679152Y-110480107D01*
X119627984Y-110452432D01*
X119609720Y-110450923D01*
X119561760Y-110458513D01*
X119528953Y-110484808D01*
X119508895Y-110535095D01*
X119499178Y-110614664D01*
X119497231Y-110698182D01*
X119301894Y-110698182D01*
X119302574Y-110604249D01*
X119305629Y-110533906D01*
X119312322Y-110485163D01*
X119323960Y-110449288D01*
X119341853Y-110417548D01*
X119345808Y-110411648D01*
X119412267Y-110332104D01*
X119484685Y-110285929D01*
X119572849Y-110267599D01*
X119602787Y-110266703D01*
X119714886Y-110283256D01*
G36*
X121969664Y-110291089D02*
G01*
X122032367Y-110327358D01*
X122075961Y-110363358D01*
X122107845Y-110401075D01*
X122129810Y-110447199D01*
X122143649Y-110508421D01*
X122151153Y-110591431D01*
X122154117Y-110702919D01*
X122154461Y-110783062D01*
X122154461Y-111078065D01*
X121988385Y-111152515D01*
X121978615Y-110829402D01*
X121974579Y-110708729D01*
X121970344Y-110621141D01*
X121965097Y-110560650D01*
X121958025Y-110521268D01*
X121948311Y-110497007D01*
X121935144Y-110481880D01*
X121930919Y-110478606D01*
X121866909Y-110453034D01*
X121802208Y-110463153D01*
X121763692Y-110490000D01*
X121748025Y-110509024D01*
X121737180Y-110533988D01*
X121730288Y-110571834D01*
X121726479Y-110629502D01*
X121724883Y-110713935D01*
X121724615Y-110801928D01*
X121724563Y-110912323D01*
X121722672Y-110990463D01*
X121716345Y-111043165D01*
X121702983Y-111077242D01*
X121679985Y-111099511D01*
X121644754Y-111116787D01*
X121597697Y-111134738D01*
X121546303Y-111154278D01*
X121552421Y-110807485D01*
X121554884Y-110682468D01*
X121557767Y-110590082D01*
X121561898Y-110523881D01*
X121568107Y-110477420D01*
X121577226Y-110444256D01*
X121590083Y-110417944D01*
X121605584Y-110394729D01*
X121680371Y-110320569D01*
X121771628Y-110277684D01*
X121870883Y-110267412D01*
X121969664Y-110291089D01*
X121969664Y-110291089D01*
G37*
X121969664Y-110291089D02*
X122032367Y-110327358D01*
X122075961Y-110363358D01*
X122107845Y-110401075D01*
X122129810Y-110447199D01*
X122143649Y-110508421D01*
X122151153Y-110591431D01*
X122154117Y-110702919D01*
X122154461Y-110783062D01*
X122154461Y-111078065D01*
X121988385Y-111152515D01*
X121978615Y-110829402D01*
X121974579Y-110708729D01*
X121970344Y-110621141D01*
X121965097Y-110560650D01*
X121958025Y-110521268D01*
X121948311Y-110497007D01*
X121935144Y-110481880D01*
X121930919Y-110478606D01*
X121866909Y-110453034D01*
X121802208Y-110463153D01*
X121763692Y-110490000D01*
X121748025Y-110509024D01*
X121737180Y-110533988D01*
X121730288Y-110571834D01*
X121726479Y-110629502D01*
X121724883Y-110713935D01*
X121724615Y-110801928D01*
X121724563Y-110912323D01*
X121722672Y-110990463D01*
X121716345Y-111043165D01*
X121702983Y-111077242D01*
X121679985Y-111099511D01*
X121644754Y-111116787D01*
X121597697Y-111134738D01*
X121546303Y-111154278D01*
X121552421Y-110807485D01*
X121554884Y-110682468D01*
X121557767Y-110590082D01*
X121561898Y-110523881D01*
X121568107Y-110477420D01*
X121577226Y-110444256D01*
X121590083Y-110417944D01*
X121605584Y-110394729D01*
X121680371Y-110320569D01*
X121771628Y-110277684D01*
X121870883Y-110267412D01*
X121969664Y-110291089D01*
G36*
X120466886Y-110280505D02*
G01*
X120541539Y-110317727D01*
X120607431Y-110386261D01*
X120625577Y-110411648D01*
X120645345Y-110444866D01*
X120658172Y-110480945D01*
X120665510Y-110529098D01*
X120668813Y-110598536D01*
X120669538Y-110690206D01*
X120666263Y-110815830D01*
X120654877Y-110910154D01*
X120633041Y-110980523D01*
X120598419Y-111034286D01*
X120548670Y-111078788D01*
X120545014Y-111081423D01*
X120495985Y-111108377D01*
X120436945Y-111121712D01*
X120361859Y-111125000D01*
X120239795Y-111125000D01*
X120239744Y-111243497D01*
X120238608Y-111309492D01*
X120231686Y-111348202D01*
X120213598Y-111371419D01*
X120178962Y-111390933D01*
X120170645Y-111394920D01*
X120131720Y-111413603D01*
X120101583Y-111425403D01*
X120079174Y-111426422D01*
X120063433Y-111412761D01*
X120053302Y-111380522D01*
X120047723Y-111325804D01*
X120045635Y-111244711D01*
X120045981Y-111133344D01*
X120047700Y-110987802D01*
X120048237Y-110944269D01*
X120050172Y-110794205D01*
X120051904Y-110696042D01*
X120239692Y-110696042D01*
X120240748Y-110779364D01*
X120245438Y-110833880D01*
X120256051Y-110869837D01*
X120274872Y-110897482D01*
X120287650Y-110910965D01*
X120339890Y-110950417D01*
X120386142Y-110953628D01*
X120433867Y-110921049D01*
X120435077Y-110919846D01*
X120454494Y-110894668D01*
X120466307Y-110860447D01*
X120472265Y-110807748D01*
X120474120Y-110727131D01*
X120474154Y-110709271D01*
X120469670Y-110598175D01*
X120455074Y-110521161D01*
X120428650Y-110474147D01*
X120388683Y-110453050D01*
X120365584Y-110450923D01*
X120310762Y-110460900D01*
X120273158Y-110493752D01*
X120250523Y-110553857D01*
X120240606Y-110645598D01*
X120239692Y-110696042D01*
X120051904Y-110696042D01*
X120052222Y-110678060D01*
X120054873Y-110590679D01*
X120058606Y-110526905D01*
X120063907Y-110481582D01*
X120071258Y-110449555D01*
X120081143Y-110425668D01*
X120094046Y-110404764D01*
X120099579Y-110396898D01*
X120172969Y-110322595D01*
X120265760Y-110280467D01*
X120373096Y-110268722D01*
X120466886Y-110280505D01*
X120466886Y-110280505D01*
G37*
X120466886Y-110280505D02*
X120541539Y-110317727D01*
X120607431Y-110386261D01*
X120625577Y-110411648D01*
X120645345Y-110444866D01*
X120658172Y-110480945D01*
X120665510Y-110529098D01*
X120668813Y-110598536D01*
X120669538Y-110690206D01*
X120666263Y-110815830D01*
X120654877Y-110910154D01*
X120633041Y-110980523D01*
X120598419Y-111034286D01*
X120548670Y-111078788D01*
X120545014Y-111081423D01*
X120495985Y-111108377D01*
X120436945Y-111121712D01*
X120361859Y-111125000D01*
X120239795Y-111125000D01*
X120239744Y-111243497D01*
X120238608Y-111309492D01*
X120231686Y-111348202D01*
X120213598Y-111371419D01*
X120178962Y-111390933D01*
X120170645Y-111394920D01*
X120131720Y-111413603D01*
X120101583Y-111425403D01*
X120079174Y-111426422D01*
X120063433Y-111412761D01*
X120053302Y-111380522D01*
X120047723Y-111325804D01*
X120045635Y-111244711D01*
X120045981Y-111133344D01*
X120047700Y-110987802D01*
X120048237Y-110944269D01*
X120050172Y-110794205D01*
X120051904Y-110696042D01*
X120239692Y-110696042D01*
X120240748Y-110779364D01*
X120245438Y-110833880D01*
X120256051Y-110869837D01*
X120274872Y-110897482D01*
X120287650Y-110910965D01*
X120339890Y-110950417D01*
X120386142Y-110953628D01*
X120433867Y-110921049D01*
X120435077Y-110919846D01*
X120454494Y-110894668D01*
X120466307Y-110860447D01*
X120472265Y-110807748D01*
X120474120Y-110727131D01*
X120474154Y-110709271D01*
X120469670Y-110598175D01*
X120455074Y-110521161D01*
X120428650Y-110474147D01*
X120388683Y-110453050D01*
X120365584Y-110450923D01*
X120310762Y-110460900D01*
X120273158Y-110493752D01*
X120250523Y-110553857D01*
X120240606Y-110645598D01*
X120239692Y-110696042D01*
X120051904Y-110696042D01*
X120052222Y-110678060D01*
X120054873Y-110590679D01*
X120058606Y-110526905D01*
X120063907Y-110481582D01*
X120071258Y-110449555D01*
X120081143Y-110425668D01*
X120094046Y-110404764D01*
X120099579Y-110396898D01*
X120172969Y-110322595D01*
X120265760Y-110280467D01*
X120373096Y-110268722D01*
X120466886Y-110280505D01*
D11*
G04 #@! TO.C,C1*
X110415000Y-94658922D02*
X110415000Y-95176078D01*
X111835000Y-94658922D02*
X111835000Y-95176078D01*
G04 #@! TO.C,C2*
X108660000Y-94658922D02*
X108660000Y-95176078D01*
X107240000Y-94658922D02*
X107240000Y-95176078D01*
G04 #@! TO.C,C3*
X109530000Y-64730000D02*
G75*
G03X109530000Y-64730000I-4120000J0D01*
G01*
X109490000Y-64730000D02*
X101330000Y-64730000D01*
X109490000Y-64770000D02*
X101330000Y-64770000D01*
X109490000Y-64810000D02*
X101330000Y-64810000D01*
X109489000Y-64850000D02*
X101331000Y-64850000D01*
X109487000Y-64890000D02*
X101333000Y-64890000D01*
X109486000Y-64930000D02*
X101334000Y-64930000D01*
X109484000Y-64970000D02*
X101336000Y-64970000D01*
X109481000Y-65010000D02*
X101339000Y-65010000D01*
X109478000Y-65050000D02*
X101342000Y-65050000D01*
X109475000Y-65090000D02*
X101345000Y-65090000D01*
X109471000Y-65130000D02*
X101349000Y-65130000D01*
X109467000Y-65170000D02*
X101353000Y-65170000D01*
X109462000Y-65210000D02*
X101358000Y-65210000D01*
X109458000Y-65250000D02*
X101362000Y-65250000D01*
X109452000Y-65290000D02*
X101368000Y-65290000D01*
X109447000Y-65330000D02*
X101373000Y-65330000D01*
X109440000Y-65370000D02*
X101380000Y-65370000D01*
X109434000Y-65410000D02*
X101386000Y-65410000D01*
X109427000Y-65451000D02*
X101393000Y-65451000D01*
X109420000Y-65491000D02*
X101400000Y-65491000D01*
X109412000Y-65531000D02*
X101408000Y-65531000D01*
X109404000Y-65571000D02*
X101416000Y-65571000D01*
X109395000Y-65611000D02*
X101425000Y-65611000D01*
X109386000Y-65651000D02*
X101434000Y-65651000D01*
X109377000Y-65691000D02*
X101443000Y-65691000D01*
X109367000Y-65731000D02*
X101453000Y-65731000D01*
X109357000Y-65771000D02*
X101463000Y-65771000D01*
X109346000Y-65811000D02*
X101474000Y-65811000D01*
X109335000Y-65851000D02*
X101485000Y-65851000D01*
X109324000Y-65891000D02*
X101496000Y-65891000D01*
X109312000Y-65931000D02*
X101508000Y-65931000D01*
X109299000Y-65971000D02*
X101521000Y-65971000D01*
X109287000Y-66011000D02*
X101533000Y-66011000D01*
X109273000Y-66051000D02*
X101547000Y-66051000D01*
X109260000Y-66091000D02*
X101560000Y-66091000D01*
X109245000Y-66131000D02*
X101575000Y-66131000D01*
X109231000Y-66171000D02*
X101589000Y-66171000D01*
X109215000Y-66211000D02*
X106450000Y-66211000D01*
X104370000Y-66211000D02*
X101605000Y-66211000D01*
X109200000Y-66251000D02*
X106450000Y-66251000D01*
X104370000Y-66251000D02*
X101620000Y-66251000D01*
X109184000Y-66291000D02*
X106450000Y-66291000D01*
X104370000Y-66291000D02*
X101636000Y-66291000D01*
X109167000Y-66331000D02*
X106450000Y-66331000D01*
X104370000Y-66331000D02*
X101653000Y-66331000D01*
X109150000Y-66371000D02*
X106450000Y-66371000D01*
X104370000Y-66371000D02*
X101670000Y-66371000D01*
X109132000Y-66411000D02*
X106450000Y-66411000D01*
X104370000Y-66411000D02*
X101688000Y-66411000D01*
X109114000Y-66451000D02*
X106450000Y-66451000D01*
X104370000Y-66451000D02*
X101706000Y-66451000D01*
X109096000Y-66491000D02*
X106450000Y-66491000D01*
X104370000Y-66491000D02*
X101724000Y-66491000D01*
X109076000Y-66531000D02*
X106450000Y-66531000D01*
X104370000Y-66531000D02*
X101744000Y-66531000D01*
X109057000Y-66571000D02*
X106450000Y-66571000D01*
X104370000Y-66571000D02*
X101763000Y-66571000D01*
X109037000Y-66611000D02*
X106450000Y-66611000D01*
X104370000Y-66611000D02*
X101783000Y-66611000D01*
X109016000Y-66651000D02*
X106450000Y-66651000D01*
X104370000Y-66651000D02*
X101804000Y-66651000D01*
X108994000Y-66691000D02*
X106450000Y-66691000D01*
X104370000Y-66691000D02*
X101826000Y-66691000D01*
X108972000Y-66731000D02*
X106450000Y-66731000D01*
X104370000Y-66731000D02*
X101848000Y-66731000D01*
X108950000Y-66771000D02*
X106450000Y-66771000D01*
X104370000Y-66771000D02*
X101870000Y-66771000D01*
X108927000Y-66811000D02*
X106450000Y-66811000D01*
X104370000Y-66811000D02*
X101893000Y-66811000D01*
X108903000Y-66851000D02*
X106450000Y-66851000D01*
X104370000Y-66851000D02*
X101917000Y-66851000D01*
X108879000Y-66891000D02*
X106450000Y-66891000D01*
X104370000Y-66891000D02*
X101941000Y-66891000D01*
X108854000Y-66931000D02*
X106450000Y-66931000D01*
X104370000Y-66931000D02*
X101966000Y-66931000D01*
X108828000Y-66971000D02*
X106450000Y-66971000D01*
X104370000Y-66971000D02*
X101992000Y-66971000D01*
X108802000Y-67011000D02*
X106450000Y-67011000D01*
X104370000Y-67011000D02*
X102018000Y-67011000D01*
X108775000Y-67051000D02*
X106450000Y-67051000D01*
X104370000Y-67051000D02*
X102045000Y-67051000D01*
X108748000Y-67091000D02*
X106450000Y-67091000D01*
X104370000Y-67091000D02*
X102072000Y-67091000D01*
X108719000Y-67131000D02*
X106450000Y-67131000D01*
X104370000Y-67131000D02*
X102101000Y-67131000D01*
X108690000Y-67171000D02*
X106450000Y-67171000D01*
X104370000Y-67171000D02*
X102130000Y-67171000D01*
X108660000Y-67211000D02*
X106450000Y-67211000D01*
X104370000Y-67211000D02*
X102160000Y-67211000D01*
X108630000Y-67251000D02*
X106450000Y-67251000D01*
X104370000Y-67251000D02*
X102190000Y-67251000D01*
X108599000Y-67291000D02*
X106450000Y-67291000D01*
X104370000Y-67291000D02*
X102221000Y-67291000D01*
X108566000Y-67331000D02*
X106450000Y-67331000D01*
X104370000Y-67331000D02*
X102254000Y-67331000D01*
X108534000Y-67371000D02*
X106450000Y-67371000D01*
X104370000Y-67371000D02*
X102286000Y-67371000D01*
X108500000Y-67411000D02*
X106450000Y-67411000D01*
X104370000Y-67411000D02*
X102320000Y-67411000D01*
X108465000Y-67451000D02*
X106450000Y-67451000D01*
X104370000Y-67451000D02*
X102355000Y-67451000D01*
X108429000Y-67491000D02*
X106450000Y-67491000D01*
X104370000Y-67491000D02*
X102391000Y-67491000D01*
X108393000Y-67531000D02*
X106450000Y-67531000D01*
X104370000Y-67531000D02*
X102427000Y-67531000D01*
X108355000Y-67571000D02*
X106450000Y-67571000D01*
X104370000Y-67571000D02*
X102465000Y-67571000D01*
X108317000Y-67611000D02*
X106450000Y-67611000D01*
X104370000Y-67611000D02*
X102503000Y-67611000D01*
X108277000Y-67651000D02*
X106450000Y-67651000D01*
X104370000Y-67651000D02*
X102543000Y-67651000D01*
X108236000Y-67691000D02*
X106450000Y-67691000D01*
X104370000Y-67691000D02*
X102584000Y-67691000D01*
X108194000Y-67731000D02*
X106450000Y-67731000D01*
X104370000Y-67731000D02*
X102626000Y-67731000D01*
X108151000Y-67771000D02*
X106450000Y-67771000D01*
X104370000Y-67771000D02*
X102669000Y-67771000D01*
X108107000Y-67811000D02*
X106450000Y-67811000D01*
X104370000Y-67811000D02*
X102713000Y-67811000D01*
X108061000Y-67851000D02*
X106450000Y-67851000D01*
X104370000Y-67851000D02*
X102759000Y-67851000D01*
X108014000Y-67891000D02*
X106450000Y-67891000D01*
X104370000Y-67891000D02*
X102806000Y-67891000D01*
X107966000Y-67931000D02*
X106450000Y-67931000D01*
X104370000Y-67931000D02*
X102854000Y-67931000D01*
X107915000Y-67971000D02*
X106450000Y-67971000D01*
X104370000Y-67971000D02*
X102905000Y-67971000D01*
X107864000Y-68011000D02*
X106450000Y-68011000D01*
X104370000Y-68011000D02*
X102956000Y-68011000D01*
X107810000Y-68051000D02*
X106450000Y-68051000D01*
X104370000Y-68051000D02*
X103010000Y-68051000D01*
X107755000Y-68091000D02*
X106450000Y-68091000D01*
X104370000Y-68091000D02*
X103065000Y-68091000D01*
X107697000Y-68131000D02*
X106450000Y-68131000D01*
X104370000Y-68131000D02*
X103123000Y-68131000D01*
X107638000Y-68171000D02*
X106450000Y-68171000D01*
X104370000Y-68171000D02*
X103182000Y-68171000D01*
X107576000Y-68211000D02*
X106450000Y-68211000D01*
X104370000Y-68211000D02*
X103244000Y-68211000D01*
X107512000Y-68251000D02*
X106450000Y-68251000D01*
X104370000Y-68251000D02*
X103308000Y-68251000D01*
X107444000Y-68291000D02*
X103376000Y-68291000D01*
X107374000Y-68331000D02*
X103446000Y-68331000D01*
X107300000Y-68371000D02*
X103520000Y-68371000D01*
X107223000Y-68411000D02*
X103597000Y-68411000D01*
X107141000Y-68451000D02*
X103679000Y-68451000D01*
X107055000Y-68491000D02*
X103765000Y-68491000D01*
X106962000Y-68531000D02*
X103858000Y-68531000D01*
X106863000Y-68571000D02*
X103957000Y-68571000D01*
X106756000Y-68611000D02*
X104064000Y-68611000D01*
X106639000Y-68651000D02*
X104181000Y-68651000D01*
X106508000Y-68691000D02*
X104312000Y-68691000D01*
X106358000Y-68731000D02*
X104462000Y-68731000D01*
X106178000Y-68771000D02*
X104642000Y-68771000D01*
X105943000Y-68811000D02*
X104877000Y-68811000D01*
X107725000Y-60320302D02*
X107725000Y-61120302D01*
X108125000Y-60720302D02*
X107325000Y-60720302D01*
G04 #@! TO.C,C4*
X117015000Y-60720302D02*
X116215000Y-60720302D01*
X116615000Y-60320302D02*
X116615000Y-61120302D01*
X114833000Y-68811000D02*
X113767000Y-68811000D01*
X115068000Y-68771000D02*
X113532000Y-68771000D01*
X115248000Y-68731000D02*
X113352000Y-68731000D01*
X115398000Y-68691000D02*
X113202000Y-68691000D01*
X115529000Y-68651000D02*
X113071000Y-68651000D01*
X115646000Y-68611000D02*
X112954000Y-68611000D01*
X115753000Y-68571000D02*
X112847000Y-68571000D01*
X115852000Y-68531000D02*
X112748000Y-68531000D01*
X115945000Y-68491000D02*
X112655000Y-68491000D01*
X116031000Y-68451000D02*
X112569000Y-68451000D01*
X116113000Y-68411000D02*
X112487000Y-68411000D01*
X116190000Y-68371000D02*
X112410000Y-68371000D01*
X116264000Y-68331000D02*
X112336000Y-68331000D01*
X116334000Y-68291000D02*
X112266000Y-68291000D01*
X113260000Y-68251000D02*
X112198000Y-68251000D01*
X116402000Y-68251000D02*
X115340000Y-68251000D01*
X113260000Y-68211000D02*
X112134000Y-68211000D01*
X116466000Y-68211000D02*
X115340000Y-68211000D01*
X113260000Y-68171000D02*
X112072000Y-68171000D01*
X116528000Y-68171000D02*
X115340000Y-68171000D01*
X113260000Y-68131000D02*
X112013000Y-68131000D01*
X116587000Y-68131000D02*
X115340000Y-68131000D01*
X113260000Y-68091000D02*
X111955000Y-68091000D01*
X116645000Y-68091000D02*
X115340000Y-68091000D01*
X113260000Y-68051000D02*
X111900000Y-68051000D01*
X116700000Y-68051000D02*
X115340000Y-68051000D01*
X113260000Y-68011000D02*
X111846000Y-68011000D01*
X116754000Y-68011000D02*
X115340000Y-68011000D01*
X113260000Y-67971000D02*
X111795000Y-67971000D01*
X116805000Y-67971000D02*
X115340000Y-67971000D01*
X113260000Y-67931000D02*
X111744000Y-67931000D01*
X116856000Y-67931000D02*
X115340000Y-67931000D01*
X113260000Y-67891000D02*
X111696000Y-67891000D01*
X116904000Y-67891000D02*
X115340000Y-67891000D01*
X113260000Y-67851000D02*
X111649000Y-67851000D01*
X116951000Y-67851000D02*
X115340000Y-67851000D01*
X113260000Y-67811000D02*
X111603000Y-67811000D01*
X116997000Y-67811000D02*
X115340000Y-67811000D01*
X113260000Y-67771000D02*
X111559000Y-67771000D01*
X117041000Y-67771000D02*
X115340000Y-67771000D01*
X113260000Y-67731000D02*
X111516000Y-67731000D01*
X117084000Y-67731000D02*
X115340000Y-67731000D01*
X113260000Y-67691000D02*
X111474000Y-67691000D01*
X117126000Y-67691000D02*
X115340000Y-67691000D01*
X113260000Y-67651000D02*
X111433000Y-67651000D01*
X117167000Y-67651000D02*
X115340000Y-67651000D01*
X113260000Y-67611000D02*
X111393000Y-67611000D01*
X117207000Y-67611000D02*
X115340000Y-67611000D01*
X113260000Y-67571000D02*
X111355000Y-67571000D01*
X117245000Y-67571000D02*
X115340000Y-67571000D01*
X113260000Y-67531000D02*
X111317000Y-67531000D01*
X117283000Y-67531000D02*
X115340000Y-67531000D01*
X113260000Y-67491000D02*
X111281000Y-67491000D01*
X117319000Y-67491000D02*
X115340000Y-67491000D01*
X113260000Y-67451000D02*
X111245000Y-67451000D01*
X117355000Y-67451000D02*
X115340000Y-67451000D01*
X113260000Y-67411000D02*
X111210000Y-67411000D01*
X117390000Y-67411000D02*
X115340000Y-67411000D01*
X113260000Y-67371000D02*
X111176000Y-67371000D01*
X117424000Y-67371000D02*
X115340000Y-67371000D01*
X113260000Y-67331000D02*
X111144000Y-67331000D01*
X117456000Y-67331000D02*
X115340000Y-67331000D01*
X113260000Y-67291000D02*
X111111000Y-67291000D01*
X117489000Y-67291000D02*
X115340000Y-67291000D01*
X113260000Y-67251000D02*
X111080000Y-67251000D01*
X117520000Y-67251000D02*
X115340000Y-67251000D01*
X113260000Y-67211000D02*
X111050000Y-67211000D01*
X117550000Y-67211000D02*
X115340000Y-67211000D01*
X113260000Y-67171000D02*
X111020000Y-67171000D01*
X117580000Y-67171000D02*
X115340000Y-67171000D01*
X113260000Y-67131000D02*
X110991000Y-67131000D01*
X117609000Y-67131000D02*
X115340000Y-67131000D01*
X113260000Y-67091000D02*
X110962000Y-67091000D01*
X117638000Y-67091000D02*
X115340000Y-67091000D01*
X113260000Y-67051000D02*
X110935000Y-67051000D01*
X117665000Y-67051000D02*
X115340000Y-67051000D01*
X113260000Y-67011000D02*
X110908000Y-67011000D01*
X117692000Y-67011000D02*
X115340000Y-67011000D01*
X113260000Y-66971000D02*
X110882000Y-66971000D01*
X117718000Y-66971000D02*
X115340000Y-66971000D01*
X113260000Y-66931000D02*
X110856000Y-66931000D01*
X117744000Y-66931000D02*
X115340000Y-66931000D01*
X113260000Y-66891000D02*
X110831000Y-66891000D01*
X117769000Y-66891000D02*
X115340000Y-66891000D01*
X113260000Y-66851000D02*
X110807000Y-66851000D01*
X117793000Y-66851000D02*
X115340000Y-66851000D01*
X113260000Y-66811000D02*
X110783000Y-66811000D01*
X117817000Y-66811000D02*
X115340000Y-66811000D01*
X113260000Y-66771000D02*
X110760000Y-66771000D01*
X117840000Y-66771000D02*
X115340000Y-66771000D01*
X113260000Y-66731000D02*
X110738000Y-66731000D01*
X117862000Y-66731000D02*
X115340000Y-66731000D01*
X113260000Y-66691000D02*
X110716000Y-66691000D01*
X117884000Y-66691000D02*
X115340000Y-66691000D01*
X113260000Y-66651000D02*
X110694000Y-66651000D01*
X117906000Y-66651000D02*
X115340000Y-66651000D01*
X113260000Y-66611000D02*
X110673000Y-66611000D01*
X117927000Y-66611000D02*
X115340000Y-66611000D01*
X113260000Y-66571000D02*
X110653000Y-66571000D01*
X117947000Y-66571000D02*
X115340000Y-66571000D01*
X113260000Y-66531000D02*
X110634000Y-66531000D01*
X117966000Y-66531000D02*
X115340000Y-66531000D01*
X113260000Y-66491000D02*
X110614000Y-66491000D01*
X117986000Y-66491000D02*
X115340000Y-66491000D01*
X113260000Y-66451000D02*
X110596000Y-66451000D01*
X118004000Y-66451000D02*
X115340000Y-66451000D01*
X113260000Y-66411000D02*
X110578000Y-66411000D01*
X118022000Y-66411000D02*
X115340000Y-66411000D01*
X113260000Y-66371000D02*
X110560000Y-66371000D01*
X118040000Y-66371000D02*
X115340000Y-66371000D01*
X113260000Y-66331000D02*
X110543000Y-66331000D01*
X118057000Y-66331000D02*
X115340000Y-66331000D01*
X113260000Y-66291000D02*
X110526000Y-66291000D01*
X118074000Y-66291000D02*
X115340000Y-66291000D01*
X113260000Y-66251000D02*
X110510000Y-66251000D01*
X118090000Y-66251000D02*
X115340000Y-66251000D01*
X113260000Y-66211000D02*
X110495000Y-66211000D01*
X118105000Y-66211000D02*
X115340000Y-66211000D01*
X118121000Y-66171000D02*
X110479000Y-66171000D01*
X118135000Y-66131000D02*
X110465000Y-66131000D01*
X118150000Y-66091000D02*
X110450000Y-66091000D01*
X118163000Y-66051000D02*
X110437000Y-66051000D01*
X118177000Y-66011000D02*
X110423000Y-66011000D01*
X118189000Y-65971000D02*
X110411000Y-65971000D01*
X118202000Y-65931000D02*
X110398000Y-65931000D01*
X118214000Y-65891000D02*
X110386000Y-65891000D01*
X118225000Y-65851000D02*
X110375000Y-65851000D01*
X118236000Y-65811000D02*
X110364000Y-65811000D01*
X118247000Y-65771000D02*
X110353000Y-65771000D01*
X118257000Y-65731000D02*
X110343000Y-65731000D01*
X118267000Y-65691000D02*
X110333000Y-65691000D01*
X118276000Y-65651000D02*
X110324000Y-65651000D01*
X118285000Y-65611000D02*
X110315000Y-65611000D01*
X118294000Y-65571000D02*
X110306000Y-65571000D01*
X118302000Y-65531000D02*
X110298000Y-65531000D01*
X118310000Y-65491000D02*
X110290000Y-65491000D01*
X118317000Y-65451000D02*
X110283000Y-65451000D01*
X118324000Y-65410000D02*
X110276000Y-65410000D01*
X118330000Y-65370000D02*
X110270000Y-65370000D01*
X118337000Y-65330000D02*
X110263000Y-65330000D01*
X118342000Y-65290000D02*
X110258000Y-65290000D01*
X118348000Y-65250000D02*
X110252000Y-65250000D01*
X118352000Y-65210000D02*
X110248000Y-65210000D01*
X118357000Y-65170000D02*
X110243000Y-65170000D01*
X118361000Y-65130000D02*
X110239000Y-65130000D01*
X118365000Y-65090000D02*
X110235000Y-65090000D01*
X118368000Y-65050000D02*
X110232000Y-65050000D01*
X118371000Y-65010000D02*
X110229000Y-65010000D01*
X118374000Y-64970000D02*
X110226000Y-64970000D01*
X118376000Y-64930000D02*
X110224000Y-64930000D01*
X118377000Y-64890000D02*
X110223000Y-64890000D01*
X118379000Y-64850000D02*
X110221000Y-64850000D01*
X118380000Y-64810000D02*
X110220000Y-64810000D01*
X118380000Y-64770000D02*
X110220000Y-64770000D01*
X118380000Y-64730000D02*
X110220000Y-64730000D01*
X118420000Y-64730000D02*
G75*
G03X118420000Y-64730000I-4120000J0D01*
G01*
G04 #@! TO.C,C5*
X117400000Y-57741078D02*
X117400000Y-57223922D01*
X118820000Y-57741078D02*
X118820000Y-57223922D01*
G04 #@! TO.C,C6*
X118820000Y-53266078D02*
X118820000Y-52748922D01*
X117400000Y-53266078D02*
X117400000Y-52748922D01*
G04 #@! TO.C,D1*
X131155000Y-55055000D02*
X131155000Y-55211000D01*
X131155000Y-52739000D02*
X131155000Y-52895000D01*
X133756130Y-55054837D02*
G75*
G02X131674039Y-55055000I-1041130J1079837D01*
G01*
X133756130Y-52895163D02*
G75*
G03X131674039Y-52895000I-1041130J-1079837D01*
G01*
X134387335Y-55053608D02*
G75*
G02X131155000Y-55210516I-1672335J1078608D01*
G01*
X134387335Y-52896392D02*
G75*
G03X131155000Y-52739484I-1672335J-1078608D01*
G01*
G04 #@! TO.C,D2*
X139467335Y-77661392D02*
G75*
G03X136235000Y-77504484I-1672335J-1078608D01*
G01*
X139467335Y-79818608D02*
G75*
G02X136235000Y-79975516I-1672335J1078608D01*
G01*
X138836130Y-77660163D02*
G75*
G03X136754039Y-77660000I-1041130J-1079837D01*
G01*
X138836130Y-79819837D02*
G75*
G02X136754039Y-79820000I-1041130J1079837D01*
G01*
X136235000Y-77504000D02*
X136235000Y-77660000D01*
X136235000Y-79820000D02*
X136235000Y-79976000D01*
G04 #@! TO.C,J2*
X146110000Y-52645000D02*
X143450000Y-52645000D01*
X146110000Y-55245000D02*
X146110000Y-52645000D01*
X143450000Y-55245000D02*
X143450000Y-52645000D01*
X146110000Y-55245000D02*
X143450000Y-55245000D01*
X146110000Y-56515000D02*
X146110000Y-57845000D01*
X146110000Y-57845000D02*
X144780000Y-57845000D01*
G04 #@! TO.C,J3*
X110490000Y-122615000D02*
X110490000Y-119955000D01*
X110490000Y-122615000D02*
X125790000Y-122615000D01*
X125790000Y-122615000D02*
X125790000Y-119955000D01*
X110490000Y-119955000D02*
X125790000Y-119955000D01*
X107890000Y-119955000D02*
X109220000Y-119955000D01*
X107890000Y-121285000D02*
X107890000Y-119955000D01*
G04 #@! TO.C,J4*
X96580000Y-105410000D02*
X93920000Y-105410000D01*
X96580000Y-105410000D02*
X96580000Y-67250000D01*
X96580000Y-67250000D02*
X93920000Y-67250000D01*
X93920000Y-105410000D02*
X93920000Y-67250000D01*
X93920000Y-108010000D02*
X93920000Y-106680000D01*
X95250000Y-108010000D02*
X93920000Y-108010000D01*
G04 #@! TO.C,J5*
X104200000Y-118050000D02*
X104200000Y-120650000D01*
X104200000Y-118050000D02*
X93920000Y-118050000D01*
X93920000Y-118050000D02*
X93920000Y-123250000D01*
X101600000Y-123250000D02*
X93920000Y-123250000D01*
X101600000Y-120650000D02*
X101600000Y-123250000D01*
X104200000Y-120650000D02*
X101600000Y-120650000D01*
X104200000Y-123250000D02*
X102870000Y-123250000D01*
X104200000Y-121920000D02*
X104200000Y-123250000D01*
G04 #@! TO.C,J6*
X156380000Y-60900000D02*
X156380000Y-71180000D01*
X156380000Y-71180000D02*
X159040000Y-71180000D01*
X159040000Y-71180000D02*
X159040000Y-60900000D01*
X159040000Y-60900000D02*
X156380000Y-60900000D01*
X159040000Y-61850000D02*
X165040000Y-61850000D01*
X165040000Y-61850000D02*
X165040000Y-62610000D01*
X165040000Y-62610000D02*
X159040000Y-62610000D01*
X159040000Y-61910000D02*
X165040000Y-61910000D01*
X159040000Y-62030000D02*
X165040000Y-62030000D01*
X159040000Y-62150000D02*
X165040000Y-62150000D01*
X159040000Y-62270000D02*
X165040000Y-62270000D01*
X159040000Y-62390000D02*
X165040000Y-62390000D01*
X159040000Y-62510000D02*
X165040000Y-62510000D01*
X155982929Y-61850000D02*
X156380000Y-61850000D01*
X155982929Y-62610000D02*
X156380000Y-62610000D01*
X153510000Y-61850000D02*
X153897071Y-61850000D01*
X153510000Y-62610000D02*
X153897071Y-62610000D01*
X156380000Y-63500000D02*
X159040000Y-63500000D01*
X159040000Y-64390000D02*
X165040000Y-64390000D01*
X165040000Y-64390000D02*
X165040000Y-65150000D01*
X165040000Y-65150000D02*
X159040000Y-65150000D01*
X155982929Y-64390000D02*
X156380000Y-64390000D01*
X155982929Y-65150000D02*
X156380000Y-65150000D01*
X153442929Y-64390000D02*
X153897071Y-64390000D01*
X153442929Y-65150000D02*
X153897071Y-65150000D01*
X156380000Y-66040000D02*
X159040000Y-66040000D01*
X159040000Y-66930000D02*
X165040000Y-66930000D01*
X165040000Y-66930000D02*
X165040000Y-67690000D01*
X165040000Y-67690000D02*
X159040000Y-67690000D01*
X155982929Y-66930000D02*
X156380000Y-66930000D01*
X155982929Y-67690000D02*
X156380000Y-67690000D01*
X153442929Y-66930000D02*
X153897071Y-66930000D01*
X153442929Y-67690000D02*
X153897071Y-67690000D01*
X156380000Y-68580000D02*
X159040000Y-68580000D01*
X159040000Y-69470000D02*
X165040000Y-69470000D01*
X165040000Y-69470000D02*
X165040000Y-70230000D01*
X165040000Y-70230000D02*
X159040000Y-70230000D01*
X155982929Y-69470000D02*
X156380000Y-69470000D01*
X155982929Y-70230000D02*
X156380000Y-70230000D01*
X153442929Y-69470000D02*
X153897071Y-69470000D01*
X153442929Y-70230000D02*
X153897071Y-70230000D01*
X151130000Y-62230000D02*
X151130000Y-60960000D01*
X151130000Y-60960000D02*
X152400000Y-60960000D01*
G04 #@! TO.C,J7*
X156380000Y-88840000D02*
X156380000Y-99120000D01*
X156380000Y-99120000D02*
X159040000Y-99120000D01*
X159040000Y-99120000D02*
X159040000Y-88840000D01*
X159040000Y-88840000D02*
X156380000Y-88840000D01*
X159040000Y-89790000D02*
X165040000Y-89790000D01*
X165040000Y-89790000D02*
X165040000Y-90550000D01*
X165040000Y-90550000D02*
X159040000Y-90550000D01*
X159040000Y-89850000D02*
X165040000Y-89850000D01*
X159040000Y-89970000D02*
X165040000Y-89970000D01*
X159040000Y-90090000D02*
X165040000Y-90090000D01*
X159040000Y-90210000D02*
X165040000Y-90210000D01*
X159040000Y-90330000D02*
X165040000Y-90330000D01*
X159040000Y-90450000D02*
X165040000Y-90450000D01*
X155982929Y-89790000D02*
X156380000Y-89790000D01*
X155982929Y-90550000D02*
X156380000Y-90550000D01*
X153510000Y-89790000D02*
X153897071Y-89790000D01*
X153510000Y-90550000D02*
X153897071Y-90550000D01*
X156380000Y-91440000D02*
X159040000Y-91440000D01*
X159040000Y-92330000D02*
X165040000Y-92330000D01*
X165040000Y-92330000D02*
X165040000Y-93090000D01*
X165040000Y-93090000D02*
X159040000Y-93090000D01*
X155982929Y-92330000D02*
X156380000Y-92330000D01*
X155982929Y-93090000D02*
X156380000Y-93090000D01*
X153442929Y-92330000D02*
X153897071Y-92330000D01*
X153442929Y-93090000D02*
X153897071Y-93090000D01*
X156380000Y-93980000D02*
X159040000Y-93980000D01*
X159040000Y-94870000D02*
X165040000Y-94870000D01*
X165040000Y-94870000D02*
X165040000Y-95630000D01*
X165040000Y-95630000D02*
X159040000Y-95630000D01*
X155982929Y-94870000D02*
X156380000Y-94870000D01*
X155982929Y-95630000D02*
X156380000Y-95630000D01*
X153442929Y-94870000D02*
X153897071Y-94870000D01*
X153442929Y-95630000D02*
X153897071Y-95630000D01*
X156380000Y-96520000D02*
X159040000Y-96520000D01*
X159040000Y-97410000D02*
X165040000Y-97410000D01*
X165040000Y-97410000D02*
X165040000Y-98170000D01*
X165040000Y-98170000D02*
X159040000Y-98170000D01*
X155982929Y-97410000D02*
X156380000Y-97410000D01*
X155982929Y-98170000D02*
X156380000Y-98170000D01*
X153442929Y-97410000D02*
X153897071Y-97410000D01*
X153442929Y-98170000D02*
X153897071Y-98170000D01*
X151130000Y-90170000D02*
X151130000Y-88900000D01*
X151130000Y-88900000D02*
X152400000Y-88900000D01*
G04 #@! TO.C,J9*
X151130000Y-74930000D02*
X152400000Y-74930000D01*
X151130000Y-76200000D02*
X151130000Y-74930000D01*
X153442929Y-84200000D02*
X153897071Y-84200000D01*
X153442929Y-83440000D02*
X153897071Y-83440000D01*
X155982929Y-84200000D02*
X156380000Y-84200000D01*
X155982929Y-83440000D02*
X156380000Y-83440000D01*
X165040000Y-84200000D02*
X159040000Y-84200000D01*
X165040000Y-83440000D02*
X165040000Y-84200000D01*
X159040000Y-83440000D02*
X165040000Y-83440000D01*
X156380000Y-82550000D02*
X159040000Y-82550000D01*
X153442929Y-81660000D02*
X153897071Y-81660000D01*
X153442929Y-80900000D02*
X153897071Y-80900000D01*
X155982929Y-81660000D02*
X156380000Y-81660000D01*
X155982929Y-80900000D02*
X156380000Y-80900000D01*
X165040000Y-81660000D02*
X159040000Y-81660000D01*
X165040000Y-80900000D02*
X165040000Y-81660000D01*
X159040000Y-80900000D02*
X165040000Y-80900000D01*
X156380000Y-80010000D02*
X159040000Y-80010000D01*
X153442929Y-79120000D02*
X153897071Y-79120000D01*
X153442929Y-78360000D02*
X153897071Y-78360000D01*
X155982929Y-79120000D02*
X156380000Y-79120000D01*
X155982929Y-78360000D02*
X156380000Y-78360000D01*
X165040000Y-79120000D02*
X159040000Y-79120000D01*
X165040000Y-78360000D02*
X165040000Y-79120000D01*
X159040000Y-78360000D02*
X165040000Y-78360000D01*
X156380000Y-77470000D02*
X159040000Y-77470000D01*
X153510000Y-76580000D02*
X153897071Y-76580000D01*
X153510000Y-75820000D02*
X153897071Y-75820000D01*
X155982929Y-76580000D02*
X156380000Y-76580000D01*
X155982929Y-75820000D02*
X156380000Y-75820000D01*
X159040000Y-76480000D02*
X165040000Y-76480000D01*
X159040000Y-76360000D02*
X165040000Y-76360000D01*
X159040000Y-76240000D02*
X165040000Y-76240000D01*
X159040000Y-76120000D02*
X165040000Y-76120000D01*
X159040000Y-76000000D02*
X165040000Y-76000000D01*
X159040000Y-75880000D02*
X165040000Y-75880000D01*
X165040000Y-76580000D02*
X159040000Y-76580000D01*
X165040000Y-75820000D02*
X165040000Y-76580000D01*
X159040000Y-75820000D02*
X165040000Y-75820000D01*
X159040000Y-74870000D02*
X156380000Y-74870000D01*
X159040000Y-85150000D02*
X159040000Y-74870000D01*
X156380000Y-85150000D02*
X159040000Y-85150000D01*
X156380000Y-74870000D02*
X156380000Y-85150000D01*
G04 #@! TO.C,J10*
X140395000Y-51375000D02*
X137735000Y-51375000D01*
X140395000Y-56515000D02*
X140395000Y-51375000D01*
X137735000Y-56515000D02*
X137735000Y-51375000D01*
X140395000Y-56515000D02*
X137735000Y-56515000D01*
X140395000Y-57785000D02*
X140395000Y-59115000D01*
X140395000Y-59115000D02*
X139065000Y-59115000D01*
G04 #@! TO.C,J11*
X151130000Y-102870000D02*
X152400000Y-102870000D01*
X151130000Y-104140000D02*
X151130000Y-102870000D01*
X153442929Y-112140000D02*
X153897071Y-112140000D01*
X153442929Y-111380000D02*
X153897071Y-111380000D01*
X155982929Y-112140000D02*
X156380000Y-112140000D01*
X155982929Y-111380000D02*
X156380000Y-111380000D01*
X165040000Y-112140000D02*
X159040000Y-112140000D01*
X165040000Y-111380000D02*
X165040000Y-112140000D01*
X159040000Y-111380000D02*
X165040000Y-111380000D01*
X156380000Y-110490000D02*
X159040000Y-110490000D01*
X153442929Y-109600000D02*
X153897071Y-109600000D01*
X153442929Y-108840000D02*
X153897071Y-108840000D01*
X155982929Y-109600000D02*
X156380000Y-109600000D01*
X155982929Y-108840000D02*
X156380000Y-108840000D01*
X165040000Y-109600000D02*
X159040000Y-109600000D01*
X165040000Y-108840000D02*
X165040000Y-109600000D01*
X159040000Y-108840000D02*
X165040000Y-108840000D01*
X156380000Y-107950000D02*
X159040000Y-107950000D01*
X153442929Y-107060000D02*
X153897071Y-107060000D01*
X153442929Y-106300000D02*
X153897071Y-106300000D01*
X155982929Y-107060000D02*
X156380000Y-107060000D01*
X155982929Y-106300000D02*
X156380000Y-106300000D01*
X165040000Y-107060000D02*
X159040000Y-107060000D01*
X165040000Y-106300000D02*
X165040000Y-107060000D01*
X159040000Y-106300000D02*
X165040000Y-106300000D01*
X156380000Y-105410000D02*
X159040000Y-105410000D01*
X153510000Y-104520000D02*
X153897071Y-104520000D01*
X153510000Y-103760000D02*
X153897071Y-103760000D01*
X155982929Y-104520000D02*
X156380000Y-104520000D01*
X155982929Y-103760000D02*
X156380000Y-103760000D01*
X159040000Y-104420000D02*
X165040000Y-104420000D01*
X159040000Y-104300000D02*
X165040000Y-104300000D01*
X159040000Y-104180000D02*
X165040000Y-104180000D01*
X159040000Y-104060000D02*
X165040000Y-104060000D01*
X159040000Y-103940000D02*
X165040000Y-103940000D01*
X159040000Y-103820000D02*
X165040000Y-103820000D01*
X165040000Y-104520000D02*
X159040000Y-104520000D01*
X165040000Y-103760000D02*
X165040000Y-104520000D01*
X159040000Y-103760000D02*
X165040000Y-103760000D01*
X159040000Y-102810000D02*
X156380000Y-102810000D01*
X159040000Y-113090000D02*
X159040000Y-102810000D01*
X156380000Y-113090000D02*
X159040000Y-113090000D01*
X156380000Y-102810000D02*
X156380000Y-113090000D01*
G04 #@! TO.C,R1*
X114395000Y-115340000D02*
X114395000Y-115670000D01*
X114395000Y-115670000D02*
X107855000Y-115670000D01*
X107855000Y-115670000D02*
X107855000Y-115340000D01*
X114395000Y-113260000D02*
X114395000Y-112930000D01*
X114395000Y-112930000D02*
X107855000Y-112930000D01*
X107855000Y-112930000D02*
X107855000Y-113260000D01*
G04 #@! TO.C,R2*
X97060000Y-112930000D02*
X97060000Y-113260000D01*
X103600000Y-112930000D02*
X97060000Y-112930000D01*
X103600000Y-113260000D02*
X103600000Y-112930000D01*
X97060000Y-115670000D02*
X97060000Y-115340000D01*
X103600000Y-115670000D02*
X97060000Y-115670000D01*
X103600000Y-115340000D02*
X103600000Y-115670000D01*
G04 #@! TO.C,R3*
X132456422Y-59384000D02*
X132973578Y-59384000D01*
X132456422Y-57964000D02*
X132973578Y-57964000D01*
G04 #@! TO.C,R4*
X136901422Y-82475000D02*
X137418578Y-82475000D01*
X136901422Y-83895000D02*
X137418578Y-83895000D01*
D16*
G04 #@! TO.C,U1*
X105390000Y-52050000D02*
X115490000Y-52050000D01*
X115590000Y-55740000D02*
X115590000Y-55340000D01*
X115590000Y-55740000D02*
X115190000Y-55740000D01*
X105390000Y-55740000D02*
X105390000Y-51340000D01*
X105390000Y-55740000D02*
X105790000Y-55740000D01*
X105390000Y-50940000D02*
X105390000Y-51340000D01*
X105390000Y-50940000D02*
X105790000Y-50940000D01*
X115190000Y-50940000D02*
X115590000Y-50940000D01*
X115590000Y-50940000D02*
X115590000Y-51340000D01*
D10*
G04 #@! TO.C,U2*
X118015000Y-79915000D02*
X118015000Y-80490000D01*
X128365000Y-79915000D02*
X128365000Y-80590000D01*
X128365000Y-90265000D02*
X128365000Y-89590000D01*
X118015000Y-90265000D02*
X118015000Y-89590000D01*
X118015000Y-79915000D02*
X118690000Y-79915000D01*
X118015000Y-90265000D02*
X118690000Y-90265000D01*
X128365000Y-90265000D02*
X127690000Y-90265000D01*
X128365000Y-79915000D02*
X127690000Y-79915000D01*
X118015000Y-80490000D02*
X116740000Y-80490000D01*
D16*
G04 #@! TO.C,U3*
X121185000Y-56195000D02*
X121185000Y-56670000D01*
X121185000Y-56670000D02*
X121485000Y-56995000D01*
X121485000Y-56995000D02*
X121485000Y-57190000D01*
X127735000Y-56520000D02*
X127735000Y-56995000D01*
X127735000Y-56995000D02*
X127285000Y-56995000D01*
X121685000Y-53445000D02*
X121185000Y-53445000D01*
X121185000Y-53445000D02*
X121185000Y-53845000D01*
X127360000Y-53445000D02*
X127735000Y-53445000D01*
X127735000Y-53445000D02*
X127735000Y-53745000D01*
D11*
G04 #@! TO.C,Y1*
X106695000Y-89585000D02*
X106695000Y-83335000D01*
X111745000Y-89585000D02*
X111745000Y-83335000D01*
X111745000Y-89585000D02*
G75*
G02X106695000Y-89585000I-2525000J0D01*
G01*
X111745000Y-83335000D02*
G75*
G03X106695000Y-83335000I-2525000J0D01*
G01*
G04 #@! TO.C,J1*
X101430000Y-49590000D02*
X101430000Y-48540000D01*
X100380000Y-48540000D02*
X101430000Y-48540000D01*
X95330000Y-57940000D02*
X86530000Y-57940000D01*
X86530000Y-57940000D02*
X86530000Y-48740000D01*
X101230000Y-55240000D02*
X101230000Y-57940000D01*
X101230000Y-57940000D02*
X99330000Y-57940000D01*
X86530000Y-48740000D02*
X101230000Y-48740000D01*
X101230000Y-48740000D02*
X101230000Y-51340000D01*
G04 #@! TO.C,J8*
X138430000Y-113030000D02*
X137160000Y-113030000D01*
X138430000Y-114300000D02*
X138430000Y-113030000D01*
X142510000Y-127780000D02*
X126730000Y-127780000D01*
X142510000Y-118430000D02*
X142510000Y-127780000D01*
X136870000Y-118430000D02*
X136870000Y-127780000D01*
X126730000Y-118430000D02*
X126730000Y-127780000D01*
X126730000Y-118430000D02*
X142510000Y-118430000D01*
X132370000Y-118430000D02*
X132370000Y-127780000D01*
G04 #@! TO.C,RV1*
X103521863Y-107450075D02*
G75*
G02X101980000Y-107094000I-56863J3270075D01*
G01*
X100551613Y-105665202D02*
G75*
G02X100551000Y-102696000I2913387J1485202D01*
G01*
X101981032Y-101266171D02*
G75*
G02X106557000Y-103116000I1483968J-2913829D01*
G01*
X106556846Y-105244608D02*
G75*
G02X103465000Y-107450000I-3091846J1064608D01*
G01*
G04 #@! TO.C,RV2*
X128781846Y-68414608D02*
G75*
G02X125690000Y-70620000I-3091846J1064608D01*
G01*
X124206032Y-64436171D02*
G75*
G02X128782000Y-66286000I1483968J-2913829D01*
G01*
X122776613Y-68835202D02*
G75*
G02X122776000Y-65866000I2913387J1485202D01*
G01*
X125746863Y-70620075D02*
G75*
G02X124205000Y-70264000I-56863J3270075D01*
G01*
G04 #@! TO.C,SW1*
X151495000Y-57570000D02*
X155995000Y-57570000D01*
X150245000Y-53570000D02*
X150245000Y-55070000D01*
X155995000Y-51070000D02*
X151495000Y-51070000D01*
X157245000Y-55070000D02*
X157245000Y-53570000D01*
G04 #@! TO.C,J12*
X152340000Y-120650000D02*
X155000000Y-120650000D01*
X152340000Y-120650000D02*
X152340000Y-125790000D01*
X152340000Y-125790000D02*
X155000000Y-125790000D01*
X155000000Y-120650000D02*
X155000000Y-125790000D01*
X155000000Y-118050000D02*
X155000000Y-119380000D01*
X153670000Y-118050000D02*
X155000000Y-118050000D01*
G04 #@! TO.C,J13*
X149225000Y-116780000D02*
X150555000Y-116780000D01*
X150555000Y-116780000D02*
X150555000Y-118110000D01*
X147955000Y-116780000D02*
X147955000Y-119380000D01*
X147955000Y-119380000D02*
X150555000Y-119380000D01*
X150555000Y-119380000D02*
X150555000Y-127060000D01*
X145355000Y-127060000D02*
X150555000Y-127060000D01*
X145355000Y-116780000D02*
X145355000Y-127060000D01*
X145355000Y-116780000D02*
X147955000Y-116780000D01*
G04 #@! TD*
G04 #@! TO.C,C1*
D10*
X113132142Y-95084166D02*
X113179761Y-95131785D01*
X113227380Y-95274642D01*
X113227380Y-95369880D01*
X113179761Y-95512738D01*
X113084523Y-95607976D01*
X112989285Y-95655595D01*
X112798809Y-95703214D01*
X112655952Y-95703214D01*
X112465476Y-95655595D01*
X112370238Y-95607976D01*
X112275000Y-95512738D01*
X112227380Y-95369880D01*
X112227380Y-95274642D01*
X112275000Y-95131785D01*
X112322619Y-95084166D01*
X113227380Y-94131785D02*
X113227380Y-94703214D01*
X113227380Y-94417500D02*
X112227380Y-94417500D01*
X112370238Y-94512738D01*
X112465476Y-94607976D01*
X112513095Y-94703214D01*
G04 #@! TO.C,C2*
X106402142Y-95416666D02*
X106449761Y-95464285D01*
X106497380Y-95607142D01*
X106497380Y-95702380D01*
X106449761Y-95845238D01*
X106354523Y-95940476D01*
X106259285Y-95988095D01*
X106068809Y-96035714D01*
X105925952Y-96035714D01*
X105735476Y-95988095D01*
X105640238Y-95940476D01*
X105545000Y-95845238D01*
X105497380Y-95702380D01*
X105497380Y-95607142D01*
X105545000Y-95464285D01*
X105592619Y-95416666D01*
X105592619Y-95035714D02*
X105545000Y-94988095D01*
X105497380Y-94892857D01*
X105497380Y-94654761D01*
X105545000Y-94559523D01*
X105592619Y-94511904D01*
X105687857Y-94464285D01*
X105783095Y-94464285D01*
X105925952Y-94511904D01*
X106497380Y-95083333D01*
X106497380Y-94464285D01*
G04 #@! TO.C,C3*
X105243333Y-70207142D02*
X105195714Y-70254761D01*
X105052857Y-70302380D01*
X104957619Y-70302380D01*
X104814761Y-70254761D01*
X104719523Y-70159523D01*
X104671904Y-70064285D01*
X104624285Y-69873809D01*
X104624285Y-69730952D01*
X104671904Y-69540476D01*
X104719523Y-69445238D01*
X104814761Y-69350000D01*
X104957619Y-69302380D01*
X105052857Y-69302380D01*
X105195714Y-69350000D01*
X105243333Y-69397619D01*
X105576666Y-69302380D02*
X106195714Y-69302380D01*
X105862380Y-69683333D01*
X106005238Y-69683333D01*
X106100476Y-69730952D01*
X106148095Y-69778571D01*
X106195714Y-69873809D01*
X106195714Y-70111904D01*
X106148095Y-70207142D01*
X106100476Y-70254761D01*
X106005238Y-70302380D01*
X105719523Y-70302380D01*
X105624285Y-70254761D01*
X105576666Y-70207142D01*
G04 #@! TO.C,C4*
X114133333Y-71477142D02*
X114085714Y-71524761D01*
X113942857Y-71572380D01*
X113847619Y-71572380D01*
X113704761Y-71524761D01*
X113609523Y-71429523D01*
X113561904Y-71334285D01*
X113514285Y-71143809D01*
X113514285Y-71000952D01*
X113561904Y-70810476D01*
X113609523Y-70715238D01*
X113704761Y-70620000D01*
X113847619Y-70572380D01*
X113942857Y-70572380D01*
X114085714Y-70620000D01*
X114133333Y-70667619D01*
X114990476Y-70905714D02*
X114990476Y-71572380D01*
X114752380Y-70524761D02*
X114514285Y-71239047D01*
X115133333Y-71239047D01*
G04 #@! TO.C,C5*
X116817142Y-57649166D02*
X116864761Y-57696785D01*
X116912380Y-57839642D01*
X116912380Y-57934880D01*
X116864761Y-58077738D01*
X116769523Y-58172976D01*
X116674285Y-58220595D01*
X116483809Y-58268214D01*
X116340952Y-58268214D01*
X116150476Y-58220595D01*
X116055238Y-58172976D01*
X115960000Y-58077738D01*
X115912380Y-57934880D01*
X115912380Y-57839642D01*
X115960000Y-57696785D01*
X116007619Y-57649166D01*
X115912380Y-56744404D02*
X115912380Y-57220595D01*
X116388571Y-57268214D01*
X116340952Y-57220595D01*
X116293333Y-57125357D01*
X116293333Y-56887261D01*
X116340952Y-56792023D01*
X116388571Y-56744404D01*
X116483809Y-56696785D01*
X116721904Y-56696785D01*
X116817142Y-56744404D01*
X116864761Y-56792023D01*
X116912380Y-56887261D01*
X116912380Y-57125357D01*
X116864761Y-57220595D01*
X116817142Y-57268214D01*
G04 #@! TO.C,C6*
X116817142Y-53174166D02*
X116864761Y-53221785D01*
X116912380Y-53364642D01*
X116912380Y-53459880D01*
X116864761Y-53602738D01*
X116769523Y-53697976D01*
X116674285Y-53745595D01*
X116483809Y-53793214D01*
X116340952Y-53793214D01*
X116150476Y-53745595D01*
X116055238Y-53697976D01*
X115960000Y-53602738D01*
X115912380Y-53459880D01*
X115912380Y-53364642D01*
X115960000Y-53221785D01*
X116007619Y-53174166D01*
X115912380Y-52317023D02*
X115912380Y-52507500D01*
X115960000Y-52602738D01*
X116007619Y-52650357D01*
X116150476Y-52745595D01*
X116340952Y-52793214D01*
X116721904Y-52793214D01*
X116817142Y-52745595D01*
X116864761Y-52697976D01*
X116912380Y-52602738D01*
X116912380Y-52412261D01*
X116864761Y-52317023D01*
X116817142Y-52269404D01*
X116721904Y-52221785D01*
X116483809Y-52221785D01*
X116388571Y-52269404D01*
X116340952Y-52317023D01*
X116293333Y-52412261D01*
X116293333Y-52602738D01*
X116340952Y-52697976D01*
X116388571Y-52745595D01*
X116483809Y-52793214D01*
G04 #@! TO.C,D1*
X131976904Y-51467380D02*
X131976904Y-50467380D01*
X132215000Y-50467380D01*
X132357857Y-50515000D01*
X132453095Y-50610238D01*
X132500714Y-50705476D01*
X132548333Y-50895952D01*
X132548333Y-51038809D01*
X132500714Y-51229285D01*
X132453095Y-51324523D01*
X132357857Y-51419761D01*
X132215000Y-51467380D01*
X131976904Y-51467380D01*
X133500714Y-51467380D02*
X132929285Y-51467380D01*
X133215000Y-51467380D02*
X133215000Y-50467380D01*
X133119761Y-50610238D01*
X133024523Y-50705476D01*
X132929285Y-50753095D01*
G04 #@! TO.C,D2*
X137056904Y-76232380D02*
X137056904Y-75232380D01*
X137295000Y-75232380D01*
X137437857Y-75280000D01*
X137533095Y-75375238D01*
X137580714Y-75470476D01*
X137628333Y-75660952D01*
X137628333Y-75803809D01*
X137580714Y-75994285D01*
X137533095Y-76089523D01*
X137437857Y-76184761D01*
X137295000Y-76232380D01*
X137056904Y-76232380D01*
X138009285Y-75327619D02*
X138056904Y-75280000D01*
X138152142Y-75232380D01*
X138390238Y-75232380D01*
X138485476Y-75280000D01*
X138533095Y-75327619D01*
X138580714Y-75422857D01*
X138580714Y-75518095D01*
X138533095Y-75660952D01*
X137961666Y-76232380D01*
X138580714Y-76232380D01*
G04 #@! TO.C,J2*
X146518380Y-55959333D02*
X147232666Y-55959333D01*
X147375523Y-56006952D01*
X147470761Y-56102190D01*
X147518380Y-56245047D01*
X147518380Y-56340285D01*
X146613619Y-55530761D02*
X146566000Y-55483142D01*
X146518380Y-55387904D01*
X146518380Y-55149809D01*
X146566000Y-55054571D01*
X146613619Y-55006952D01*
X146708857Y-54959333D01*
X146804095Y-54959333D01*
X146946952Y-55006952D01*
X147518380Y-55578380D01*
X147518380Y-54959333D01*
G04 #@! TO.C,J3*
X108886666Y-118197380D02*
X108886666Y-118911666D01*
X108839047Y-119054523D01*
X108743809Y-119149761D01*
X108600952Y-119197380D01*
X108505714Y-119197380D01*
X109267619Y-118197380D02*
X109886666Y-118197380D01*
X109553333Y-118578333D01*
X109696190Y-118578333D01*
X109791428Y-118625952D01*
X109839047Y-118673571D01*
X109886666Y-118768809D01*
X109886666Y-119006904D01*
X109839047Y-119102142D01*
X109791428Y-119149761D01*
X109696190Y-119197380D01*
X109410476Y-119197380D01*
X109315238Y-119149761D01*
X109267619Y-119102142D01*
G04 #@! TO.C,J4*
X94916666Y-108902380D02*
X94916666Y-109616666D01*
X94869047Y-109759523D01*
X94773809Y-109854761D01*
X94630952Y-109902380D01*
X94535714Y-109902380D01*
X95821428Y-109235714D02*
X95821428Y-109902380D01*
X95583333Y-108854761D02*
X95345238Y-109569047D01*
X95964285Y-109569047D01*
G04 #@! TO.C,J5*
X105092380Y-120983333D02*
X105806666Y-120983333D01*
X105949523Y-121030952D01*
X106044761Y-121126190D01*
X106092380Y-121269047D01*
X106092380Y-121364285D01*
X105092380Y-120030952D02*
X105092380Y-120507142D01*
X105568571Y-120554761D01*
X105520952Y-120507142D01*
X105473333Y-120411904D01*
X105473333Y-120173809D01*
X105520952Y-120078571D01*
X105568571Y-120030952D01*
X105663809Y-119983333D01*
X105901904Y-119983333D01*
X105997142Y-120030952D01*
X106044761Y-120078571D01*
X106092380Y-120173809D01*
X106092380Y-120411904D01*
X106044761Y-120507142D01*
X105997142Y-120554761D01*
G04 #@! TO.C,J6*
X157721666Y-59412380D02*
X157721666Y-60126666D01*
X157674047Y-60269523D01*
X157578809Y-60364761D01*
X157435952Y-60412380D01*
X157340714Y-60412380D01*
X158626428Y-59412380D02*
X158435952Y-59412380D01*
X158340714Y-59460000D01*
X158293095Y-59507619D01*
X158197857Y-59650476D01*
X158150238Y-59840952D01*
X158150238Y-60221904D01*
X158197857Y-60317142D01*
X158245476Y-60364761D01*
X158340714Y-60412380D01*
X158531190Y-60412380D01*
X158626428Y-60364761D01*
X158674047Y-60317142D01*
X158721666Y-60221904D01*
X158721666Y-59983809D01*
X158674047Y-59888571D01*
X158626428Y-59840952D01*
X158531190Y-59793333D01*
X158340714Y-59793333D01*
X158245476Y-59840952D01*
X158197857Y-59888571D01*
X158150238Y-59983809D01*
G04 #@! TO.C,J7*
X157721666Y-87352380D02*
X157721666Y-88066666D01*
X157674047Y-88209523D01*
X157578809Y-88304761D01*
X157435952Y-88352380D01*
X157340714Y-88352380D01*
X158102619Y-87352380D02*
X158769285Y-87352380D01*
X158340714Y-88352380D01*
G04 #@! TO.C,J9*
X157721666Y-73382380D02*
X157721666Y-74096666D01*
X157674047Y-74239523D01*
X157578809Y-74334761D01*
X157435952Y-74382380D01*
X157340714Y-74382380D01*
X158245476Y-74382380D02*
X158435952Y-74382380D01*
X158531190Y-74334761D01*
X158578809Y-74287142D01*
X158674047Y-74144285D01*
X158721666Y-73953809D01*
X158721666Y-73572857D01*
X158674047Y-73477619D01*
X158626428Y-73430000D01*
X158531190Y-73382380D01*
X158340714Y-73382380D01*
X158245476Y-73430000D01*
X158197857Y-73477619D01*
X158150238Y-73572857D01*
X158150238Y-73810952D01*
X158197857Y-73906190D01*
X158245476Y-73953809D01*
X158340714Y-74001428D01*
X158531190Y-74001428D01*
X158626428Y-73953809D01*
X158674047Y-73906190D01*
X158721666Y-73810952D01*
G04 #@! TO.C,J10*
X140676380Y-56689523D02*
X141390666Y-56689523D01*
X141533523Y-56737142D01*
X141628761Y-56832380D01*
X141676380Y-56975238D01*
X141676380Y-57070476D01*
X141676380Y-55689523D02*
X141676380Y-56260952D01*
X141676380Y-55975238D02*
X140676380Y-55975238D01*
X140819238Y-56070476D01*
X140914476Y-56165714D01*
X140962095Y-56260952D01*
X140676380Y-55070476D02*
X140676380Y-54975238D01*
X140724000Y-54880000D01*
X140771619Y-54832380D01*
X140866857Y-54784761D01*
X141057333Y-54737142D01*
X141295428Y-54737142D01*
X141485904Y-54784761D01*
X141581142Y-54832380D01*
X141628761Y-54880000D01*
X141676380Y-54975238D01*
X141676380Y-55070476D01*
X141628761Y-55165714D01*
X141581142Y-55213333D01*
X141485904Y-55260952D01*
X141295428Y-55308571D01*
X141057333Y-55308571D01*
X140866857Y-55260952D01*
X140771619Y-55213333D01*
X140724000Y-55165714D01*
X140676380Y-55070476D01*
G04 #@! TO.C,J11*
X157245476Y-101322380D02*
X157245476Y-102036666D01*
X157197857Y-102179523D01*
X157102619Y-102274761D01*
X156959761Y-102322380D01*
X156864523Y-102322380D01*
X158245476Y-102322380D02*
X157674047Y-102322380D01*
X157959761Y-102322380D02*
X157959761Y-101322380D01*
X157864523Y-101465238D01*
X157769285Y-101560476D01*
X157674047Y-101608095D01*
X159197857Y-102322380D02*
X158626428Y-102322380D01*
X158912142Y-102322380D02*
X158912142Y-101322380D01*
X158816904Y-101465238D01*
X158721666Y-101560476D01*
X158626428Y-101608095D01*
G04 #@! TO.C,R1*
X110958333Y-117122380D02*
X110625000Y-116646190D01*
X110386904Y-117122380D02*
X110386904Y-116122380D01*
X110767857Y-116122380D01*
X110863095Y-116170000D01*
X110910714Y-116217619D01*
X110958333Y-116312857D01*
X110958333Y-116455714D01*
X110910714Y-116550952D01*
X110863095Y-116598571D01*
X110767857Y-116646190D01*
X110386904Y-116646190D01*
X111910714Y-117122380D02*
X111339285Y-117122380D01*
X111625000Y-117122380D02*
X111625000Y-116122380D01*
X111529761Y-116265238D01*
X111434523Y-116360476D01*
X111339285Y-116408095D01*
G04 #@! TO.C,R2*
X100163333Y-117122380D02*
X99830000Y-116646190D01*
X99591904Y-117122380D02*
X99591904Y-116122380D01*
X99972857Y-116122380D01*
X100068095Y-116170000D01*
X100115714Y-116217619D01*
X100163333Y-116312857D01*
X100163333Y-116455714D01*
X100115714Y-116550952D01*
X100068095Y-116598571D01*
X99972857Y-116646190D01*
X99591904Y-116646190D01*
X100544285Y-116217619D02*
X100591904Y-116170000D01*
X100687142Y-116122380D01*
X100925238Y-116122380D01*
X101020476Y-116170000D01*
X101068095Y-116217619D01*
X101115714Y-116312857D01*
X101115714Y-116408095D01*
X101068095Y-116550952D01*
X100496666Y-117122380D01*
X101115714Y-117122380D01*
G04 #@! TO.C,R3*
X135580380Y-58840666D02*
X135104190Y-59174000D01*
X135580380Y-59412095D02*
X134580380Y-59412095D01*
X134580380Y-59031142D01*
X134628000Y-58935904D01*
X134675619Y-58888285D01*
X134770857Y-58840666D01*
X134913714Y-58840666D01*
X135008952Y-58888285D01*
X135056571Y-58935904D01*
X135104190Y-59031142D01*
X135104190Y-59412095D01*
X134580380Y-58507333D02*
X134580380Y-57888285D01*
X134961333Y-58221619D01*
X134961333Y-58078761D01*
X135008952Y-57983523D01*
X135056571Y-57935904D01*
X135151809Y-57888285D01*
X135389904Y-57888285D01*
X135485142Y-57935904D01*
X135532761Y-57983523D01*
X135580380Y-58078761D01*
X135580380Y-58364476D01*
X135532761Y-58459714D01*
X135485142Y-58507333D01*
G04 #@! TO.C,R4*
X139835833Y-83637380D02*
X139502500Y-83161190D01*
X139264404Y-83637380D02*
X139264404Y-82637380D01*
X139645357Y-82637380D01*
X139740595Y-82685000D01*
X139788214Y-82732619D01*
X139835833Y-82827857D01*
X139835833Y-82970714D01*
X139788214Y-83065952D01*
X139740595Y-83113571D01*
X139645357Y-83161190D01*
X139264404Y-83161190D01*
X140692976Y-82970714D02*
X140692976Y-83637380D01*
X140454880Y-82589761D02*
X140216785Y-83304047D01*
X140835833Y-83304047D01*
G04 #@! TO.C,U1*
X109808095Y-49572380D02*
X109808095Y-50381904D01*
X109855714Y-50477142D01*
X109903333Y-50524761D01*
X109998571Y-50572380D01*
X110189047Y-50572380D01*
X110284285Y-50524761D01*
X110331904Y-50477142D01*
X110379523Y-50381904D01*
X110379523Y-49572380D01*
X111379523Y-50572380D02*
X110808095Y-50572380D01*
X111093809Y-50572380D02*
X111093809Y-49572380D01*
X110998571Y-49715238D01*
X110903333Y-49810476D01*
X110808095Y-49858095D01*
G04 #@! TO.C,U2*
X122428095Y-77092380D02*
X122428095Y-77901904D01*
X122475714Y-77997142D01*
X122523333Y-78044761D01*
X122618571Y-78092380D01*
X122809047Y-78092380D01*
X122904285Y-78044761D01*
X122951904Y-77997142D01*
X122999523Y-77901904D01*
X122999523Y-77092380D01*
X123428095Y-77187619D02*
X123475714Y-77140000D01*
X123570952Y-77092380D01*
X123809047Y-77092380D01*
X123904285Y-77140000D01*
X123951904Y-77187619D01*
X123999523Y-77282857D01*
X123999523Y-77378095D01*
X123951904Y-77520952D01*
X123380476Y-78092380D01*
X123999523Y-78092380D01*
G04 #@! TO.C,U3*
X123698095Y-48572380D02*
X123698095Y-49381904D01*
X123745714Y-49477142D01*
X123793333Y-49524761D01*
X123888571Y-49572380D01*
X124079047Y-49572380D01*
X124174285Y-49524761D01*
X124221904Y-49477142D01*
X124269523Y-49381904D01*
X124269523Y-48572380D01*
X124650476Y-48572380D02*
X125269523Y-48572380D01*
X124936190Y-48953333D01*
X125079047Y-48953333D01*
X125174285Y-49000952D01*
X125221904Y-49048571D01*
X125269523Y-49143809D01*
X125269523Y-49381904D01*
X125221904Y-49477142D01*
X125174285Y-49524761D01*
X125079047Y-49572380D01*
X124793333Y-49572380D01*
X124698095Y-49524761D01*
X124650476Y-49477142D01*
G04 #@! TO.C,Y1*
X105671190Y-86936190D02*
X106147380Y-86936190D01*
X105147380Y-87269523D02*
X105671190Y-86936190D01*
X105147380Y-86602857D01*
X106147380Y-85745714D02*
X106147380Y-86317142D01*
X106147380Y-86031428D02*
X105147380Y-86031428D01*
X105290238Y-86126666D01*
X105385476Y-86221904D01*
X105433095Y-86317142D01*
G04 #@! TO.C,J1*
X91546666Y-58542380D02*
X91546666Y-59256666D01*
X91499047Y-59399523D01*
X91403809Y-59494761D01*
X91260952Y-59542380D01*
X91165714Y-59542380D01*
X92546666Y-59542380D02*
X91975238Y-59542380D01*
X92260952Y-59542380D02*
X92260952Y-58542380D01*
X92165714Y-58685238D01*
X92070476Y-58780476D01*
X91975238Y-58828095D01*
G04 #@! TO.C,J8*
X138898380Y-121237333D02*
X139612666Y-121237333D01*
X139755523Y-121284952D01*
X139850761Y-121380190D01*
X139898380Y-121523047D01*
X139898380Y-121618285D01*
X139326952Y-120618285D02*
X139279333Y-120713523D01*
X139231714Y-120761142D01*
X139136476Y-120808761D01*
X139088857Y-120808761D01*
X138993619Y-120761142D01*
X138946000Y-120713523D01*
X138898380Y-120618285D01*
X138898380Y-120427809D01*
X138946000Y-120332571D01*
X138993619Y-120284952D01*
X139088857Y-120237333D01*
X139136476Y-120237333D01*
X139231714Y-120284952D01*
X139279333Y-120332571D01*
X139326952Y-120427809D01*
X139326952Y-120618285D01*
X139374571Y-120713523D01*
X139422190Y-120761142D01*
X139517428Y-120808761D01*
X139707904Y-120808761D01*
X139803142Y-120761142D01*
X139850761Y-120713523D01*
X139898380Y-120618285D01*
X139898380Y-120427809D01*
X139850761Y-120332571D01*
X139803142Y-120284952D01*
X139707904Y-120237333D01*
X139517428Y-120237333D01*
X139422190Y-120284952D01*
X139374571Y-120332571D01*
X139326952Y-120427809D01*
G04 #@! TO.C,RV1*
X102869761Y-100072380D02*
X102536428Y-99596190D01*
X102298333Y-100072380D02*
X102298333Y-99072380D01*
X102679285Y-99072380D01*
X102774523Y-99120000D01*
X102822142Y-99167619D01*
X102869761Y-99262857D01*
X102869761Y-99405714D01*
X102822142Y-99500952D01*
X102774523Y-99548571D01*
X102679285Y-99596190D01*
X102298333Y-99596190D01*
X103155476Y-99072380D02*
X103488809Y-100072380D01*
X103822142Y-99072380D01*
X104679285Y-100072380D02*
X104107857Y-100072380D01*
X104393571Y-100072380D02*
X104393571Y-99072380D01*
X104298333Y-99215238D01*
X104203095Y-99310476D01*
X104107857Y-99358095D01*
G04 #@! TO.C,RV2*
X125094761Y-63242380D02*
X124761428Y-62766190D01*
X124523333Y-63242380D02*
X124523333Y-62242380D01*
X124904285Y-62242380D01*
X124999523Y-62290000D01*
X125047142Y-62337619D01*
X125094761Y-62432857D01*
X125094761Y-62575714D01*
X125047142Y-62670952D01*
X124999523Y-62718571D01*
X124904285Y-62766190D01*
X124523333Y-62766190D01*
X125380476Y-62242380D02*
X125713809Y-63242380D01*
X126047142Y-62242380D01*
X126332857Y-62337619D02*
X126380476Y-62290000D01*
X126475714Y-62242380D01*
X126713809Y-62242380D01*
X126809047Y-62290000D01*
X126856666Y-62337619D01*
X126904285Y-62432857D01*
X126904285Y-62528095D01*
X126856666Y-62670952D01*
X126285238Y-63242380D01*
X126904285Y-63242380D01*
G04 #@! TO.C,SW1*
X152411666Y-50474761D02*
X152554523Y-50522380D01*
X152792619Y-50522380D01*
X152887857Y-50474761D01*
X152935476Y-50427142D01*
X152983095Y-50331904D01*
X152983095Y-50236666D01*
X152935476Y-50141428D01*
X152887857Y-50093809D01*
X152792619Y-50046190D01*
X152602142Y-49998571D01*
X152506904Y-49950952D01*
X152459285Y-49903333D01*
X152411666Y-49808095D01*
X152411666Y-49712857D01*
X152459285Y-49617619D01*
X152506904Y-49570000D01*
X152602142Y-49522380D01*
X152840238Y-49522380D01*
X152983095Y-49570000D01*
X153316428Y-49522380D02*
X153554523Y-50522380D01*
X153745000Y-49808095D01*
X153935476Y-50522380D01*
X154173571Y-49522380D01*
X155078333Y-50522380D02*
X154506904Y-50522380D01*
X154792619Y-50522380D02*
X154792619Y-49522380D01*
X154697380Y-49665238D01*
X154602142Y-49760476D01*
X154506904Y-49808095D01*
G04 #@! TO.C,J12*
X150836380Y-122729523D02*
X151550666Y-122729523D01*
X151693523Y-122777142D01*
X151788761Y-122872380D01*
X151836380Y-123015238D01*
X151836380Y-123110476D01*
X151836380Y-121729523D02*
X151836380Y-122300952D01*
X151836380Y-122015238D02*
X150836380Y-122015238D01*
X150979238Y-122110476D01*
X151074476Y-122205714D01*
X151122095Y-122300952D01*
X150931619Y-121348571D02*
X150884000Y-121300952D01*
X150836380Y-121205714D01*
X150836380Y-120967619D01*
X150884000Y-120872380D01*
X150931619Y-120824761D01*
X151026857Y-120777142D01*
X151122095Y-120777142D01*
X151264952Y-120824761D01*
X151836380Y-121396190D01*
X151836380Y-120777142D01*
G04 #@! TO.C,J13*
X143724380Y-121713523D02*
X144438666Y-121713523D01*
X144581523Y-121761142D01*
X144676761Y-121856380D01*
X144724380Y-121999238D01*
X144724380Y-122094476D01*
X144724380Y-120713523D02*
X144724380Y-121284952D01*
X144724380Y-120999238D02*
X143724380Y-120999238D01*
X143867238Y-121094476D01*
X143962476Y-121189714D01*
X144010095Y-121284952D01*
X143724380Y-120380190D02*
X143724380Y-119761142D01*
X144105333Y-120094476D01*
X144105333Y-119951619D01*
X144152952Y-119856380D01*
X144200571Y-119808761D01*
X144295809Y-119761142D01*
X144533904Y-119761142D01*
X144629142Y-119808761D01*
X144676761Y-119856380D01*
X144724380Y-119951619D01*
X144724380Y-120237333D01*
X144676761Y-120332571D01*
X144629142Y-120380190D01*
G04 #@! TO.C,H1*
X146050095Y-48712380D02*
X146050095Y-47712380D01*
X146050095Y-48188571D02*
X146621523Y-48188571D01*
X146621523Y-48712380D02*
X146621523Y-47712380D01*
X147621523Y-48712380D02*
X147050095Y-48712380D01*
X147335809Y-48712380D02*
X147335809Y-47712380D01*
X147240571Y-47855238D01*
X147145333Y-47950476D01*
X147050095Y-47998095D01*
G04 #@! TO.C,H2*
X89154095Y-66864380D02*
X89154095Y-65864380D01*
X89154095Y-66340571D02*
X89725523Y-66340571D01*
X89725523Y-66864380D02*
X89725523Y-65864380D01*
X90154095Y-65959619D02*
X90201714Y-65912000D01*
X90296952Y-65864380D01*
X90535047Y-65864380D01*
X90630285Y-65912000D01*
X90677904Y-65959619D01*
X90725523Y-66054857D01*
X90725523Y-66150095D01*
X90677904Y-66292952D01*
X90106476Y-66864380D01*
X90725523Y-66864380D01*
G04 #@! TO.C,H3*
X93853095Y-112847380D02*
X93853095Y-111847380D01*
X93853095Y-112323571D02*
X94424523Y-112323571D01*
X94424523Y-112847380D02*
X94424523Y-111847380D01*
X94805476Y-111847380D02*
X95424523Y-111847380D01*
X95091190Y-112228333D01*
X95234047Y-112228333D01*
X95329285Y-112275952D01*
X95376904Y-112323571D01*
X95424523Y-112418809D01*
X95424523Y-112656904D01*
X95376904Y-112752142D01*
X95329285Y-112799761D01*
X95234047Y-112847380D01*
X94948333Y-112847380D01*
X94853095Y-112799761D01*
X94805476Y-112752142D01*
G04 #@! TD*
M02*
